G75*
%MOIN*%
%OFA0B0*%
%FSLAX24Y24*%
%IPPOS*%
%LPD*%
%AMOC8*
5,1,8,0,0,1.08239X$1,22.5*
%
%ADD10C,0.0080*%
%ADD11C,0.0560*%
%ADD12C,0.0768*%
%ADD13C,0.0780*%
%ADD14R,0.0670X0.0749*%
%ADD15R,0.0749X0.0670*%
%ADD16R,0.0709X0.1024*%
%ADD17R,0.0552X0.0650*%
%ADD18C,0.0680*%
%ADD19C,0.0808*%
%ADD20R,0.0591X0.0512*%
%ADD21C,0.0500*%
%ADD22C,0.0631*%
D10*
X000150Y000150D02*
X009150Y000150D01*
X009150Y019650D01*
X000150Y019650D01*
X000150Y000150D01*
D11*
X002150Y004890D02*
X002150Y005410D01*
X003150Y005410D02*
X003150Y004890D01*
X004150Y004890D02*
X004150Y005410D01*
X005150Y005410D02*
X005150Y004890D01*
X006150Y004890D02*
X006150Y005410D01*
X007150Y005410D02*
X007150Y004890D01*
X008150Y004890D02*
X008150Y005410D01*
X008150Y007890D02*
X008150Y008410D01*
X007150Y008410D02*
X007150Y007890D01*
X006150Y007890D02*
X006150Y008410D01*
X005150Y008410D02*
X005150Y007890D01*
X004150Y007890D02*
X004150Y008410D01*
X003150Y008410D02*
X003150Y007890D01*
X002150Y007890D02*
X002150Y008410D01*
D12*
X002150Y002650D03*
X002150Y001650D03*
X003150Y001650D03*
X003150Y002650D03*
X004150Y002650D03*
X004150Y001650D03*
X005150Y001650D03*
X005150Y002650D03*
D13*
X007150Y018650D03*
X008150Y018650D03*
X002068Y018685D03*
X001068Y018685D03*
D14*
X001099Y017650D03*
X002201Y017650D03*
X003599Y012649D03*
X004701Y012649D03*
X007098Y017651D03*
X008200Y017651D03*
D15*
X007150Y011201D03*
X007150Y010099D03*
X001150Y007201D03*
X001150Y006099D03*
X001150Y004701D03*
X001150Y003599D03*
D16*
X001905Y010150D03*
X003401Y010150D03*
D17*
X003764Y013585D03*
X003764Y016715D03*
X005536Y016715D03*
X005536Y013585D03*
D18*
X007150Y003150D03*
X007150Y002150D03*
X007150Y001150D03*
X008150Y001150D03*
X008150Y002150D03*
X008150Y003150D03*
D19*
X004650Y009776D03*
X004650Y017650D03*
D20*
X008150Y011241D03*
X008150Y010059D03*
D21*
X005294Y011900D02*
X005296Y011937D01*
X005302Y011974D01*
X005311Y012010D01*
X005325Y012045D01*
X005342Y012078D01*
X005362Y012109D01*
X005385Y012138D01*
X005412Y012165D01*
X005441Y012188D01*
X005472Y012208D01*
X005505Y012225D01*
X005540Y012239D01*
X005576Y012248D01*
X005613Y012254D01*
X005650Y012256D01*
X005687Y012254D01*
X005724Y012248D01*
X005760Y012239D01*
X005795Y012225D01*
X005828Y012208D01*
X005859Y012188D01*
X005888Y012165D01*
X005915Y012138D01*
X005938Y012109D01*
X005958Y012078D01*
X005975Y012045D01*
X005989Y012010D01*
X005998Y011974D01*
X006004Y011937D01*
X006006Y011900D01*
X006004Y011863D01*
X005998Y011826D01*
X005989Y011790D01*
X005975Y011755D01*
X005958Y011722D01*
X005938Y011691D01*
X005915Y011662D01*
X005888Y011635D01*
X005859Y011612D01*
X005828Y011592D01*
X005795Y011575D01*
X005760Y011561D01*
X005724Y011552D01*
X005687Y011546D01*
X005650Y011544D01*
X005613Y011546D01*
X005576Y011552D01*
X005540Y011561D01*
X005505Y011575D01*
X005472Y011592D01*
X005441Y011612D01*
X005412Y011635D01*
X005385Y011662D01*
X005362Y011691D01*
X005342Y011722D01*
X005325Y011755D01*
X005311Y011790D01*
X005302Y011826D01*
X005296Y011863D01*
X005294Y011900D01*
X003294Y018900D02*
X003296Y018937D01*
X003302Y018974D01*
X003311Y019010D01*
X003325Y019045D01*
X003342Y019078D01*
X003362Y019109D01*
X003385Y019138D01*
X003412Y019165D01*
X003441Y019188D01*
X003472Y019208D01*
X003505Y019225D01*
X003540Y019239D01*
X003576Y019248D01*
X003613Y019254D01*
X003650Y019256D01*
X003687Y019254D01*
X003724Y019248D01*
X003760Y019239D01*
X003795Y019225D01*
X003828Y019208D01*
X003859Y019188D01*
X003888Y019165D01*
X003915Y019138D01*
X003938Y019109D01*
X003958Y019078D01*
X003975Y019045D01*
X003989Y019010D01*
X003998Y018974D01*
X004004Y018937D01*
X004006Y018900D01*
X004004Y018863D01*
X003998Y018826D01*
X003989Y018790D01*
X003975Y018755D01*
X003958Y018722D01*
X003938Y018691D01*
X003915Y018662D01*
X003888Y018635D01*
X003859Y018612D01*
X003828Y018592D01*
X003795Y018575D01*
X003760Y018561D01*
X003724Y018552D01*
X003687Y018546D01*
X003650Y018544D01*
X003613Y018546D01*
X003576Y018552D01*
X003540Y018561D01*
X003505Y018575D01*
X003472Y018592D01*
X003441Y018612D01*
X003412Y018635D01*
X003385Y018662D01*
X003362Y018691D01*
X003342Y018722D01*
X003325Y018755D01*
X003311Y018790D01*
X003302Y018826D01*
X003296Y018863D01*
X003294Y018900D01*
D22*
X003650Y018900D03*
X005650Y011900D03*
M02*
