G75*
%MOIN*%
%OFA0B0*%
%FSLAX24Y24*%
%IPPOS*%
%LPD*%
%AMOC8*
5,1,8,0,0,1.08239X$1,22.5*
%
%ADD10C,0.0080*%
%ADD11C,0.0520*%
%ADD12C,0.0728*%
%ADD13C,0.0740*%
%ADD14R,0.0630X0.0709*%
%ADD15R,0.0709X0.0630*%
%ADD16R,0.0669X0.0984*%
%ADD17R,0.0512X0.0610*%
%ADD18C,0.0640*%
%ADD19C,0.0768*%
%ADD20R,0.0551X0.0472*%
%ADD21C,0.0591*%
%ADD22C,0.0100*%
%ADD23C,0.0320*%
%ADD24C,0.0240*%
%ADD25C,0.0160*%
D10*
X000150Y000150D02*
X009150Y000150D01*
X009150Y019650D01*
X000150Y019650D01*
X000150Y000150D01*
D11*
X002150Y004890D02*
X002150Y005410D01*
X003150Y005410D02*
X003150Y004890D01*
X004150Y004890D02*
X004150Y005410D01*
X005150Y005410D02*
X005150Y004890D01*
X006150Y004890D02*
X006150Y005410D01*
X007150Y005410D02*
X007150Y004890D01*
X008150Y004890D02*
X008150Y005410D01*
X008150Y007890D02*
X008150Y008410D01*
X007150Y008410D02*
X007150Y007890D01*
X006150Y007890D02*
X006150Y008410D01*
X005150Y008410D02*
X005150Y007890D01*
X004150Y007890D02*
X004150Y008410D01*
X003150Y008410D02*
X003150Y007890D01*
X002150Y007890D02*
X002150Y008410D01*
D12*
X002150Y002650D03*
X002150Y001650D03*
X003150Y001650D03*
X003150Y002650D03*
X004150Y002650D03*
X004150Y001650D03*
X005150Y001650D03*
X005150Y002650D03*
D13*
X007150Y018650D03*
X008150Y018650D03*
X002068Y018685D03*
X001068Y018685D03*
D14*
X001099Y017650D03*
X002201Y017650D03*
X003599Y012649D03*
X004701Y012649D03*
X007098Y017651D03*
X008200Y017651D03*
D15*
X007150Y011201D03*
X007150Y010099D03*
X001150Y007201D03*
X001150Y006099D03*
X001150Y004701D03*
X001150Y003599D03*
D16*
X001905Y010150D03*
X003401Y010150D03*
D17*
X003764Y013585D03*
X003764Y016715D03*
X005536Y016715D03*
X005536Y013585D03*
D18*
X007150Y003150D03*
X007150Y002150D03*
X007150Y001150D03*
X008150Y001150D03*
X008150Y002150D03*
X008150Y003150D03*
D19*
X004650Y009776D03*
X004650Y017650D03*
D20*
X008150Y011241D03*
X008150Y010059D03*
D21*
X005650Y011900D03*
X003650Y018900D03*
D22*
X003830Y018471D02*
X006662Y018471D01*
X006669Y018450D02*
X006706Y018377D01*
X006754Y018311D01*
X006812Y018253D01*
X006878Y018205D01*
X006937Y018175D01*
X006713Y018175D01*
X006613Y018075D01*
X006613Y017226D01*
X006713Y017126D01*
X006900Y017126D01*
X006900Y014254D01*
X005962Y013315D01*
X005962Y013961D01*
X005862Y014060D01*
X005210Y014060D01*
X005110Y013961D01*
X005110Y013210D01*
X005210Y013110D01*
X005756Y013110D01*
X005546Y012900D01*
X005186Y012900D01*
X005186Y013074D01*
X005087Y013173D01*
X004316Y013173D01*
X004216Y013074D01*
X004216Y012224D01*
X004316Y012125D01*
X004451Y012125D01*
X004451Y012055D01*
X003289Y010892D01*
X003288Y010892D01*
X003263Y010866D01*
X003237Y010856D01*
X003193Y010812D01*
X002996Y010812D01*
X002897Y010713D01*
X002897Y009587D01*
X002912Y009572D01*
X002780Y009440D01*
X001614Y009440D01*
X001471Y009381D01*
X001456Y009367D01*
X000986Y008896D01*
X000904Y008814D01*
X000860Y008708D01*
X000860Y007686D01*
X000725Y007686D01*
X000626Y007587D01*
X000626Y006816D01*
X000725Y006716D01*
X001575Y006716D01*
X001624Y006766D01*
X001860Y006530D01*
X001860Y005728D01*
X001785Y005654D01*
X001720Y005496D01*
X001720Y004804D01*
X001785Y004646D01*
X001860Y004572D01*
X001860Y004270D01*
X001624Y004034D01*
X001575Y004084D01*
X000725Y004084D01*
X000626Y003984D01*
X000626Y003245D01*
X000610Y003207D01*
X000610Y001092D01*
X000654Y000986D01*
X000736Y000904D01*
X001154Y000486D01*
X001236Y000404D01*
X001342Y000360D01*
X006958Y000360D01*
X007064Y000404D01*
X007146Y000486D01*
X007367Y000706D01*
X007367Y000706D01*
X007371Y000711D01*
X007428Y000735D01*
X007565Y000872D01*
X007640Y001053D01*
X007640Y001247D01*
X007568Y001421D01*
X007684Y001305D01*
X007660Y001247D01*
X007660Y001053D01*
X007735Y000872D01*
X007872Y000735D01*
X008053Y000660D01*
X008247Y000660D01*
X008428Y000735D01*
X008565Y000872D01*
X008640Y001053D01*
X008640Y001079D01*
X008649Y001088D01*
X008649Y001088D01*
X008741Y001180D01*
X008870Y001309D01*
X008870Y006991D01*
X008370Y007491D01*
X008370Y007516D01*
X008394Y007525D01*
X008515Y007646D01*
X008580Y007804D01*
X008580Y008496D01*
X008515Y008654D01*
X008394Y008775D01*
X008236Y008840D01*
X008151Y008840D01*
X008212Y008901D01*
X008212Y008901D01*
X008267Y008956D01*
X008341Y009030D01*
X008341Y009057D01*
X008351Y009081D01*
X008370Y009100D01*
X008370Y009653D01*
X008496Y009653D01*
X008596Y009753D01*
X008596Y010366D01*
X008496Y010466D01*
X007804Y010466D01*
X007704Y010366D01*
X007704Y009753D01*
X007804Y009653D01*
X007930Y009653D01*
X007930Y009241D01*
X007559Y008870D01*
X007430Y008741D01*
X007430Y008738D01*
X007394Y008775D01*
X007236Y008840D01*
X007064Y008840D01*
X006906Y008775D01*
X006785Y008654D01*
X006720Y008496D01*
X006720Y007804D01*
X006785Y007646D01*
X006906Y007525D01*
X007064Y007460D01*
X007236Y007460D01*
X007394Y007525D01*
X007430Y007562D01*
X007430Y007491D01*
X007309Y007370D01*
X005350Y007370D01*
X005331Y007351D01*
X005307Y007341D01*
X005280Y007341D01*
X005212Y007273D01*
X005151Y007212D01*
X004059Y006120D01*
X003930Y005991D01*
X003930Y005784D01*
X003906Y005775D01*
X003870Y005738D01*
X003870Y007562D01*
X003906Y007525D01*
X004064Y007460D01*
X004236Y007460D01*
X004394Y007525D01*
X004515Y007646D01*
X004580Y007804D01*
X004580Y008496D01*
X004515Y008654D01*
X004394Y008775D01*
X004236Y008840D01*
X004064Y008840D01*
X003906Y008775D01*
X003785Y008654D01*
X003720Y008496D01*
X003720Y007891D01*
X003712Y007899D01*
X003580Y008031D01*
X003580Y008496D01*
X003515Y008654D01*
X003394Y008775D01*
X003236Y008840D01*
X003064Y008840D01*
X002906Y008775D01*
X002785Y008654D01*
X002720Y008496D01*
X002720Y007804D01*
X002785Y007646D01*
X002906Y007525D01*
X003064Y007460D01*
X003236Y007460D01*
X003394Y007525D01*
X003428Y007560D01*
X003430Y007559D01*
X003430Y005738D01*
X003394Y005775D01*
X003236Y005840D01*
X003064Y005840D01*
X002906Y005775D01*
X002785Y005654D01*
X002720Y005496D01*
X002720Y004804D01*
X002785Y004646D01*
X002906Y004525D01*
X003064Y004460D01*
X003236Y004460D01*
X003394Y004525D01*
X003430Y004562D01*
X003430Y004309D01*
X003559Y004180D01*
X004742Y002997D01*
X004697Y002953D01*
X004650Y002839D01*
X004603Y002953D01*
X004453Y003103D01*
X004256Y003184D01*
X004044Y003184D01*
X003847Y003103D01*
X003697Y002953D01*
X003650Y002839D01*
X003603Y002953D01*
X003453Y003103D01*
X003256Y003184D01*
X003044Y003184D01*
X002847Y003103D01*
X002697Y002953D01*
X002650Y002839D01*
X002603Y002953D01*
X002453Y003103D01*
X002256Y003184D01*
X002044Y003184D01*
X001847Y003103D01*
X001697Y002953D01*
X001692Y002940D01*
X001270Y002940D01*
X001190Y003020D01*
X001190Y003029D01*
X001275Y003114D01*
X001575Y003114D01*
X001674Y003213D01*
X001674Y003325D01*
X001778Y003368D01*
X001792Y003382D01*
X001792Y003382D01*
X002314Y003904D01*
X002396Y003986D01*
X002440Y004092D01*
X002440Y004572D01*
X002515Y004646D01*
X002580Y004804D01*
X002580Y005496D01*
X002515Y005654D01*
X002440Y005728D01*
X002440Y006708D01*
X002396Y006814D01*
X002314Y006896D01*
X001792Y007418D01*
X001778Y007432D01*
X001674Y007475D01*
X001674Y007587D01*
X001575Y007686D01*
X001440Y007686D01*
X001440Y008530D01*
X001770Y008860D01*
X002958Y008860D01*
X003064Y008904D01*
X003146Y008986D01*
X003618Y009458D01*
X003632Y009472D01*
X003639Y009488D01*
X003806Y009488D01*
X003906Y009587D01*
X003906Y009860D01*
X004096Y009860D01*
X004096Y009666D01*
X004180Y009462D01*
X004336Y009306D01*
X004540Y009222D01*
X004760Y009222D01*
X004964Y009306D01*
X005120Y009462D01*
X005204Y009666D01*
X005204Y009886D01*
X005120Y010090D01*
X004964Y010246D01*
X004760Y010330D01*
X004540Y010330D01*
X004516Y010320D01*
X004440Y010396D01*
X004334Y010440D01*
X003906Y010440D01*
X003906Y010713D01*
X003861Y010757D01*
X004814Y011710D01*
X004849Y011745D01*
X004865Y011762D01*
X004884Y011780D01*
X004884Y011780D01*
X004898Y011794D01*
X004898Y011794D01*
X004951Y011923D01*
X004951Y012125D01*
X005087Y012125D01*
X005186Y012224D01*
X005186Y012400D01*
X005700Y012400D01*
X005792Y012438D01*
X007262Y013909D01*
X007263Y013909D01*
X007333Y013979D01*
X007333Y013979D01*
X007347Y013993D01*
X007400Y014122D01*
X007400Y017126D01*
X007483Y017126D01*
X007583Y017226D01*
X007583Y018075D01*
X007483Y018175D01*
X007364Y018175D01*
X007423Y018205D01*
X007489Y018253D01*
X007547Y018311D01*
X007595Y018377D01*
X007632Y018450D01*
X007640Y018472D01*
X007693Y018344D01*
X007845Y018192D01*
X007886Y018175D01*
X007815Y018175D01*
X007715Y018075D01*
X007715Y017226D01*
X007815Y017126D01*
X008586Y017126D01*
X008685Y017226D01*
X008685Y018075D01*
X008586Y018175D01*
X008415Y018175D01*
X008456Y018192D01*
X008608Y018344D01*
X008690Y018542D01*
X008690Y018757D01*
X008608Y018956D01*
X008456Y019108D01*
X008258Y019190D01*
X008043Y019190D01*
X007845Y019108D01*
X007693Y018956D01*
X007640Y018827D01*
X007632Y018849D01*
X007595Y018922D01*
X007547Y018989D01*
X007489Y019046D01*
X007423Y019095D01*
X007350Y019132D01*
X007272Y019157D01*
X007200Y019168D01*
X007200Y018700D01*
X007100Y018700D01*
X007100Y018600D01*
X006632Y018600D01*
X006643Y018528D01*
X006669Y018450D01*
X006709Y018373D02*
X002519Y018373D01*
X002526Y018380D02*
X002608Y018578D01*
X002608Y018793D01*
X002526Y018991D01*
X002374Y019143D01*
X002175Y019225D01*
X001960Y019225D01*
X001762Y019143D01*
X001610Y018991D01*
X001568Y018889D01*
X001526Y018991D01*
X001374Y019143D01*
X001175Y019225D01*
X000960Y019225D01*
X000762Y019143D01*
X000610Y018991D01*
X000528Y018793D01*
X000528Y018578D01*
X000610Y018380D01*
X000762Y018228D01*
X000879Y018179D01*
X000879Y018174D01*
X000713Y018174D01*
X000614Y018075D01*
X000614Y017225D01*
X000713Y017126D01*
X001484Y017126D01*
X001584Y017225D01*
X001584Y018075D01*
X001484Y018174D01*
X001319Y018174D01*
X001319Y018205D01*
X001374Y018228D01*
X001526Y018380D01*
X001568Y018481D01*
X001610Y018380D01*
X001762Y018228D01*
X001939Y018154D01*
X001866Y018154D01*
X001828Y018144D01*
X001794Y018124D01*
X001766Y018096D01*
X001746Y018062D01*
X001736Y018024D01*
X001736Y017700D01*
X002151Y017700D01*
X002151Y017600D01*
X001736Y017600D01*
X001736Y017276D01*
X001746Y017238D01*
X001766Y017204D01*
X001794Y017176D01*
X001828Y017156D01*
X001866Y017146D01*
X002151Y017146D01*
X002151Y017600D01*
X002251Y017600D01*
X002251Y017146D01*
X002536Y017146D01*
X002574Y017156D01*
X002608Y017176D01*
X002636Y017204D01*
X002656Y017238D01*
X002666Y017276D01*
X002666Y017600D01*
X002251Y017600D01*
X002251Y017700D01*
X002151Y017700D01*
X002151Y018145D01*
X002175Y018145D01*
X002374Y018228D01*
X002526Y018380D01*
X002563Y018471D02*
X003470Y018471D01*
X003386Y018506D02*
X003557Y018435D01*
X003743Y018435D01*
X003914Y018506D01*
X004044Y018636D01*
X004115Y018807D01*
X004115Y018993D01*
X004044Y019164D01*
X003914Y019294D01*
X003743Y019365D01*
X003557Y019365D01*
X003386Y019294D01*
X003256Y019164D01*
X003185Y018993D01*
X003185Y018807D01*
X003256Y018636D01*
X003386Y018506D01*
X003322Y018570D02*
X002604Y018570D01*
X002608Y018668D02*
X003242Y018668D01*
X003202Y018767D02*
X002608Y018767D01*
X002578Y018865D02*
X003185Y018865D01*
X003185Y018964D02*
X002537Y018964D01*
X002455Y019062D02*
X003214Y019062D01*
X003254Y019161D02*
X002332Y019161D01*
X002420Y018274D02*
X006791Y018274D01*
X006637Y018570D02*
X003978Y018570D01*
X004058Y018668D02*
X007100Y018668D01*
X007100Y018700D02*
X006632Y018700D01*
X006643Y018772D01*
X006669Y018849D01*
X006706Y018922D01*
X006754Y018989D01*
X006812Y019046D01*
X006878Y019095D01*
X006951Y019132D01*
X007029Y019157D01*
X007100Y019168D01*
X007100Y018700D01*
X007100Y018767D02*
X007200Y018767D01*
X007200Y018865D02*
X007100Y018865D01*
X007100Y018964D02*
X007200Y018964D01*
X007200Y019062D02*
X007100Y019062D01*
X007100Y019161D02*
X007200Y019161D01*
X007250Y019161D02*
X007972Y019161D01*
X007799Y019062D02*
X007468Y019062D01*
X007565Y018964D02*
X007701Y018964D01*
X007655Y018865D02*
X007624Y018865D01*
X007639Y018471D02*
X007640Y018471D01*
X007681Y018373D02*
X007592Y018373D01*
X007510Y018274D02*
X007763Y018274D01*
X007717Y018077D02*
X007581Y018077D01*
X007583Y017979D02*
X007715Y017979D01*
X007715Y017880D02*
X007583Y017880D01*
X007583Y017782D02*
X007715Y017782D01*
X007715Y017683D02*
X007583Y017683D01*
X007583Y017585D02*
X007715Y017585D01*
X007715Y017486D02*
X007583Y017486D01*
X007583Y017388D02*
X007715Y017388D01*
X007715Y017289D02*
X007583Y017289D01*
X007548Y017191D02*
X007751Y017191D01*
X007400Y017092D02*
X008940Y017092D01*
X008940Y016994D02*
X007400Y016994D01*
X007400Y016895D02*
X008940Y016895D01*
X008940Y016797D02*
X007400Y016797D01*
X007400Y016698D02*
X008940Y016698D01*
X008940Y016600D02*
X007400Y016600D01*
X007400Y016501D02*
X008940Y016501D01*
X008940Y016403D02*
X007400Y016403D01*
X007400Y016304D02*
X008940Y016304D01*
X008940Y016206D02*
X007400Y016206D01*
X007400Y016107D02*
X008940Y016107D01*
X008940Y016009D02*
X007400Y016009D01*
X007400Y015910D02*
X008940Y015910D01*
X008940Y015812D02*
X007400Y015812D01*
X007400Y015713D02*
X008940Y015713D01*
X008940Y015615D02*
X007400Y015615D01*
X007400Y015516D02*
X008940Y015516D01*
X008940Y015418D02*
X007400Y015418D01*
X007400Y015319D02*
X008940Y015319D01*
X008940Y015221D02*
X007400Y015221D01*
X007400Y015122D02*
X008940Y015122D01*
X008940Y015024D02*
X007400Y015024D01*
X007400Y014925D02*
X008940Y014925D01*
X008940Y014827D02*
X007400Y014827D01*
X007400Y014728D02*
X008940Y014728D01*
X008940Y014630D02*
X007400Y014630D01*
X007400Y014531D02*
X008940Y014531D01*
X008940Y014433D02*
X007400Y014433D01*
X007400Y014334D02*
X008940Y014334D01*
X008940Y014236D02*
X007400Y014236D01*
X007400Y014137D02*
X008940Y014137D01*
X008940Y014039D02*
X007366Y014039D01*
X007347Y013993D02*
X007347Y013993D01*
X007294Y013940D02*
X008940Y013940D01*
X008940Y013842D02*
X007195Y013842D01*
X007097Y013743D02*
X008940Y013743D01*
X008940Y013645D02*
X006998Y013645D01*
X006900Y013546D02*
X008940Y013546D01*
X008940Y013448D02*
X006801Y013448D01*
X006703Y013349D02*
X008940Y013349D01*
X008940Y013251D02*
X006604Y013251D01*
X006506Y013152D02*
X008940Y013152D01*
X008940Y013054D02*
X006407Y013054D01*
X006309Y012955D02*
X008940Y012955D01*
X008940Y012857D02*
X006210Y012857D01*
X006112Y012758D02*
X008940Y012758D01*
X008940Y012660D02*
X006013Y012660D01*
X005915Y012561D02*
X008940Y012561D01*
X008940Y012463D02*
X005816Y012463D01*
X005746Y012364D02*
X008940Y012364D01*
X008940Y012266D02*
X005942Y012266D01*
X005914Y012294D02*
X005743Y012365D01*
X005557Y012365D01*
X005386Y012294D01*
X005256Y012164D01*
X005185Y011993D01*
X005185Y011807D01*
X005256Y011636D01*
X005386Y011506D01*
X005557Y011435D01*
X005743Y011435D01*
X005914Y011506D01*
X006044Y011636D01*
X006115Y011807D01*
X006115Y011993D01*
X006044Y012164D01*
X005914Y012294D01*
X006041Y012167D02*
X008940Y012167D01*
X008940Y012069D02*
X006084Y012069D01*
X006115Y011970D02*
X008940Y011970D01*
X008940Y011872D02*
X006115Y011872D01*
X006101Y011773D02*
X008940Y011773D01*
X008940Y011675D02*
X007586Y011675D01*
X007575Y011686D02*
X007674Y011587D01*
X007674Y011421D01*
X007704Y011421D01*
X007704Y011547D01*
X007804Y011647D01*
X008496Y011647D01*
X008596Y011547D01*
X008596Y010934D01*
X008496Y010834D01*
X007804Y010834D01*
X007704Y010934D01*
X007704Y010981D01*
X007674Y010981D01*
X007674Y010816D01*
X007575Y010716D01*
X006725Y010716D01*
X006626Y010816D01*
X006626Y011587D01*
X006725Y011686D01*
X007575Y011686D01*
X007674Y011576D02*
X007733Y011576D01*
X007704Y011478D02*
X007674Y011478D01*
X007674Y010887D02*
X007752Y010887D01*
X007647Y010788D02*
X008940Y010788D01*
X008940Y010690D02*
X003906Y010690D01*
X003906Y010591D02*
X008940Y010591D01*
X008940Y010493D02*
X007632Y010493D01*
X007624Y010506D02*
X007596Y010534D01*
X007562Y010554D01*
X007524Y010564D01*
X007200Y010564D01*
X007200Y010149D01*
X007100Y010149D01*
X007100Y010564D01*
X006776Y010564D01*
X006738Y010554D01*
X006704Y010534D01*
X006676Y010506D01*
X006656Y010472D01*
X006646Y010434D01*
X006646Y010149D01*
X007100Y010149D01*
X007100Y010049D01*
X006646Y010049D01*
X006646Y009764D01*
X006656Y009726D01*
X006676Y009692D01*
X006704Y009664D01*
X006738Y009644D01*
X006776Y009634D01*
X007100Y009634D01*
X007100Y010049D01*
X007200Y010049D01*
X007200Y010149D01*
X007654Y010149D01*
X007654Y010434D01*
X007644Y010472D01*
X007624Y010506D01*
X007654Y010394D02*
X007732Y010394D01*
X007704Y010296D02*
X007654Y010296D01*
X007654Y010197D02*
X007704Y010197D01*
X007704Y010099D02*
X007200Y010099D01*
X007200Y010049D02*
X007654Y010049D01*
X007654Y009764D01*
X007644Y009726D01*
X007624Y009692D01*
X007596Y009664D01*
X007562Y009644D01*
X007524Y009634D01*
X007200Y009634D01*
X007200Y010049D01*
X007200Y010000D02*
X007100Y010000D01*
X007100Y009902D02*
X007200Y009902D01*
X007200Y009803D02*
X007100Y009803D01*
X007100Y009705D02*
X007200Y009705D01*
X007100Y010099D02*
X005111Y010099D01*
X005157Y010000D02*
X006646Y010000D01*
X006646Y009902D02*
X005197Y009902D01*
X005204Y009803D02*
X006646Y009803D01*
X006668Y009705D02*
X005204Y009705D01*
X005179Y009606D02*
X007930Y009606D01*
X007930Y009508D02*
X005138Y009508D01*
X005066Y009409D02*
X007930Y009409D01*
X007930Y009311D02*
X004968Y009311D01*
X005064Y008840D02*
X004906Y008775D01*
X004785Y008654D01*
X004720Y008496D01*
X004720Y007804D01*
X004785Y007646D01*
X004906Y007525D01*
X005064Y007460D01*
X005236Y007460D01*
X005394Y007525D01*
X005515Y007646D01*
X005580Y007804D01*
X005580Y008496D01*
X005515Y008654D01*
X005394Y008775D01*
X005236Y008840D01*
X005064Y008840D01*
X005011Y008818D02*
X004289Y008818D01*
X004449Y008720D02*
X004851Y008720D01*
X004772Y008621D02*
X004528Y008621D01*
X004569Y008523D02*
X004731Y008523D01*
X004720Y008424D02*
X004580Y008424D01*
X004580Y008326D02*
X004720Y008326D01*
X004720Y008227D02*
X004580Y008227D01*
X004580Y008129D02*
X004720Y008129D01*
X004720Y008030D02*
X004580Y008030D01*
X004580Y007932D02*
X004720Y007932D01*
X004720Y007833D02*
X004580Y007833D01*
X004551Y007735D02*
X004749Y007735D01*
X004796Y007636D02*
X004504Y007636D01*
X004406Y007538D02*
X004894Y007538D01*
X005082Y007144D02*
X003870Y007144D01*
X003870Y007242D02*
X005181Y007242D01*
X005151Y007212D02*
X005151Y007212D01*
X005279Y007341D02*
X003870Y007341D01*
X003870Y007439D02*
X007378Y007439D01*
X007406Y007538D02*
X007430Y007538D01*
X007650Y007441D02*
X007648Y007421D01*
X007642Y007403D01*
X007633Y007385D01*
X007621Y007370D01*
X007621Y007371D02*
X007400Y007150D01*
X005441Y007150D01*
X005371Y007121D02*
X004150Y005900D01*
X004150Y005150D01*
X004515Y005654D02*
X004394Y005775D01*
X004370Y005784D01*
X004370Y005809D01*
X005491Y006930D01*
X007491Y006930D01*
X007620Y007059D01*
X007712Y007151D01*
X007776Y007215D01*
X007841Y007280D01*
X007841Y007307D01*
X007851Y007331D01*
X007870Y007350D01*
X007870Y007562D01*
X007906Y007525D01*
X007930Y007516D01*
X007930Y007350D01*
X007949Y007331D01*
X007959Y007307D01*
X007959Y007280D01*
X008029Y007209D01*
X008088Y007151D01*
X008088Y007151D01*
X008430Y006809D01*
X008430Y005738D01*
X008394Y005775D01*
X008236Y005840D01*
X008064Y005840D01*
X007906Y005775D01*
X007785Y005654D01*
X007720Y005496D01*
X007720Y004804D01*
X007785Y004646D01*
X007906Y004525D01*
X008064Y004460D01*
X008236Y004460D01*
X008394Y004525D01*
X008430Y004562D01*
X008430Y003563D01*
X008428Y003565D01*
X008247Y003640D01*
X008053Y003640D01*
X007995Y003616D01*
X007870Y003741D01*
X007741Y003870D01*
X005991Y003870D01*
X005370Y004491D01*
X005370Y004516D01*
X005394Y004525D01*
X005515Y004646D01*
X005580Y004804D01*
X005580Y005496D01*
X005515Y005654D01*
X005394Y005775D01*
X005236Y005840D01*
X005064Y005840D01*
X004906Y005775D01*
X004785Y005654D01*
X004720Y005496D01*
X004720Y004804D01*
X004785Y004646D01*
X004906Y004525D01*
X004930Y004516D01*
X004930Y004309D01*
X005059Y004180D01*
X005651Y003588D01*
X005709Y003530D01*
X005780Y003459D01*
X005807Y003459D01*
X005831Y003449D01*
X005850Y003430D01*
X006772Y003430D01*
X006748Y003396D01*
X006714Y003330D01*
X006692Y003260D01*
X006680Y003189D01*
X007111Y003189D01*
X007111Y003111D01*
X007189Y003111D01*
X007189Y003189D01*
X007620Y003189D01*
X007608Y003260D01*
X007586Y003330D01*
X007552Y003396D01*
X007528Y003430D01*
X007559Y003430D01*
X007684Y003305D01*
X007660Y003247D01*
X007660Y003053D01*
X007735Y002872D01*
X007872Y002735D01*
X008053Y002660D01*
X008247Y002660D01*
X008428Y002735D01*
X008430Y002737D01*
X008430Y002563D01*
X008428Y002565D01*
X008247Y002640D01*
X008053Y002640D01*
X007872Y002565D01*
X007735Y002428D01*
X007660Y002247D01*
X007660Y002053D01*
X007735Y001872D01*
X007737Y001870D01*
X007563Y001870D01*
X007565Y001872D01*
X007640Y002053D01*
X007640Y002247D01*
X007565Y002428D01*
X007428Y002565D01*
X007247Y002640D01*
X007053Y002640D01*
X006872Y002565D01*
X006735Y002428D01*
X006660Y002247D01*
X006660Y002053D01*
X006735Y001872D01*
X006737Y001870D01*
X006491Y001870D01*
X006120Y002241D01*
X005991Y002370D01*
X005612Y002370D01*
X005684Y002544D01*
X005684Y002756D01*
X005603Y002953D01*
X005453Y003103D01*
X005256Y003184D01*
X005177Y003184D01*
X003870Y004491D01*
X003870Y004562D01*
X003906Y004525D01*
X004064Y004460D01*
X004236Y004460D01*
X004394Y004525D01*
X004515Y004646D01*
X004580Y004804D01*
X004580Y005496D01*
X004515Y005654D01*
X004502Y005666D02*
X004798Y005666D01*
X004750Y005568D02*
X004550Y005568D01*
X004580Y005469D02*
X004720Y005469D01*
X004720Y005371D02*
X004580Y005371D01*
X004580Y005272D02*
X004720Y005272D01*
X004720Y005174D02*
X004580Y005174D01*
X004580Y005075D02*
X004720Y005075D01*
X004720Y004977D02*
X004580Y004977D01*
X004580Y004878D02*
X004720Y004878D01*
X004730Y004780D02*
X004570Y004780D01*
X004529Y004681D02*
X004771Y004681D01*
X004849Y004583D02*
X004451Y004583D01*
X004293Y004484D02*
X004930Y004484D01*
X004930Y004386D02*
X003976Y004386D01*
X004006Y004484D02*
X003877Y004484D01*
X003650Y004400D02*
X003650Y007609D01*
X003621Y007679D02*
X003150Y008150D01*
X003449Y008720D02*
X003851Y008720D01*
X003772Y008621D02*
X003528Y008621D01*
X003569Y008523D02*
X003731Y008523D01*
X003720Y008424D02*
X003580Y008424D01*
X003580Y008326D02*
X003720Y008326D01*
X003720Y008227D02*
X003580Y008227D01*
X003580Y008129D02*
X003720Y008129D01*
X003720Y008030D02*
X003581Y008030D01*
X003680Y007932D02*
X003720Y007932D01*
X003712Y007899D02*
X003712Y007899D01*
X003621Y007680D02*
X003633Y007665D01*
X003642Y007647D01*
X003648Y007629D01*
X003650Y007609D01*
X003870Y007538D02*
X003894Y007538D01*
X003870Y007045D02*
X004984Y007045D01*
X004885Y006947D02*
X003870Y006947D01*
X003870Y006848D02*
X004787Y006848D01*
X004688Y006750D02*
X003870Y006750D01*
X003870Y006651D02*
X004590Y006651D01*
X004491Y006553D02*
X003870Y006553D01*
X003870Y006454D02*
X004393Y006454D01*
X004294Y006356D02*
X003870Y006356D01*
X003870Y006257D02*
X004196Y006257D01*
X004097Y006159D02*
X003870Y006159D01*
X003870Y006060D02*
X003999Y006060D01*
X003930Y005962D02*
X003870Y005962D01*
X003870Y005863D02*
X003930Y005863D01*
X003896Y005765D02*
X003870Y005765D01*
X003430Y005765D02*
X003404Y005765D01*
X003430Y005863D02*
X002440Y005863D01*
X002440Y005765D02*
X002896Y005765D01*
X002798Y005666D02*
X002502Y005666D01*
X002550Y005568D02*
X002750Y005568D01*
X002720Y005469D02*
X002580Y005469D01*
X002580Y005371D02*
X002720Y005371D01*
X002720Y005272D02*
X002580Y005272D01*
X002580Y005174D02*
X002720Y005174D01*
X002720Y005075D02*
X002580Y005075D01*
X002580Y004977D02*
X002720Y004977D01*
X002720Y004878D02*
X002580Y004878D01*
X002570Y004780D02*
X002730Y004780D01*
X002771Y004681D02*
X002529Y004681D01*
X002451Y004583D02*
X002849Y004583D01*
X003006Y004484D02*
X002440Y004484D01*
X002440Y004386D02*
X003430Y004386D01*
X003430Y004484D02*
X003293Y004484D01*
X003452Y004287D02*
X002440Y004287D01*
X002440Y004189D02*
X003550Y004189D01*
X003559Y004180D02*
X003559Y004180D01*
X003649Y004090D02*
X002439Y004090D01*
X002398Y003992D02*
X003747Y003992D01*
X003846Y003893D02*
X002303Y003893D01*
X002205Y003795D02*
X003944Y003795D01*
X004043Y003696D02*
X002106Y003696D01*
X002008Y003598D02*
X004141Y003598D01*
X004240Y003499D02*
X001909Y003499D01*
X001811Y003401D02*
X004338Y003401D01*
X004437Y003302D02*
X001674Y003302D01*
X001664Y003204D02*
X004535Y003204D01*
X004447Y003105D02*
X004634Y003105D01*
X004549Y003007D02*
X004732Y003007D01*
X004679Y002908D02*
X004621Y002908D01*
X004862Y003499D02*
X005740Y003499D01*
X005651Y003588D02*
X005651Y003588D01*
X005641Y003598D02*
X004764Y003598D01*
X004665Y003696D02*
X005543Y003696D01*
X005444Y003795D02*
X004567Y003795D01*
X004468Y003893D02*
X005346Y003893D01*
X005247Y003992D02*
X004370Y003992D01*
X004271Y004090D02*
X005149Y004090D01*
X005050Y004189D02*
X004173Y004189D01*
X004074Y004287D02*
X004952Y004287D01*
X005150Y004400D02*
X005150Y005150D01*
X005451Y004583D02*
X005849Y004583D01*
X005906Y004525D02*
X005785Y004646D01*
X005720Y004804D01*
X005720Y005496D01*
X005785Y005654D01*
X005906Y005775D01*
X006064Y005840D01*
X006236Y005840D01*
X006394Y005775D01*
X006515Y005654D01*
X006580Y005496D01*
X006580Y004804D01*
X006515Y004646D01*
X006394Y004525D01*
X006236Y004460D01*
X006064Y004460D01*
X005906Y004525D01*
X006006Y004484D02*
X005377Y004484D01*
X005476Y004386D02*
X008430Y004386D01*
X008430Y004484D02*
X008293Y004484D01*
X008430Y004287D02*
X005574Y004287D01*
X005673Y004189D02*
X008430Y004189D01*
X008430Y004090D02*
X005771Y004090D01*
X005870Y003992D02*
X008430Y003992D01*
X008430Y003893D02*
X005968Y003893D01*
X005870Y003679D02*
X005885Y003667D01*
X005903Y003658D01*
X005921Y003652D01*
X005941Y003650D01*
X007650Y003650D01*
X008150Y003150D01*
X007929Y002711D02*
X007320Y002711D01*
X007330Y002714D02*
X007396Y002748D01*
X007456Y002792D01*
X007508Y002844D01*
X007552Y002904D01*
X007586Y002970D01*
X007608Y003040D01*
X007620Y003111D01*
X007189Y003111D01*
X007189Y002680D01*
X007260Y002692D01*
X007330Y002714D01*
X007314Y002613D02*
X007986Y002613D01*
X007821Y002514D02*
X007479Y002514D01*
X007570Y002416D02*
X007730Y002416D01*
X007689Y002317D02*
X007611Y002317D01*
X007640Y002219D02*
X007660Y002219D01*
X007660Y002120D02*
X007640Y002120D01*
X007627Y002022D02*
X007673Y002022D01*
X007714Y001923D02*
X007586Y001923D01*
X007650Y001650D02*
X006441Y001650D01*
X006371Y001679D02*
X005900Y002150D01*
X004691Y002150D01*
X004621Y002179D02*
X004150Y002650D01*
X003853Y003105D02*
X003447Y003105D01*
X003549Y003007D02*
X003751Y003007D01*
X003679Y002908D02*
X003621Y002908D01*
X003650Y001461D02*
X003697Y001347D01*
X003847Y001197D01*
X004044Y001116D01*
X004256Y001116D01*
X004453Y001197D01*
X004603Y001347D01*
X004650Y001461D01*
X004697Y001347D01*
X004847Y001197D01*
X005044Y001116D01*
X005256Y001116D01*
X005453Y001197D01*
X005603Y001347D01*
X005684Y001544D01*
X005684Y001756D01*
X005612Y001930D01*
X005809Y001930D01*
X006151Y001588D01*
X006210Y001529D01*
X006280Y001459D01*
X006307Y001459D01*
X006331Y001449D01*
X006350Y001430D01*
X006737Y001430D01*
X006735Y001428D01*
X006660Y001247D01*
X006660Y001053D01*
X006707Y000940D01*
X001520Y000940D01*
X001190Y001270D01*
X001190Y002360D01*
X001692Y002360D01*
X001697Y002347D01*
X001847Y002197D01*
X001989Y002138D01*
X001953Y002127D01*
X001881Y002090D01*
X001815Y002042D01*
X001758Y001985D01*
X001710Y001919D01*
X001673Y001847D01*
X001648Y001770D01*
X001636Y001690D01*
X001636Y001689D01*
X002111Y001689D01*
X002111Y001611D01*
X002189Y001611D01*
X002189Y001136D01*
X002190Y001136D01*
X002270Y001148D01*
X002347Y001173D01*
X002419Y001210D01*
X002485Y001258D01*
X002542Y001315D01*
X002590Y001381D01*
X002627Y001453D01*
X002638Y001489D01*
X002697Y001347D01*
X002847Y001197D01*
X003044Y001116D01*
X003256Y001116D01*
X003453Y001197D01*
X003603Y001347D01*
X003650Y001461D01*
X003637Y001431D02*
X003663Y001431D01*
X003713Y001332D02*
X003587Y001332D01*
X003489Y001234D02*
X003811Y001234D01*
X003997Y001135D02*
X003303Y001135D01*
X002997Y001135D02*
X001325Y001135D01*
X001227Y001234D02*
X001848Y001234D01*
X001881Y001210D02*
X001953Y001173D01*
X002030Y001148D01*
X002110Y001136D01*
X002111Y001136D01*
X002111Y001611D01*
X001636Y001611D01*
X001636Y001610D01*
X001648Y001530D01*
X001673Y001453D01*
X001710Y001381D01*
X001758Y001315D01*
X001815Y001258D01*
X001881Y001210D01*
X001745Y001332D02*
X001190Y001332D01*
X001190Y001431D02*
X001685Y001431D01*
X001649Y001529D02*
X001190Y001529D01*
X001190Y001628D02*
X002111Y001628D01*
X002111Y001529D02*
X002189Y001529D01*
X002189Y001431D02*
X002111Y001431D01*
X002111Y001332D02*
X002189Y001332D01*
X002189Y001234D02*
X002111Y001234D01*
X002452Y001234D02*
X002811Y001234D01*
X002713Y001332D02*
X002555Y001332D01*
X002615Y001431D02*
X002663Y001431D01*
X001940Y002120D02*
X001190Y002120D01*
X001190Y002022D02*
X001794Y002022D01*
X001713Y001923D02*
X001190Y001923D01*
X001190Y001825D02*
X001666Y001825D01*
X001641Y001726D02*
X001190Y001726D01*
X001190Y002219D02*
X001826Y002219D01*
X001728Y002317D02*
X001190Y002317D01*
X001204Y003007D02*
X001751Y003007D01*
X001853Y003105D02*
X001266Y003105D01*
X001680Y004090D02*
X000360Y004090D01*
X000360Y003992D02*
X000633Y003992D01*
X000626Y003893D02*
X000360Y003893D01*
X000360Y003795D02*
X000626Y003795D01*
X000626Y003696D02*
X000360Y003696D01*
X000360Y003598D02*
X000626Y003598D01*
X000626Y003499D02*
X000360Y003499D01*
X000360Y003401D02*
X000626Y003401D01*
X000626Y003302D02*
X000360Y003302D01*
X000360Y003204D02*
X000610Y003204D01*
X000610Y003105D02*
X000360Y003105D01*
X000360Y003007D02*
X000610Y003007D01*
X000610Y002908D02*
X000360Y002908D01*
X000360Y002810D02*
X000610Y002810D01*
X000610Y002711D02*
X000360Y002711D01*
X000360Y002613D02*
X000610Y002613D01*
X000610Y002514D02*
X000360Y002514D01*
X000360Y002416D02*
X000610Y002416D01*
X000610Y002317D02*
X000360Y002317D01*
X000360Y002219D02*
X000610Y002219D01*
X000610Y002120D02*
X000360Y002120D01*
X000360Y002022D02*
X000610Y002022D01*
X000610Y001923D02*
X000360Y001923D01*
X000360Y001825D02*
X000610Y001825D01*
X000610Y001726D02*
X000360Y001726D01*
X000360Y001628D02*
X000610Y001628D01*
X000610Y001529D02*
X000360Y001529D01*
X000360Y001431D02*
X000610Y001431D01*
X000610Y001332D02*
X000360Y001332D01*
X000360Y001234D02*
X000610Y001234D01*
X000610Y001135D02*
X000360Y001135D01*
X000360Y001037D02*
X000633Y001037D01*
X000702Y000938D02*
X000360Y000938D01*
X000360Y000840D02*
X000800Y000840D01*
X000899Y000741D02*
X000360Y000741D01*
X000360Y000643D02*
X000997Y000643D01*
X001096Y000544D02*
X000360Y000544D01*
X000360Y000446D02*
X001194Y000446D01*
X001424Y001037D02*
X006667Y001037D01*
X006660Y001135D02*
X005303Y001135D01*
X005489Y001234D02*
X006660Y001234D01*
X006695Y001332D02*
X005587Y001332D01*
X005637Y001431D02*
X006350Y001431D01*
X006210Y001529D02*
X005678Y001529D01*
X005684Y001628D02*
X006111Y001628D01*
X006151Y001588D02*
X006151Y001588D01*
X006013Y001726D02*
X005684Y001726D01*
X005656Y001825D02*
X005914Y001825D01*
X005816Y001923D02*
X005615Y001923D01*
X005631Y002416D02*
X006730Y002416D01*
X006689Y002317D02*
X006044Y002317D01*
X006143Y002219D02*
X006660Y002219D01*
X006660Y002120D02*
X006241Y002120D01*
X006340Y002022D02*
X006673Y002022D01*
X006714Y001923D02*
X006438Y001923D01*
X006370Y001679D02*
X006385Y001667D01*
X006403Y001658D01*
X006421Y001652D01*
X006441Y001650D01*
X006821Y002514D02*
X005672Y002514D01*
X005684Y002613D02*
X006986Y002613D01*
X007040Y002692D02*
X006970Y002714D01*
X006904Y002748D01*
X006844Y002792D01*
X006792Y002844D01*
X006748Y002904D01*
X006714Y002970D01*
X006692Y003040D01*
X006680Y003111D01*
X007111Y003111D01*
X007111Y002680D01*
X007040Y002692D01*
X006980Y002711D02*
X005684Y002711D01*
X005662Y002810D02*
X006826Y002810D01*
X006746Y002908D02*
X005621Y002908D01*
X005549Y003007D02*
X006702Y003007D01*
X006681Y003105D02*
X005447Y003105D01*
X005158Y003204D02*
X006683Y003204D01*
X006705Y003302D02*
X005059Y003302D01*
X004961Y003401D02*
X006751Y003401D01*
X007111Y003105D02*
X007189Y003105D01*
X007189Y003007D02*
X007111Y003007D01*
X007111Y002908D02*
X007189Y002908D01*
X007189Y002810D02*
X007111Y002810D01*
X007111Y002711D02*
X007189Y002711D01*
X007474Y002810D02*
X007798Y002810D01*
X007720Y002908D02*
X007554Y002908D01*
X007598Y003007D02*
X007679Y003007D01*
X007660Y003105D02*
X007619Y003105D01*
X007617Y003204D02*
X007660Y003204D01*
X007683Y003302D02*
X007595Y003302D01*
X007588Y003401D02*
X007549Y003401D01*
X007817Y003795D02*
X008430Y003795D01*
X008430Y003696D02*
X007915Y003696D01*
X008006Y004484D02*
X007293Y004484D01*
X007236Y004460D02*
X007394Y004525D01*
X007515Y004646D01*
X007580Y004804D01*
X007580Y005496D01*
X007515Y005654D01*
X007394Y005775D01*
X007236Y005840D01*
X007064Y005840D01*
X006906Y005775D01*
X006785Y005654D01*
X006720Y005496D01*
X006720Y004804D01*
X006785Y004646D01*
X006906Y004525D01*
X007064Y004460D01*
X007236Y004460D01*
X007451Y004583D02*
X007849Y004583D01*
X007771Y004681D02*
X007529Y004681D01*
X007570Y004780D02*
X007730Y004780D01*
X007720Y004878D02*
X007580Y004878D01*
X007580Y004977D02*
X007720Y004977D01*
X007720Y005075D02*
X007580Y005075D01*
X007580Y005174D02*
X007720Y005174D01*
X007720Y005272D02*
X007580Y005272D01*
X007580Y005371D02*
X007720Y005371D01*
X007720Y005469D02*
X007580Y005469D01*
X007550Y005568D02*
X007750Y005568D01*
X007798Y005666D02*
X007502Y005666D01*
X007404Y005765D02*
X007896Y005765D01*
X008404Y005765D02*
X008430Y005765D01*
X008430Y005863D02*
X004424Y005863D01*
X004404Y005765D02*
X004896Y005765D01*
X004720Y006159D02*
X008430Y006159D01*
X008430Y006257D02*
X004818Y006257D01*
X004917Y006356D02*
X008430Y006356D01*
X008430Y006454D02*
X005015Y006454D01*
X005114Y006553D02*
X008430Y006553D01*
X008430Y006651D02*
X005212Y006651D01*
X005311Y006750D02*
X008430Y006750D01*
X008391Y006848D02*
X005409Y006848D01*
X005370Y007121D02*
X005385Y007133D01*
X005403Y007142D01*
X005421Y007148D01*
X005441Y007150D01*
X005406Y007538D02*
X005894Y007538D01*
X005906Y007525D02*
X006064Y007460D01*
X006236Y007460D01*
X006394Y007525D01*
X006515Y007646D01*
X006580Y007804D01*
X006580Y008496D01*
X006515Y008654D01*
X006394Y008775D01*
X006236Y008840D01*
X006064Y008840D01*
X005906Y008775D01*
X005785Y008654D01*
X005720Y008496D01*
X005720Y007804D01*
X005785Y007646D01*
X005906Y007525D01*
X005796Y007636D02*
X005504Y007636D01*
X005551Y007735D02*
X005749Y007735D01*
X005720Y007833D02*
X005580Y007833D01*
X005580Y007932D02*
X005720Y007932D01*
X005720Y008030D02*
X005580Y008030D01*
X005580Y008129D02*
X005720Y008129D01*
X005720Y008227D02*
X005580Y008227D01*
X005580Y008326D02*
X005720Y008326D01*
X005720Y008424D02*
X005580Y008424D01*
X005569Y008523D02*
X005731Y008523D01*
X005772Y008621D02*
X005528Y008621D01*
X005449Y008720D02*
X005851Y008720D01*
X006011Y008818D02*
X005289Y008818D01*
X005012Y010197D02*
X006646Y010197D01*
X006646Y010296D02*
X004843Y010296D01*
X004442Y010394D02*
X006646Y010394D01*
X006668Y010493D02*
X003906Y010493D01*
X003892Y010788D02*
X006653Y010788D01*
X006626Y010887D02*
X003990Y010887D01*
X004089Y010985D02*
X006626Y010985D01*
X006626Y011084D02*
X004187Y011084D01*
X004286Y011182D02*
X006626Y011182D01*
X006626Y011281D02*
X004384Y011281D01*
X004483Y011379D02*
X006626Y011379D01*
X006626Y011478D02*
X005846Y011478D01*
X005984Y011576D02*
X006626Y011576D01*
X006714Y011675D02*
X006060Y011675D01*
X005554Y012364D02*
X005186Y012364D01*
X005186Y012266D02*
X005358Y012266D01*
X005259Y012167D02*
X005129Y012167D01*
X005216Y012069D02*
X004951Y012069D01*
X004951Y011970D02*
X005185Y011970D01*
X005185Y011872D02*
X004930Y011872D01*
X004877Y011773D02*
X005199Y011773D01*
X005240Y011675D02*
X004778Y011675D01*
X004814Y011710D02*
X004814Y011710D01*
X004680Y011576D02*
X005316Y011576D01*
X005454Y011478D02*
X004581Y011478D01*
X004366Y011970D02*
X003819Y011970D01*
X003819Y011872D02*
X004268Y011872D01*
X004451Y012069D02*
X003819Y012069D01*
X003819Y012125D02*
X003984Y012125D01*
X004084Y012224D01*
X004084Y013074D01*
X004048Y013110D01*
X004090Y013110D01*
X004190Y013210D01*
X004190Y013961D01*
X004090Y014060D01*
X003438Y014060D01*
X003338Y013961D01*
X003338Y013210D01*
X003374Y013173D01*
X003213Y013173D01*
X003114Y013074D01*
X003114Y012224D01*
X003213Y012125D01*
X003379Y012125D01*
X003379Y011940D01*
X003169Y011730D01*
X003084Y011730D01*
X002963Y011680D01*
X002870Y011587D01*
X002820Y011466D01*
X002820Y011334D01*
X002870Y011213D01*
X002963Y011120D01*
X003084Y011070D01*
X003216Y011070D01*
X003337Y011120D01*
X003430Y011213D01*
X003480Y011334D01*
X003480Y011419D01*
X003661Y011600D01*
X003717Y011656D01*
X003790Y011728D01*
X003790Y011756D01*
X003799Y011780D01*
X003819Y011799D01*
X003819Y012125D01*
X004027Y012167D02*
X004273Y012167D01*
X004216Y012266D02*
X004084Y012266D01*
X004084Y012364D02*
X004216Y012364D01*
X004216Y012463D02*
X004084Y012463D01*
X004084Y012561D02*
X004216Y012561D01*
X004216Y012660D02*
X004084Y012660D01*
X004084Y012758D02*
X004216Y012758D01*
X004216Y012857D02*
X004084Y012857D01*
X004084Y012955D02*
X004216Y012955D01*
X004216Y013054D02*
X004084Y013054D01*
X004133Y013152D02*
X004295Y013152D01*
X004190Y013251D02*
X005110Y013251D01*
X005110Y013349D02*
X004190Y013349D01*
X004190Y013448D02*
X005110Y013448D01*
X005110Y013546D02*
X004190Y013546D01*
X004190Y013645D02*
X005110Y013645D01*
X005110Y013743D02*
X004190Y013743D01*
X004190Y013842D02*
X005110Y013842D01*
X005110Y013940D02*
X004190Y013940D01*
X004112Y014039D02*
X005188Y014039D01*
X005167Y013152D02*
X005108Y013152D01*
X005186Y013054D02*
X005700Y013054D01*
X005601Y012955D02*
X005186Y012955D01*
X005962Y013349D02*
X005995Y013349D01*
X005962Y013448D02*
X006094Y013448D01*
X006192Y013546D02*
X005962Y013546D01*
X005962Y013645D02*
X006291Y013645D01*
X006389Y013743D02*
X005962Y013743D01*
X005962Y013842D02*
X006488Y013842D01*
X006586Y013940D02*
X005962Y013940D01*
X005884Y014039D02*
X006685Y014039D01*
X006783Y014137D02*
X000360Y014137D01*
X000360Y014039D02*
X003416Y014039D01*
X003338Y013940D02*
X000360Y013940D01*
X000360Y013842D02*
X003338Y013842D01*
X003338Y013743D02*
X000360Y013743D01*
X000360Y013645D02*
X003338Y013645D01*
X003338Y013546D02*
X000360Y013546D01*
X000360Y013448D02*
X003338Y013448D01*
X003338Y013349D02*
X000360Y013349D01*
X000360Y013251D02*
X003338Y013251D01*
X003192Y013152D02*
X000360Y013152D01*
X000360Y013054D02*
X003114Y013054D01*
X003114Y012955D02*
X000360Y012955D01*
X000360Y012857D02*
X003114Y012857D01*
X003114Y012758D02*
X000360Y012758D01*
X000360Y012660D02*
X003114Y012660D01*
X003114Y012561D02*
X000360Y012561D01*
X000360Y012463D02*
X003114Y012463D01*
X003114Y012364D02*
X000360Y012364D01*
X000360Y012266D02*
X003114Y012266D01*
X003171Y012167D02*
X000360Y012167D01*
X000360Y012069D02*
X003379Y012069D01*
X003379Y011970D02*
X000360Y011970D01*
X000360Y011872D02*
X003310Y011872D01*
X003212Y011773D02*
X000360Y011773D01*
X000360Y011675D02*
X002958Y011675D01*
X002866Y011576D02*
X000360Y011576D01*
X000360Y011478D02*
X002825Y011478D01*
X002820Y011379D02*
X000360Y011379D01*
X000360Y011281D02*
X002842Y011281D01*
X002901Y011182D02*
X000360Y011182D01*
X000360Y011084D02*
X003052Y011084D01*
X002972Y010788D02*
X002275Y010788D01*
X002260Y010792D02*
X002298Y010782D01*
X002332Y010762D01*
X002360Y010734D01*
X002380Y010700D01*
X002390Y010662D01*
X002390Y010200D01*
X001955Y010200D01*
X001855Y010200D01*
X001855Y010100D01*
X001420Y010100D01*
X001420Y009638D01*
X001431Y009600D01*
X001450Y009566D01*
X001478Y009538D01*
X001513Y009518D01*
X001551Y009508D01*
X001855Y009508D01*
X001855Y010100D01*
X001955Y010100D01*
X001955Y009508D01*
X002260Y009508D01*
X002298Y009518D01*
X002332Y009538D01*
X002360Y009566D01*
X002380Y009600D01*
X002390Y009638D01*
X002390Y010100D01*
X001955Y010100D01*
X001955Y010200D01*
X001955Y010792D01*
X002260Y010792D01*
X002382Y010690D02*
X002897Y010690D01*
X002897Y010591D02*
X002390Y010591D01*
X002390Y010493D02*
X002897Y010493D01*
X002897Y010394D02*
X002390Y010394D01*
X002390Y010296D02*
X002897Y010296D01*
X002897Y010197D02*
X001955Y010197D01*
X001955Y010099D02*
X001855Y010099D01*
X001855Y010197D02*
X000360Y010197D01*
X000360Y010099D02*
X001420Y010099D01*
X001420Y010000D02*
X000360Y010000D01*
X000360Y009902D02*
X001420Y009902D01*
X001420Y009803D02*
X000360Y009803D01*
X000360Y009705D02*
X001420Y009705D01*
X001429Y009606D02*
X000360Y009606D01*
X000360Y009508D02*
X002847Y009508D01*
X002897Y009606D02*
X002381Y009606D01*
X002390Y009705D02*
X002897Y009705D01*
X002897Y009803D02*
X002390Y009803D01*
X002390Y009902D02*
X002897Y009902D01*
X002897Y010000D02*
X002390Y010000D01*
X002390Y010099D02*
X002897Y010099D01*
X003283Y010887D02*
X000360Y010887D01*
X000360Y010985D02*
X003381Y010985D01*
X003289Y010892D02*
X003289Y010892D01*
X003248Y011084D02*
X003480Y011084D01*
X003399Y011182D02*
X003578Y011182D01*
X003677Y011281D02*
X003458Y011281D01*
X003480Y011379D02*
X003775Y011379D01*
X003874Y011478D02*
X003539Y011478D01*
X003637Y011576D02*
X003972Y011576D01*
X004071Y011675D02*
X003736Y011675D01*
X003661Y011600D02*
X003661Y011600D01*
X003570Y011820D02*
X003150Y011400D01*
X003570Y011819D02*
X003582Y011834D01*
X003591Y011852D01*
X003597Y011870D01*
X003599Y011890D01*
X003599Y012649D01*
X003599Y013420D01*
X003764Y013585D01*
X003797Y011773D02*
X004169Y011773D01*
X004096Y009803D02*
X003906Y009803D01*
X003906Y009705D02*
X004096Y009705D01*
X004121Y009606D02*
X003906Y009606D01*
X003826Y009508D02*
X004162Y009508D01*
X004234Y009409D02*
X003569Y009409D01*
X003618Y009458D02*
X003618Y009458D01*
X003632Y009472D02*
X003632Y009472D01*
X003471Y009311D02*
X004332Y009311D01*
X004011Y008818D02*
X003289Y008818D01*
X003175Y009015D02*
X007704Y009015D01*
X007802Y009114D02*
X003274Y009114D01*
X003372Y009212D02*
X007901Y009212D01*
X008121Y009120D02*
X008133Y009135D01*
X008142Y009153D01*
X008148Y009171D01*
X008150Y009191D01*
X008150Y010059D01*
X008370Y009606D02*
X008940Y009606D01*
X008940Y009508D02*
X008370Y009508D01*
X008370Y009409D02*
X008940Y009409D01*
X008940Y009311D02*
X008370Y009311D01*
X008370Y009212D02*
X008940Y009212D01*
X008940Y009114D02*
X008370Y009114D01*
X008326Y009015D02*
X008940Y009015D01*
X008940Y008917D02*
X008228Y008917D01*
X008289Y008818D02*
X008940Y008818D01*
X008940Y008720D02*
X008449Y008720D01*
X008528Y008621D02*
X008940Y008621D01*
X008940Y008523D02*
X008569Y008523D01*
X008580Y008424D02*
X008940Y008424D01*
X008940Y008326D02*
X008580Y008326D01*
X008580Y008227D02*
X008940Y008227D01*
X008940Y008129D02*
X008580Y008129D01*
X008580Y008030D02*
X008940Y008030D01*
X008940Y007932D02*
X008580Y007932D01*
X008580Y007833D02*
X008940Y007833D01*
X008940Y007735D02*
X008551Y007735D01*
X008504Y007636D02*
X008940Y007636D01*
X008940Y007538D02*
X008406Y007538D01*
X008422Y007439D02*
X008940Y007439D01*
X008940Y007341D02*
X008521Y007341D01*
X008619Y007242D02*
X008940Y007242D01*
X008940Y007144D02*
X008718Y007144D01*
X008650Y006900D02*
X008179Y007371D01*
X008150Y007441D02*
X008150Y008150D01*
X007894Y007538D02*
X007870Y007538D01*
X007870Y007439D02*
X007930Y007439D01*
X007940Y007341D02*
X007860Y007341D01*
X007803Y007242D02*
X007997Y007242D01*
X008095Y007144D02*
X007705Y007144D01*
X007712Y007151D02*
X007712Y007151D01*
X007776Y007215D02*
X007776Y007215D01*
X007606Y007045D02*
X008194Y007045D01*
X008292Y006947D02*
X007508Y006947D01*
X007650Y007441D02*
X007650Y008650D01*
X008121Y009121D01*
X007753Y009705D02*
X007632Y009705D01*
X007654Y009803D02*
X007704Y009803D01*
X007704Y009902D02*
X007654Y009902D01*
X007654Y010000D02*
X007704Y010000D01*
X007605Y008917D02*
X003077Y008917D01*
X003011Y008818D02*
X002195Y008818D01*
X002182Y008820D02*
X002246Y008810D01*
X002307Y008790D01*
X002365Y008761D01*
X002417Y008723D01*
X002463Y008677D01*
X002501Y008625D01*
X002530Y008567D01*
X002550Y008506D01*
X002560Y008442D01*
X002560Y008180D01*
X002180Y008180D01*
X002180Y008120D01*
X002560Y008120D01*
X002560Y007858D01*
X002550Y007794D01*
X002530Y007733D01*
X002501Y007675D01*
X002463Y007623D01*
X002417Y007577D01*
X002365Y007539D01*
X002307Y007510D01*
X002246Y007490D01*
X002182Y007480D01*
X002180Y007480D01*
X002180Y008120D01*
X002120Y008120D01*
X002120Y007480D01*
X002118Y007480D01*
X002054Y007490D01*
X001993Y007510D01*
X001935Y007539D01*
X001883Y007577D01*
X001837Y007623D01*
X001799Y007675D01*
X001770Y007733D01*
X001750Y007794D01*
X001740Y007858D01*
X001740Y008120D01*
X002120Y008120D01*
X002120Y008180D01*
X002120Y008820D01*
X002118Y008820D01*
X002054Y008810D01*
X001993Y008790D01*
X001935Y008761D01*
X001883Y008723D01*
X001837Y008677D01*
X001799Y008625D01*
X001770Y008567D01*
X001750Y008506D01*
X001740Y008442D01*
X001740Y008180D01*
X002120Y008180D01*
X002180Y008180D01*
X002180Y008820D01*
X002182Y008820D01*
X002180Y008818D02*
X002120Y008818D01*
X002105Y008818D02*
X001728Y008818D01*
X001630Y008720D02*
X001880Y008720D01*
X001797Y008621D02*
X001531Y008621D01*
X001440Y008523D02*
X001755Y008523D01*
X001740Y008424D02*
X001440Y008424D01*
X001440Y008326D02*
X001740Y008326D01*
X001740Y008227D02*
X001440Y008227D01*
X001440Y008129D02*
X002120Y008129D01*
X002180Y008129D02*
X002720Y008129D01*
X002720Y008227D02*
X002560Y008227D01*
X002560Y008326D02*
X002720Y008326D01*
X002720Y008424D02*
X002560Y008424D01*
X002545Y008523D02*
X002731Y008523D01*
X002772Y008621D02*
X002503Y008621D01*
X002420Y008720D02*
X002851Y008720D01*
X002720Y008030D02*
X002560Y008030D01*
X002560Y007932D02*
X002720Y007932D01*
X002720Y007833D02*
X002556Y007833D01*
X002531Y007735D02*
X002749Y007735D01*
X002796Y007636D02*
X002472Y007636D01*
X002361Y007538D02*
X002894Y007538D01*
X003406Y007538D02*
X003430Y007538D01*
X003430Y007439D02*
X001761Y007439D01*
X001778Y007432D02*
X001778Y007432D01*
X001792Y007418D02*
X001792Y007418D01*
X001870Y007341D02*
X003430Y007341D01*
X003430Y007242D02*
X001968Y007242D01*
X002067Y007144D02*
X003430Y007144D01*
X003430Y007045D02*
X002165Y007045D01*
X002264Y006947D02*
X003430Y006947D01*
X003430Y006848D02*
X002362Y006848D01*
X002423Y006750D02*
X003430Y006750D01*
X003430Y006651D02*
X002440Y006651D01*
X002440Y006553D02*
X003430Y006553D01*
X003430Y006454D02*
X002440Y006454D01*
X002440Y006356D02*
X003430Y006356D01*
X003430Y006257D02*
X002440Y006257D01*
X002440Y006159D02*
X003430Y006159D01*
X003430Y006060D02*
X002440Y006060D01*
X002440Y005962D02*
X003430Y005962D01*
X003650Y004400D02*
X005121Y002929D01*
X005150Y002859D02*
X005150Y002650D01*
X005150Y002859D02*
X005148Y002879D01*
X005142Y002897D01*
X005133Y002915D01*
X005121Y002930D01*
X004691Y002150D02*
X004671Y002152D01*
X004653Y002158D01*
X004635Y002167D01*
X004620Y002179D01*
X004637Y001431D02*
X004663Y001431D01*
X004713Y001332D02*
X004587Y001332D01*
X004489Y001234D02*
X004811Y001234D01*
X004997Y001135D02*
X004303Y001135D01*
X002853Y003105D02*
X002447Y003105D01*
X002549Y003007D02*
X002751Y003007D01*
X002679Y002908D02*
X002621Y002908D01*
X001860Y004287D02*
X001617Y004287D01*
X001624Y004294D02*
X001644Y004328D01*
X001654Y004366D01*
X001654Y004651D01*
X001200Y004651D01*
X001200Y004236D01*
X001524Y004236D01*
X001562Y004246D01*
X001596Y004266D01*
X001624Y004294D01*
X001654Y004386D02*
X001860Y004386D01*
X001860Y004484D02*
X001654Y004484D01*
X001654Y004583D02*
X001849Y004583D01*
X001771Y004681D02*
X001200Y004681D01*
X001200Y004651D02*
X001200Y004751D01*
X001654Y004751D01*
X001654Y005036D01*
X001644Y005074D01*
X001624Y005108D01*
X001596Y005136D01*
X001562Y005156D01*
X001524Y005166D01*
X001200Y005166D01*
X001200Y004751D01*
X001100Y004751D01*
X001100Y004651D01*
X001200Y004651D01*
X001200Y004583D02*
X001100Y004583D01*
X001100Y004651D02*
X001100Y004236D01*
X000776Y004236D01*
X000738Y004246D01*
X000704Y004266D01*
X000676Y004294D01*
X000656Y004328D01*
X000646Y004366D01*
X000646Y004651D01*
X001100Y004651D01*
X001100Y004681D02*
X000360Y004681D01*
X000360Y004583D02*
X000646Y004583D01*
X000646Y004484D02*
X000360Y004484D01*
X000360Y004386D02*
X000646Y004386D01*
X000683Y004287D02*
X000360Y004287D01*
X000360Y004189D02*
X001778Y004189D01*
X001730Y004780D02*
X001654Y004780D01*
X001654Y004878D02*
X001720Y004878D01*
X001720Y004977D02*
X001654Y004977D01*
X001644Y005075D02*
X001720Y005075D01*
X001720Y005174D02*
X000360Y005174D01*
X000360Y005272D02*
X001720Y005272D01*
X001720Y005371D02*
X000360Y005371D01*
X000360Y005469D02*
X001720Y005469D01*
X001750Y005568D02*
X000360Y005568D01*
X000360Y005666D02*
X000701Y005666D01*
X000704Y005664D02*
X000738Y005644D01*
X000776Y005634D01*
X001100Y005634D01*
X001100Y006049D01*
X000646Y006049D01*
X000646Y005764D01*
X000656Y005726D01*
X000676Y005692D01*
X000704Y005664D01*
X000646Y005765D02*
X000360Y005765D01*
X000360Y005863D02*
X000646Y005863D01*
X000646Y005962D02*
X000360Y005962D01*
X000360Y006060D02*
X001100Y006060D01*
X001100Y006049D02*
X001100Y006149D01*
X001100Y006564D01*
X000776Y006564D01*
X000738Y006554D01*
X000704Y006534D01*
X000676Y006506D01*
X000656Y006472D01*
X000646Y006434D01*
X000646Y006149D01*
X001100Y006149D01*
X001200Y006149D01*
X001200Y006564D01*
X001524Y006564D01*
X001562Y006554D01*
X001596Y006534D01*
X001624Y006506D01*
X001644Y006472D01*
X001654Y006434D01*
X001654Y006149D01*
X001200Y006149D01*
X001200Y006049D01*
X001654Y006049D01*
X001654Y005764D01*
X001644Y005726D01*
X001624Y005692D01*
X001596Y005664D01*
X001562Y005644D01*
X001524Y005634D01*
X001200Y005634D01*
X001200Y006049D01*
X001100Y006049D01*
X001100Y005962D02*
X001200Y005962D01*
X001200Y006060D02*
X001860Y006060D01*
X001860Y005962D02*
X001654Y005962D01*
X001654Y005863D02*
X001860Y005863D01*
X001860Y005765D02*
X001654Y005765D01*
X001599Y005666D02*
X001798Y005666D01*
X001860Y006159D02*
X001654Y006159D01*
X001654Y006257D02*
X001860Y006257D01*
X001860Y006356D02*
X001654Y006356D01*
X001649Y006454D02*
X001860Y006454D01*
X001837Y006553D02*
X001564Y006553D01*
X001608Y006750D02*
X001640Y006750D01*
X001739Y006651D02*
X000360Y006651D01*
X000360Y006553D02*
X000736Y006553D01*
X000651Y006454D02*
X000360Y006454D01*
X000360Y006356D02*
X000646Y006356D01*
X000646Y006257D02*
X000360Y006257D01*
X000360Y006159D02*
X000646Y006159D01*
X000692Y006750D02*
X000360Y006750D01*
X000360Y006848D02*
X000626Y006848D01*
X000626Y006947D02*
X000360Y006947D01*
X000360Y007045D02*
X000626Y007045D01*
X000626Y007144D02*
X000360Y007144D01*
X000360Y007242D02*
X000626Y007242D01*
X000626Y007341D02*
X000360Y007341D01*
X000360Y007439D02*
X000626Y007439D01*
X000626Y007538D02*
X000360Y007538D01*
X000360Y007636D02*
X000675Y007636D01*
X000860Y007735D02*
X000360Y007735D01*
X000360Y007833D02*
X000860Y007833D01*
X000860Y007932D02*
X000360Y007932D01*
X000360Y008030D02*
X000860Y008030D01*
X000860Y008129D02*
X000360Y008129D01*
X000360Y008227D02*
X000860Y008227D01*
X000860Y008326D02*
X000360Y008326D01*
X000360Y008424D02*
X000860Y008424D01*
X000860Y008523D02*
X000360Y008523D01*
X000360Y008621D02*
X000860Y008621D01*
X000865Y008720D02*
X000360Y008720D01*
X000360Y008818D02*
X000908Y008818D01*
X001006Y008917D02*
X000360Y008917D01*
X000360Y009015D02*
X001105Y009015D01*
X001203Y009114D02*
X000360Y009114D01*
X000360Y009212D02*
X001302Y009212D01*
X001400Y009311D02*
X000360Y009311D01*
X000360Y009409D02*
X001539Y009409D01*
X001456Y009367D02*
X001456Y009367D01*
X001855Y009606D02*
X001955Y009606D01*
X001955Y009705D02*
X001855Y009705D01*
X001855Y009803D02*
X001955Y009803D01*
X001955Y009902D02*
X001855Y009902D01*
X001855Y010000D02*
X001955Y010000D01*
X001855Y010200D02*
X001420Y010200D01*
X001420Y010662D01*
X001431Y010700D01*
X001450Y010734D01*
X001478Y010762D01*
X001513Y010782D01*
X001551Y010792D01*
X001855Y010792D01*
X001855Y010200D01*
X001855Y010296D02*
X001955Y010296D01*
X001955Y010394D02*
X001855Y010394D01*
X001855Y010493D02*
X001955Y010493D01*
X001955Y010591D02*
X001855Y010591D01*
X001855Y010690D02*
X001955Y010690D01*
X001955Y010788D02*
X001855Y010788D01*
X001535Y010788D02*
X000360Y010788D01*
X000360Y010690D02*
X001428Y010690D01*
X001420Y010591D02*
X000360Y010591D01*
X000360Y010493D02*
X001420Y010493D01*
X001420Y010394D02*
X000360Y010394D01*
X000360Y010296D02*
X001420Y010296D01*
X002120Y008720D02*
X002180Y008720D01*
X002180Y008621D02*
X002120Y008621D01*
X002120Y008523D02*
X002180Y008523D01*
X002180Y008424D02*
X002120Y008424D01*
X002120Y008326D02*
X002180Y008326D01*
X002180Y008227D02*
X002120Y008227D01*
X002120Y008030D02*
X002180Y008030D01*
X002180Y007932D02*
X002120Y007932D01*
X002120Y007833D02*
X002180Y007833D01*
X002180Y007735D02*
X002120Y007735D01*
X002120Y007636D02*
X002180Y007636D01*
X002180Y007538D02*
X002120Y007538D01*
X001939Y007538D02*
X001674Y007538D01*
X001625Y007636D02*
X001828Y007636D01*
X001769Y007735D02*
X001440Y007735D01*
X001440Y007833D02*
X001744Y007833D01*
X001740Y007932D02*
X001440Y007932D01*
X001440Y008030D02*
X001740Y008030D01*
X001200Y006553D02*
X001100Y006553D01*
X001100Y006454D02*
X001200Y006454D01*
X001200Y006356D02*
X001100Y006356D01*
X001100Y006257D02*
X001200Y006257D01*
X001200Y006159D02*
X001100Y006159D01*
X001100Y005863D02*
X001200Y005863D01*
X001200Y005765D02*
X001100Y005765D01*
X001100Y005666D02*
X001200Y005666D01*
X001100Y005166D02*
X000776Y005166D01*
X000738Y005156D01*
X000704Y005136D01*
X000676Y005108D01*
X000656Y005074D01*
X000646Y005036D01*
X000646Y004751D01*
X001100Y004751D01*
X001100Y005166D01*
X001100Y005075D02*
X001200Y005075D01*
X001200Y004977D02*
X001100Y004977D01*
X001100Y004878D02*
X001200Y004878D01*
X001200Y004780D02*
X001100Y004780D01*
X001100Y004484D02*
X001200Y004484D01*
X001200Y004386D02*
X001100Y004386D01*
X001100Y004287D02*
X001200Y004287D01*
X000646Y004780D02*
X000360Y004780D01*
X000360Y004878D02*
X000646Y004878D01*
X000646Y004977D02*
X000360Y004977D01*
X000360Y005075D02*
X000656Y005075D01*
X001778Y003368D02*
X001778Y003368D01*
X000360Y000360D02*
X000360Y019440D01*
X008940Y019440D01*
X008940Y000360D01*
X000360Y000360D01*
X004523Y005962D02*
X008430Y005962D01*
X008430Y006060D02*
X004621Y006060D01*
X005150Y004400D02*
X005871Y003679D01*
X006293Y004484D02*
X007006Y004484D01*
X006849Y004583D02*
X006451Y004583D01*
X006529Y004681D02*
X006771Y004681D01*
X006730Y004780D02*
X006570Y004780D01*
X006580Y004878D02*
X006720Y004878D01*
X006720Y004977D02*
X006580Y004977D01*
X006580Y005075D02*
X006720Y005075D01*
X006720Y005174D02*
X006580Y005174D01*
X006580Y005272D02*
X006720Y005272D01*
X006720Y005371D02*
X006580Y005371D01*
X006580Y005469D02*
X006720Y005469D01*
X006750Y005568D02*
X006550Y005568D01*
X006502Y005666D02*
X006798Y005666D01*
X006896Y005765D02*
X006404Y005765D01*
X005896Y005765D02*
X005404Y005765D01*
X005502Y005666D02*
X005798Y005666D01*
X005750Y005568D02*
X005550Y005568D01*
X005580Y005469D02*
X005720Y005469D01*
X005720Y005371D02*
X005580Y005371D01*
X005580Y005272D02*
X005720Y005272D01*
X005720Y005174D02*
X005580Y005174D01*
X005580Y005075D02*
X005720Y005075D01*
X005720Y004977D02*
X005580Y004977D01*
X005580Y004878D02*
X005720Y004878D01*
X005730Y004780D02*
X005570Y004780D01*
X005529Y004681D02*
X005771Y004681D01*
X006406Y007538D02*
X006894Y007538D01*
X006796Y007636D02*
X006504Y007636D01*
X006551Y007735D02*
X006749Y007735D01*
X006720Y007833D02*
X006580Y007833D01*
X006580Y007932D02*
X006720Y007932D01*
X006720Y008030D02*
X006580Y008030D01*
X006580Y008129D02*
X006720Y008129D01*
X006720Y008227D02*
X006580Y008227D01*
X006580Y008326D02*
X006720Y008326D01*
X006720Y008424D02*
X006580Y008424D01*
X006569Y008523D02*
X006731Y008523D01*
X006772Y008621D02*
X006528Y008621D01*
X006449Y008720D02*
X006851Y008720D01*
X007011Y008818D02*
X006289Y008818D01*
X007100Y010197D02*
X007200Y010197D01*
X007200Y010296D02*
X007100Y010296D01*
X007100Y010394D02*
X007200Y010394D01*
X007200Y010493D02*
X007100Y010493D01*
X007150Y011201D02*
X008111Y011201D01*
X008150Y011241D01*
X008596Y011281D02*
X008940Y011281D01*
X008940Y011379D02*
X008596Y011379D01*
X008596Y011478D02*
X008940Y011478D01*
X008940Y011576D02*
X008567Y011576D01*
X008596Y011182D02*
X008940Y011182D01*
X008940Y011084D02*
X008596Y011084D01*
X008596Y010985D02*
X008940Y010985D01*
X008940Y010887D02*
X008548Y010887D01*
X008568Y010394D02*
X008940Y010394D01*
X008940Y010296D02*
X008596Y010296D01*
X008596Y010197D02*
X008940Y010197D01*
X008940Y010099D02*
X008596Y010099D01*
X008596Y010000D02*
X008940Y010000D01*
X008940Y009902D02*
X008596Y009902D01*
X008596Y009803D02*
X008940Y009803D01*
X008940Y009705D02*
X008547Y009705D01*
X007507Y008818D02*
X007289Y008818D01*
X008150Y007441D02*
X008152Y007421D01*
X008158Y007403D01*
X008167Y007385D01*
X008179Y007370D01*
X008650Y006900D02*
X008650Y001400D01*
X008429Y001179D01*
X008359Y001150D02*
X008150Y001150D01*
X007650Y001650D01*
X007657Y001332D02*
X007605Y001332D01*
X007640Y001234D02*
X007660Y001234D01*
X007660Y001135D02*
X007640Y001135D01*
X007633Y001037D02*
X007667Y001037D01*
X007707Y000938D02*
X007593Y000938D01*
X007532Y000840D02*
X007768Y000840D01*
X007866Y000741D02*
X007434Y000741D01*
X007303Y000643D02*
X008940Y000643D01*
X008940Y000741D02*
X008434Y000741D01*
X008532Y000840D02*
X008940Y000840D01*
X008940Y000938D02*
X008593Y000938D01*
X008633Y001037D02*
X008940Y001037D01*
X008940Y001135D02*
X008696Y001135D01*
X008795Y001234D02*
X008940Y001234D01*
X008940Y001332D02*
X008870Y001332D01*
X008870Y001431D02*
X008940Y001431D01*
X008940Y001529D02*
X008870Y001529D01*
X008870Y001628D02*
X008940Y001628D01*
X008940Y001726D02*
X008870Y001726D01*
X008870Y001825D02*
X008940Y001825D01*
X008940Y001923D02*
X008870Y001923D01*
X008870Y002022D02*
X008940Y002022D01*
X008940Y002120D02*
X008870Y002120D01*
X008870Y002219D02*
X008940Y002219D01*
X008940Y002317D02*
X008870Y002317D01*
X008870Y002416D02*
X008940Y002416D01*
X008940Y002514D02*
X008870Y002514D01*
X008870Y002613D02*
X008940Y002613D01*
X008940Y002711D02*
X008870Y002711D01*
X008870Y002810D02*
X008940Y002810D01*
X008940Y002908D02*
X008870Y002908D01*
X008870Y003007D02*
X008940Y003007D01*
X008940Y003105D02*
X008870Y003105D01*
X008870Y003204D02*
X008940Y003204D01*
X008940Y003302D02*
X008870Y003302D01*
X008870Y003401D02*
X008940Y003401D01*
X008940Y003499D02*
X008870Y003499D01*
X008870Y003598D02*
X008940Y003598D01*
X008940Y003696D02*
X008870Y003696D01*
X008870Y003795D02*
X008940Y003795D01*
X008940Y003893D02*
X008870Y003893D01*
X008870Y003992D02*
X008940Y003992D01*
X008940Y004090D02*
X008870Y004090D01*
X008870Y004189D02*
X008940Y004189D01*
X008940Y004287D02*
X008870Y004287D01*
X008870Y004386D02*
X008940Y004386D01*
X008940Y004484D02*
X008870Y004484D01*
X008870Y004583D02*
X008940Y004583D01*
X008940Y004681D02*
X008870Y004681D01*
X008870Y004780D02*
X008940Y004780D01*
X008940Y004878D02*
X008870Y004878D01*
X008870Y004977D02*
X008940Y004977D01*
X008940Y005075D02*
X008870Y005075D01*
X008870Y005174D02*
X008940Y005174D01*
X008940Y005272D02*
X008870Y005272D01*
X008870Y005371D02*
X008940Y005371D01*
X008940Y005469D02*
X008870Y005469D01*
X008870Y005568D02*
X008940Y005568D01*
X008940Y005666D02*
X008870Y005666D01*
X008870Y005765D02*
X008940Y005765D01*
X008940Y005863D02*
X008870Y005863D01*
X008870Y005962D02*
X008940Y005962D01*
X008940Y006060D02*
X008870Y006060D01*
X008870Y006159D02*
X008940Y006159D01*
X008940Y006257D02*
X008870Y006257D01*
X008870Y006356D02*
X008940Y006356D01*
X008940Y006454D02*
X008870Y006454D01*
X008870Y006553D02*
X008940Y006553D01*
X008940Y006651D02*
X008870Y006651D01*
X008870Y006750D02*
X008940Y006750D01*
X008940Y006848D02*
X008870Y006848D01*
X008870Y006947D02*
X008940Y006947D01*
X008940Y007045D02*
X008816Y007045D01*
X008430Y003598D02*
X008350Y003598D01*
X008371Y002711D02*
X008430Y002711D01*
X008430Y002613D02*
X008314Y002613D01*
X008430Y001179D02*
X008415Y001167D01*
X008397Y001158D01*
X008379Y001152D01*
X008359Y001150D01*
X008940Y000544D02*
X007204Y000544D01*
X007106Y000446D02*
X008940Y000446D01*
X006882Y014236D02*
X000360Y014236D01*
X000360Y014334D02*
X006900Y014334D01*
X006900Y014433D02*
X000360Y014433D01*
X000360Y014531D02*
X006900Y014531D01*
X006900Y014630D02*
X000360Y014630D01*
X000360Y014728D02*
X006900Y014728D01*
X006900Y014827D02*
X000360Y014827D01*
X000360Y014925D02*
X006900Y014925D01*
X006900Y015024D02*
X000360Y015024D01*
X000360Y015122D02*
X006900Y015122D01*
X006900Y015221D02*
X000360Y015221D01*
X000360Y015319D02*
X006900Y015319D01*
X006900Y015418D02*
X000360Y015418D01*
X000360Y015516D02*
X006900Y015516D01*
X006900Y015615D02*
X000360Y015615D01*
X000360Y015713D02*
X006900Y015713D01*
X006900Y015812D02*
X000360Y015812D01*
X000360Y015910D02*
X006900Y015910D01*
X006900Y016009D02*
X000360Y016009D01*
X000360Y016107D02*
X006900Y016107D01*
X006900Y016206D02*
X000360Y016206D01*
X000360Y016304D02*
X003374Y016304D01*
X003338Y016339D02*
X003438Y016240D01*
X004090Y016240D01*
X004190Y016339D01*
X004190Y017090D01*
X004090Y017190D01*
X003438Y017190D01*
X003338Y017090D01*
X003338Y016339D01*
X003338Y016403D02*
X000360Y016403D01*
X000360Y016501D02*
X003338Y016501D01*
X003338Y016600D02*
X000360Y016600D01*
X000360Y016698D02*
X003338Y016698D01*
X003338Y016797D02*
X000360Y016797D01*
X000360Y016895D02*
X003338Y016895D01*
X003338Y016994D02*
X000360Y016994D01*
X000360Y017092D02*
X003340Y017092D01*
X002666Y017289D02*
X004256Y017289D01*
X004243Y017302D02*
X004302Y017243D01*
X004370Y017193D01*
X004445Y017155D01*
X004525Y017129D01*
X004600Y017117D01*
X004600Y017600D01*
X004700Y017600D01*
X004700Y017700D01*
X005183Y017700D01*
X005171Y017775D01*
X005145Y017855D01*
X005107Y017930D01*
X005057Y017998D01*
X004998Y018057D01*
X004930Y018107D01*
X004855Y018145D01*
X004775Y018171D01*
X004700Y018183D01*
X004700Y017700D01*
X004600Y017700D01*
X004600Y018183D01*
X004525Y018171D01*
X004445Y018145D01*
X004370Y018107D01*
X004302Y018057D01*
X004243Y017998D01*
X004193Y017930D01*
X004155Y017855D01*
X004129Y017775D01*
X004117Y017700D01*
X004600Y017700D01*
X004600Y017600D01*
X004117Y017600D01*
X004129Y017525D01*
X004155Y017445D01*
X004193Y017370D01*
X004243Y017302D01*
X004185Y017388D02*
X002666Y017388D01*
X002666Y017486D02*
X004142Y017486D01*
X004120Y017585D02*
X002666Y017585D01*
X002666Y017700D02*
X002666Y018024D01*
X002656Y018062D01*
X002636Y018096D01*
X002608Y018124D01*
X002574Y018144D01*
X002536Y018154D01*
X002251Y018154D01*
X002251Y017700D01*
X002666Y017700D01*
X002666Y017782D02*
X004131Y017782D01*
X004168Y017880D02*
X002666Y017880D01*
X002666Y017979D02*
X004229Y017979D01*
X004330Y018077D02*
X002647Y018077D01*
X002251Y018077D02*
X002151Y018077D01*
X002151Y017979D02*
X002251Y017979D01*
X002251Y017880D02*
X002151Y017880D01*
X002151Y017782D02*
X002251Y017782D01*
X002251Y017683D02*
X004600Y017683D01*
X004600Y017585D02*
X004700Y017585D01*
X004700Y017600D02*
X004700Y017117D01*
X004775Y017129D01*
X004855Y017155D01*
X004930Y017193D01*
X004998Y017243D01*
X005057Y017302D01*
X005107Y017370D01*
X005145Y017445D01*
X005171Y017525D01*
X005183Y017600D01*
X004700Y017600D01*
X004700Y017683D02*
X006613Y017683D01*
X006613Y017585D02*
X005180Y017585D01*
X005158Y017486D02*
X006613Y017486D01*
X006613Y017388D02*
X005115Y017388D01*
X005044Y017289D02*
X006613Y017289D01*
X006648Y017191D02*
X004924Y017191D01*
X004700Y017191D02*
X004600Y017191D01*
X004600Y017289D02*
X004700Y017289D01*
X004700Y017388D02*
X004600Y017388D01*
X004600Y017486D02*
X004700Y017486D01*
X004700Y017782D02*
X004600Y017782D01*
X004600Y017880D02*
X004700Y017880D01*
X004700Y017979D02*
X004600Y017979D01*
X004600Y018077D02*
X004700Y018077D01*
X004700Y018176D02*
X004600Y018176D01*
X004556Y018176D02*
X002248Y018176D01*
X002151Y017683D02*
X001584Y017683D01*
X001584Y017585D02*
X001736Y017585D01*
X001736Y017486D02*
X001584Y017486D01*
X001584Y017388D02*
X001736Y017388D01*
X001736Y017289D02*
X001584Y017289D01*
X001549Y017191D02*
X001779Y017191D01*
X001736Y017782D02*
X001584Y017782D01*
X001584Y017880D02*
X001736Y017880D01*
X001736Y017979D02*
X001584Y017979D01*
X001581Y018077D02*
X001755Y018077D01*
X001888Y018176D02*
X001319Y018176D01*
X001420Y018274D02*
X001715Y018274D01*
X001617Y018373D02*
X001519Y018373D01*
X001563Y018471D02*
X001572Y018471D01*
X001598Y018964D02*
X001537Y018964D01*
X001455Y019062D02*
X001681Y019062D01*
X001804Y019161D02*
X001332Y019161D01*
X001070Y018684D02*
X001068Y018685D01*
X001099Y018613D02*
X001099Y017650D01*
X000879Y018176D02*
X000360Y018176D01*
X000360Y018274D02*
X000715Y018274D01*
X000617Y018373D02*
X000360Y018373D01*
X000360Y018471D02*
X000572Y018471D01*
X000531Y018570D02*
X000360Y018570D01*
X000360Y018668D02*
X000528Y018668D01*
X000528Y018767D02*
X000360Y018767D01*
X000360Y018865D02*
X000558Y018865D01*
X000598Y018964D02*
X000360Y018964D01*
X000360Y019062D02*
X000681Y019062D01*
X000804Y019161D02*
X000360Y019161D01*
X000360Y019259D02*
X003351Y019259D01*
X003539Y019358D02*
X000360Y019358D01*
X000360Y018077D02*
X000616Y018077D01*
X000614Y017979D02*
X000360Y017979D01*
X000360Y017880D02*
X000614Y017880D01*
X000614Y017782D02*
X000360Y017782D01*
X000360Y017683D02*
X000614Y017683D01*
X000614Y017585D02*
X000360Y017585D01*
X000360Y017486D02*
X000614Y017486D01*
X000614Y017388D02*
X000360Y017388D01*
X000360Y017289D02*
X000614Y017289D01*
X000649Y017191D02*
X000360Y017191D01*
X001099Y018613D02*
X001097Y018633D01*
X001091Y018651D01*
X001082Y018669D01*
X001070Y018684D01*
X002151Y017585D02*
X002251Y017585D01*
X002251Y017486D02*
X002151Y017486D01*
X002151Y017388D02*
X002251Y017388D01*
X002251Y017289D02*
X002151Y017289D01*
X002151Y017191D02*
X002251Y017191D01*
X002623Y017191D02*
X004376Y017191D01*
X004189Y017092D02*
X005148Y017092D01*
X005140Y017078D02*
X005130Y017040D01*
X005130Y016765D01*
X005486Y016765D01*
X005486Y017170D01*
X005260Y017170D01*
X005222Y017160D01*
X005188Y017140D01*
X005160Y017112D01*
X005140Y017078D01*
X005130Y016994D02*
X004190Y016994D01*
X004190Y016895D02*
X005130Y016895D01*
X005130Y016797D02*
X004190Y016797D01*
X004190Y016698D02*
X005486Y016698D01*
X005486Y016665D02*
X005130Y016665D01*
X005130Y016390D01*
X005140Y016352D01*
X005160Y016318D01*
X005188Y016290D01*
X005222Y016270D01*
X005260Y016260D01*
X005486Y016260D01*
X005486Y016665D01*
X005586Y016665D01*
X005586Y016765D01*
X005942Y016765D01*
X005942Y017040D01*
X005932Y017078D01*
X005912Y017112D01*
X005884Y017140D01*
X005850Y017160D01*
X005811Y017170D01*
X005586Y017170D01*
X005586Y016765D01*
X005486Y016765D01*
X005486Y016665D01*
X005486Y016600D02*
X005586Y016600D01*
X005586Y016665D02*
X005586Y016260D01*
X005811Y016260D01*
X005850Y016270D01*
X005884Y016290D01*
X005912Y016318D01*
X005932Y016352D01*
X005942Y016390D01*
X005942Y016665D01*
X005586Y016665D01*
X005586Y016698D02*
X006900Y016698D01*
X006900Y016600D02*
X005942Y016600D01*
X005942Y016501D02*
X006900Y016501D01*
X006900Y016403D02*
X005942Y016403D01*
X005898Y016304D02*
X006900Y016304D01*
X006900Y016797D02*
X005942Y016797D01*
X005942Y016895D02*
X006900Y016895D01*
X006900Y016994D02*
X005942Y016994D01*
X005923Y017092D02*
X006900Y017092D01*
X006613Y017782D02*
X005169Y017782D01*
X005132Y017880D02*
X006613Y017880D01*
X006613Y017979D02*
X005071Y017979D01*
X004970Y018077D02*
X006615Y018077D01*
X006643Y018767D02*
X004098Y018767D01*
X004115Y018865D02*
X006677Y018865D01*
X006736Y018964D02*
X004115Y018964D01*
X004086Y019062D02*
X006833Y019062D01*
X007051Y019161D02*
X004046Y019161D01*
X003949Y019259D02*
X008940Y019259D01*
X008940Y019161D02*
X008329Y019161D01*
X008502Y019062D02*
X008940Y019062D01*
X008940Y018964D02*
X008600Y018964D01*
X008646Y018865D02*
X008940Y018865D01*
X008940Y018767D02*
X008687Y018767D01*
X008690Y018668D02*
X008940Y018668D01*
X008940Y018570D02*
X008690Y018570D01*
X008661Y018471D02*
X008940Y018471D01*
X008940Y018373D02*
X008620Y018373D01*
X008538Y018274D02*
X008940Y018274D01*
X008940Y018176D02*
X008417Y018176D01*
X008150Y017742D02*
X008152Y017722D01*
X008158Y017704D01*
X008167Y017686D01*
X008179Y017671D01*
X008180Y017671D02*
X008200Y017651D01*
X008150Y017742D02*
X008150Y018650D01*
X007884Y018176D02*
X007365Y018176D01*
X006936Y018176D02*
X004744Y018176D01*
X005486Y017092D02*
X005586Y017092D01*
X005586Y016994D02*
X005486Y016994D01*
X005486Y016895D02*
X005586Y016895D01*
X005586Y016797D02*
X005486Y016797D01*
X005486Y016501D02*
X005586Y016501D01*
X005586Y016403D02*
X005486Y016403D01*
X005486Y016304D02*
X005586Y016304D01*
X005174Y016304D02*
X004155Y016304D01*
X004190Y016403D02*
X005130Y016403D01*
X005130Y016501D02*
X004190Y016501D01*
X004190Y016600D02*
X005130Y016600D01*
X003761Y019358D02*
X008940Y019358D01*
X008940Y018077D02*
X008684Y018077D01*
X008685Y017979D02*
X008940Y017979D01*
X008940Y017880D02*
X008685Y017880D01*
X008685Y017782D02*
X008940Y017782D01*
X008940Y017683D02*
X008685Y017683D01*
X008685Y017585D02*
X008940Y017585D01*
X008940Y017486D02*
X008685Y017486D01*
X008685Y017388D02*
X008940Y017388D01*
X008940Y017289D02*
X008685Y017289D01*
X008650Y017191D02*
X008940Y017191D01*
D23*
X008150Y013150D03*
X006150Y018150D03*
X003150Y011400D03*
X003650Y008900D03*
X004400Y007150D03*
X004650Y004400D03*
X006150Y003150D03*
X006650Y006400D03*
X007900Y006900D03*
X005150Y011150D03*
X001150Y013150D03*
X001150Y016150D03*
X001400Y002150D03*
D24*
X001150Y002650D02*
X000900Y002900D01*
X000900Y003149D01*
X001151Y003400D01*
X001150Y003599D01*
X001557Y003599D01*
X001628Y003628D02*
X002150Y004150D01*
X002150Y005150D01*
X002150Y006650D01*
X001628Y007172D01*
X001557Y007201D02*
X001150Y007201D01*
X001150Y008650D01*
X001621Y009121D01*
X001691Y009150D02*
X002900Y009150D01*
X003372Y009622D01*
X003401Y009693D02*
X003401Y010150D01*
X003401Y010610D01*
X003401Y010150D02*
X004276Y010150D01*
X004650Y009776D01*
X003401Y009693D02*
X003399Y009673D01*
X003393Y009655D01*
X003384Y009637D01*
X003372Y009622D01*
X001691Y009150D02*
X001671Y009148D01*
X001653Y009142D01*
X001635Y009133D01*
X001620Y009121D01*
X001557Y007201D02*
X001577Y007199D01*
X001595Y007193D01*
X001613Y007184D01*
X001628Y007172D01*
X001628Y003628D02*
X001613Y003616D01*
X001595Y003607D01*
X001577Y003601D01*
X001557Y003599D01*
X001150Y002650D02*
X002150Y002650D01*
X000900Y001150D02*
X001400Y000650D01*
X006900Y000650D01*
X007121Y000871D01*
X007150Y000941D02*
X007150Y001150D01*
X007150Y000941D02*
X007148Y000921D01*
X007142Y000903D01*
X007133Y000885D01*
X007121Y000870D01*
X000900Y001150D02*
X000900Y002900D01*
D25*
X003401Y010610D02*
X003403Y010630D01*
X003409Y010648D01*
X003418Y010666D01*
X003430Y010681D01*
X003430Y010680D02*
X004672Y011922D01*
X004701Y011993D02*
X004701Y012649D01*
X004704Y012650D02*
X005650Y012650D01*
X007121Y014121D01*
X007150Y014191D02*
X007150Y017557D01*
X007121Y017628D02*
X007098Y017651D01*
X007121Y017628D02*
X007133Y017613D01*
X007142Y017595D01*
X007148Y017577D01*
X007150Y017557D01*
X007150Y014191D02*
X007148Y014171D01*
X007142Y014153D01*
X007133Y014135D01*
X007121Y014120D01*
X004704Y012650D02*
X004702Y012649D01*
X004701Y011993D02*
X004699Y011973D01*
X004693Y011955D01*
X004684Y011937D01*
X004672Y011922D01*
M02*
