G75*
%MOIN*%
%OFA0B0*%
%FSLAX24Y24*%
%IPPOS*%
%LPD*%
%AMOC8*
5,1,8,0,0,1.08239X$1,22.5*
%
%ADD10C,0.0080*%
%ADD11C,0.0030*%
D10*
X000150Y000150D02*
X009150Y000150D01*
X009150Y019650D01*
X000150Y019650D01*
X000150Y000150D01*
X003075Y008989D02*
X006225Y008989D01*
X006225Y010170D01*
X006344Y010220D01*
X006462Y010274D01*
X006578Y010331D01*
X006692Y010391D01*
X006805Y010455D01*
X006915Y010523D01*
X007023Y010593D01*
X007129Y010667D01*
X007233Y010745D01*
X007334Y010825D01*
X007433Y010908D01*
X007530Y010995D01*
X007623Y011084D01*
X007714Y011176D01*
X007802Y011271D01*
X007887Y011369D01*
X007969Y011469D01*
X008048Y011571D01*
X008124Y011676D01*
X008196Y011783D01*
X008266Y011892D01*
X008331Y012004D01*
X008394Y012117D01*
X008453Y012232D01*
X008508Y012349D01*
X008560Y012467D01*
X008608Y012587D01*
X008653Y012709D01*
X008694Y012832D01*
X008731Y012956D01*
X008764Y013081D01*
X008793Y013207D01*
X008819Y013333D01*
X008840Y013461D01*
X008858Y013589D01*
X008872Y013718D01*
X008882Y013847D01*
X008888Y013976D01*
X008890Y014105D01*
X008888Y014235D01*
X008882Y014364D01*
X008872Y014493D01*
X008859Y014621D01*
X008841Y014749D01*
X008819Y014877D01*
X008794Y015004D01*
X008765Y015130D01*
X008732Y015255D01*
X008695Y015379D01*
X008654Y015502D01*
X008610Y015623D01*
X008562Y015743D01*
X008510Y015862D01*
X008455Y015979D01*
X008396Y016094D01*
X008333Y016207D01*
X008268Y016319D01*
X008198Y016428D01*
X008126Y016535D01*
X008050Y016640D01*
X007971Y016743D01*
X007889Y016843D01*
X007804Y016940D01*
X007717Y017035D01*
X007626Y017127D01*
X007532Y017217D01*
X007436Y017303D01*
X007337Y017387D01*
X007236Y017467D01*
X007132Y017544D01*
X007026Y017619D01*
X006918Y017689D01*
X006808Y017757D01*
X006695Y017821D01*
X006581Y017882D01*
X006465Y017939D01*
X006347Y017992D01*
X006228Y018042D01*
X006107Y018089D01*
X005985Y018131D01*
X005862Y018170D01*
X005737Y018205D01*
X005612Y018236D01*
X005485Y018264D01*
X005358Y018287D01*
X005230Y018307D01*
X005102Y018323D01*
X004973Y018335D01*
X004844Y018343D01*
X004715Y018347D01*
X004585Y018347D01*
X004456Y018343D01*
X004327Y018335D01*
X004198Y018323D01*
X004070Y018307D01*
X003942Y018287D01*
X003815Y018264D01*
X003688Y018236D01*
X003563Y018205D01*
X003438Y018170D01*
X003315Y018131D01*
X003193Y018089D01*
X003072Y018042D01*
X002953Y017992D01*
X002835Y017939D01*
X002719Y017882D01*
X002605Y017821D01*
X002492Y017757D01*
X002382Y017689D01*
X002274Y017619D01*
X002168Y017544D01*
X002064Y017467D01*
X001963Y017387D01*
X001864Y017303D01*
X001768Y017217D01*
X001674Y017127D01*
X001583Y017035D01*
X001496Y016940D01*
X001411Y016843D01*
X001329Y016743D01*
X001250Y016640D01*
X001174Y016535D01*
X001102Y016428D01*
X001032Y016319D01*
X000967Y016207D01*
X000904Y016094D01*
X000845Y015979D01*
X000790Y015862D01*
X000738Y015743D01*
X000690Y015623D01*
X000646Y015502D01*
X000605Y015379D01*
X000568Y015255D01*
X000535Y015130D01*
X000506Y015004D01*
X000481Y014877D01*
X000459Y014749D01*
X000441Y014621D01*
X000428Y014493D01*
X000418Y014364D01*
X000412Y014235D01*
X000410Y014105D01*
X000412Y013976D01*
X000418Y013847D01*
X000428Y013718D01*
X000442Y013589D01*
X000460Y013461D01*
X000481Y013333D01*
X000507Y013207D01*
X000536Y013081D01*
X000569Y012956D01*
X000606Y012832D01*
X000647Y012709D01*
X000692Y012587D01*
X000740Y012467D01*
X000792Y012349D01*
X000847Y012232D01*
X000906Y012117D01*
X000969Y012004D01*
X001034Y011892D01*
X001104Y011783D01*
X001176Y011676D01*
X001252Y011571D01*
X001331Y011469D01*
X001413Y011369D01*
X001498Y011271D01*
X001586Y011176D01*
X001677Y011084D01*
X001770Y010995D01*
X001867Y010908D01*
X001966Y010825D01*
X002067Y010745D01*
X002171Y010667D01*
X002277Y010593D01*
X002385Y010523D01*
X002495Y010455D01*
X002608Y010391D01*
X002722Y010331D01*
X002838Y010274D01*
X002956Y010220D01*
X003075Y010170D01*
X003075Y008989D01*
D11*
X003630Y018265D02*
X003630Y018450D01*
X003506Y018574D01*
X003506Y018635D01*
X003630Y018450D02*
X003753Y018574D01*
X003753Y018635D01*
X003875Y018574D02*
X003875Y018450D01*
X003936Y018388D01*
X004122Y018388D01*
X004122Y018265D02*
X004122Y018635D01*
X003936Y018635D01*
X003875Y018574D01*
X003998Y018388D02*
X003875Y018265D01*
X004243Y018265D02*
X004490Y018265D01*
X004490Y018635D01*
X004243Y018635D01*
X004367Y018450D02*
X004490Y018450D01*
X004611Y018635D02*
X004858Y018635D01*
X004980Y018635D02*
X005227Y018635D01*
X005348Y018512D02*
X005348Y018265D01*
X005348Y018450D02*
X005595Y018450D01*
X005595Y018512D02*
X005471Y018635D01*
X005348Y018512D01*
X005595Y018512D02*
X005595Y018265D01*
X005716Y018327D02*
X005778Y018265D01*
X005963Y018265D01*
X005963Y018635D01*
X005778Y018635D01*
X005716Y018574D01*
X005716Y018512D01*
X005778Y018450D01*
X005963Y018450D01*
X005778Y018450D02*
X005716Y018388D01*
X005716Y018327D01*
X005103Y018265D02*
X005103Y018635D01*
X004735Y018635D02*
X004735Y018265D01*
M02*
