%
M48
M72
T01C0.0200
T02C0.0320
T03C0.0354
T04C0.0400
T05C0.0512
%
T01
X4650Y4400
X4400Y7150
X1150Y13150
X1150Y16150
X6150Y18150
X8150Y13150
X5150Y11150
X6150Y3150
X6650Y6400
X7900Y6900
X1400Y2150
X3650Y8900
X3150Y11400
T02
X2150Y5150
X3150Y5150
X8150Y5150
X8150Y8150
X4150Y5150
X5150Y5150
X7150Y5150
X6150Y5150
X7150Y8150
X6150Y8150
X5150Y8150
X4150Y8150
X3150Y8150
X2150Y8150
T03
X3150Y2650
X4150Y2650
X5150Y2650
X2150Y1650
X3150Y1650
X4150Y1650
X5150Y1650
X2150Y2650
X8150Y2150
X7150Y2150
X7150Y1150
X8150Y1150
X8150Y3150
X7150Y3150
T04
X1068Y18685
X2068Y18685
X7150Y18650
X8150Y18650
T05
X4650Y17650
X4650Y9776
M30
