G75*
%MOIN*%
%OFA0B0*%
%FSLAX24Y24*%
%IPPOS*%
%LPD*%
%AMOC8*
5,1,8,0,0,1.08239X$1,22.5*
%
%ADD10C,0.0080*%
%ADD11C,0.0050*%
%ADD12C,0.0520*%
%ADD13C,0.0728*%
%ADD14C,0.0740*%
%ADD15C,0.0640*%
%ADD16C,0.0768*%
%ADD17C,0.0100*%
%ADD18C,0.0320*%
D10*
X000150Y000150D02*
X009150Y000150D01*
X009150Y019650D01*
X000150Y019650D01*
X000150Y000150D01*
D11*
X000739Y000490D02*
X000920Y000490D01*
X000785Y000625D01*
X000785Y000355D01*
X001034Y000355D02*
X001214Y000355D01*
X001124Y000355D02*
X001124Y000625D01*
X001214Y000535D01*
X001329Y000580D02*
X001329Y000400D01*
X001374Y000355D01*
X001464Y000355D01*
X001509Y000400D01*
X001329Y000580D01*
X001374Y000625D01*
X001464Y000625D01*
X001509Y000580D01*
X001509Y000400D01*
X001623Y000355D02*
X001804Y000355D01*
X001623Y000535D01*
X001623Y000580D01*
X001668Y000625D01*
X001759Y000625D01*
X001804Y000580D01*
X001906Y000400D02*
X001906Y000355D01*
X001951Y000355D01*
X001951Y000400D01*
X001906Y000400D01*
X002065Y000355D02*
X002246Y000355D01*
X002065Y000535D01*
X002065Y000580D01*
X002110Y000625D01*
X002201Y000625D01*
X002246Y000580D01*
X002360Y000580D02*
X002360Y000400D01*
X002405Y000355D01*
X002495Y000355D01*
X002540Y000400D01*
X002360Y000580D01*
X002405Y000625D01*
X002495Y000625D01*
X002540Y000580D01*
X002540Y000400D01*
X002643Y000400D02*
X002643Y000355D01*
X002688Y000355D01*
X002688Y000400D01*
X002643Y000400D01*
X002802Y000400D02*
X002847Y000355D01*
X002937Y000355D01*
X002982Y000400D01*
X003097Y000355D02*
X003277Y000355D01*
X003097Y000535D01*
X003097Y000580D01*
X003142Y000625D01*
X003232Y000625D01*
X003277Y000580D01*
X002982Y000580D02*
X002937Y000625D01*
X002847Y000625D01*
X002802Y000580D01*
X002802Y000535D01*
X002847Y000490D01*
X002802Y000445D01*
X002802Y000400D01*
X002847Y000490D02*
X002892Y000490D01*
D12*
X003150Y004890D02*
X003150Y005410D01*
X004150Y005410D02*
X004150Y004890D01*
X005150Y004890D02*
X005150Y005410D01*
X006150Y005410D02*
X006150Y004890D01*
X007150Y004890D02*
X007150Y005410D01*
X008150Y005410D02*
X008150Y004890D01*
X008150Y007890D02*
X008150Y008410D01*
X007150Y008410D02*
X007150Y007890D01*
X006150Y007890D02*
X006150Y008410D01*
X005150Y008410D02*
X005150Y007890D01*
X004150Y007890D02*
X004150Y008410D01*
X003150Y008410D02*
X003150Y007890D01*
X002150Y007890D02*
X002150Y008410D01*
X002150Y005410D02*
X002150Y004890D01*
D13*
X002150Y002650D03*
X002150Y001650D03*
X003150Y001650D03*
X003150Y002650D03*
X004150Y002650D03*
X004150Y001650D03*
X005150Y001650D03*
X005150Y002650D03*
D14*
X007150Y018650D03*
X008150Y018650D03*
X002068Y018685D03*
X001068Y018685D03*
D15*
X007150Y003150D03*
X007150Y002150D03*
X007150Y001150D03*
X008150Y001150D03*
X008150Y002150D03*
X008150Y003150D03*
D16*
X004650Y009776D03*
X004650Y017650D03*
D17*
X004700Y017683D02*
X007930Y017683D01*
X007930Y017585D02*
X005180Y017585D01*
X005183Y017600D02*
X005171Y017525D01*
X005145Y017445D01*
X005107Y017370D01*
X005057Y017302D01*
X004998Y017243D01*
X004930Y017193D01*
X004855Y017155D01*
X004775Y017129D01*
X004700Y017117D01*
X004700Y017600D01*
X004700Y017700D01*
X005183Y017700D01*
X005171Y017775D01*
X005145Y017855D01*
X005107Y017930D01*
X005057Y017998D01*
X004998Y018057D01*
X004930Y018107D01*
X004855Y018145D01*
X004775Y018171D01*
X004700Y018183D01*
X004700Y017700D01*
X004600Y017700D01*
X004600Y018183D01*
X004525Y018171D01*
X004445Y018145D01*
X004370Y018107D01*
X004302Y018057D01*
X004243Y017998D01*
X004193Y017930D01*
X004155Y017855D01*
X004129Y017775D01*
X004117Y017700D01*
X004600Y017700D01*
X004600Y017600D01*
X004700Y017600D01*
X005183Y017600D01*
X005158Y017486D02*
X007930Y017486D01*
X007930Y017388D02*
X005115Y017388D01*
X005044Y017289D02*
X007930Y017289D01*
X007930Y017191D02*
X004924Y017191D01*
X004700Y017191D02*
X004600Y017191D01*
X004600Y017117D02*
X004525Y017129D01*
X004445Y017155D01*
X004370Y017193D01*
X004302Y017243D01*
X004243Y017302D01*
X004193Y017370D01*
X004155Y017445D01*
X004129Y017525D01*
X004117Y017600D01*
X004600Y017600D01*
X004600Y017117D01*
X004600Y017289D02*
X004700Y017289D01*
X004700Y017388D02*
X004600Y017388D01*
X004600Y017486D02*
X004700Y017486D01*
X004700Y017585D02*
X004600Y017585D01*
X004600Y017683D02*
X002870Y017683D01*
X002870Y017585D02*
X004120Y017585D01*
X004142Y017486D02*
X002870Y017486D01*
X002870Y017388D02*
X004185Y017388D01*
X004256Y017289D02*
X002870Y017289D01*
X002870Y017191D02*
X004376Y017191D01*
X004600Y017782D02*
X004700Y017782D01*
X004700Y017880D02*
X004600Y017880D01*
X004600Y017979D02*
X004700Y017979D01*
X004700Y018077D02*
X004600Y018077D01*
X004600Y018176D02*
X004700Y018176D01*
X004744Y018176D02*
X006936Y018176D01*
X006951Y018168D02*
X007029Y018143D01*
X007100Y018131D01*
X007100Y018600D01*
X006632Y018600D01*
X006643Y018528D01*
X006669Y018450D01*
X006706Y018377D01*
X006754Y018311D01*
X006812Y018253D01*
X006878Y018205D01*
X006951Y018168D01*
X007100Y018176D02*
X007200Y018176D01*
X007200Y018131D02*
X007272Y018143D01*
X007350Y018168D01*
X007423Y018205D01*
X007489Y018253D01*
X007547Y018311D01*
X007595Y018377D01*
X007632Y018450D01*
X007640Y018472D01*
X007693Y018344D01*
X007845Y018192D01*
X007930Y018157D01*
X007930Y014491D01*
X006588Y013149D01*
X006530Y013091D01*
X006459Y013020D01*
X006459Y012993D01*
X006449Y012969D01*
X006430Y012950D01*
X006430Y008738D01*
X006394Y008775D01*
X006236Y008840D01*
X006064Y008840D01*
X005906Y008775D01*
X005870Y008738D01*
X005870Y008741D01*
X005741Y008870D01*
X005649Y008962D01*
X005591Y009020D01*
X005520Y009091D01*
X005493Y009091D01*
X005469Y009101D01*
X005450Y009120D01*
X004491Y009120D01*
X003370Y010241D01*
X003370Y011153D01*
X003430Y011213D01*
X003480Y011334D01*
X003480Y011466D01*
X003430Y011587D01*
X003337Y011680D01*
X003216Y011730D01*
X003084Y011730D01*
X002963Y011680D01*
X002870Y011587D01*
X002870Y011586D01*
X002870Y018153D01*
X002851Y018172D01*
X002841Y018196D01*
X002841Y018224D01*
X002770Y018294D01*
X002712Y018352D01*
X002572Y018492D01*
X002608Y018578D01*
X002608Y018793D01*
X002526Y018991D01*
X002374Y019143D01*
X002175Y019225D01*
X001960Y019225D01*
X001762Y019143D01*
X001610Y018991D01*
X001568Y018889D01*
X001526Y018991D01*
X001374Y019143D01*
X001175Y019225D01*
X000960Y019225D01*
X000762Y019143D01*
X000610Y018991D01*
X000528Y018793D01*
X000528Y018578D01*
X000610Y018380D01*
X000762Y018228D01*
X000960Y018145D01*
X001175Y018145D01*
X001374Y018228D01*
X001526Y018380D01*
X001568Y018481D01*
X001610Y018380D01*
X001762Y018228D01*
X001960Y018145D01*
X002175Y018145D01*
X002261Y018181D01*
X002430Y018012D01*
X002430Y008710D01*
X002417Y008723D01*
X002365Y008761D01*
X002307Y008790D01*
X002246Y008810D01*
X002182Y008820D01*
X002180Y008820D01*
X002180Y008180D01*
X002120Y008180D01*
X002120Y008820D01*
X002118Y008820D01*
X002054Y008810D01*
X001993Y008790D01*
X001935Y008761D01*
X001883Y008723D01*
X001837Y008677D01*
X001799Y008625D01*
X001770Y008567D01*
X001750Y008506D01*
X001740Y008442D01*
X001740Y008180D01*
X002120Y008180D01*
X002120Y008120D01*
X002180Y008120D01*
X002180Y007480D01*
X002182Y007480D01*
X002246Y007490D01*
X002307Y007510D01*
X002365Y007539D01*
X002417Y007577D01*
X002430Y007590D01*
X002430Y007309D01*
X002559Y007180D01*
X002930Y006809D01*
X002930Y005784D01*
X002906Y005775D01*
X002785Y005654D01*
X002720Y005496D01*
X002720Y004804D01*
X002785Y004646D01*
X002906Y004525D01*
X003064Y004460D01*
X003236Y004460D01*
X003394Y004525D01*
X003430Y004562D01*
X003430Y003991D01*
X002588Y003149D01*
X002532Y003093D01*
X002497Y003058D01*
X002453Y003103D01*
X002256Y003184D01*
X002044Y003184D01*
X001847Y003103D01*
X001697Y002953D01*
X001616Y002756D01*
X001616Y002544D01*
X001697Y002347D01*
X001847Y002197D01*
X001989Y002138D01*
X001953Y002127D01*
X001881Y002090D01*
X001815Y002042D01*
X001758Y001985D01*
X001710Y001919D01*
X001673Y001847D01*
X001648Y001770D01*
X001636Y001690D01*
X001636Y001689D01*
X002111Y001689D01*
X002111Y001611D01*
X002189Y001611D01*
X002189Y001136D01*
X002190Y001136D01*
X002270Y001148D01*
X002347Y001173D01*
X002419Y001210D01*
X002485Y001258D01*
X002542Y001315D01*
X002590Y001381D01*
X002627Y001453D01*
X002638Y001489D01*
X002697Y001347D01*
X002847Y001197D01*
X003044Y001116D01*
X003256Y001116D01*
X003453Y001197D01*
X003603Y001347D01*
X003650Y001461D01*
X003697Y001347D01*
X003847Y001197D01*
X004044Y001116D01*
X004123Y001116D01*
X004180Y001059D01*
X004309Y000930D01*
X006450Y000930D01*
X006469Y000949D01*
X006493Y000959D01*
X006520Y000959D01*
X006590Y001028D01*
X006649Y001088D01*
X006649Y001088D01*
X006660Y001099D01*
X006660Y001053D01*
X006735Y000872D01*
X006872Y000735D01*
X007053Y000660D01*
X007247Y000660D01*
X007428Y000735D01*
X007565Y000872D01*
X007640Y001053D01*
X007640Y001247D01*
X007565Y001428D01*
X007563Y001430D01*
X007700Y001430D01*
X007719Y001449D01*
X007743Y001459D01*
X007766Y001459D01*
X007735Y001428D01*
X007660Y001247D01*
X007660Y001053D01*
X007735Y000872D01*
X007872Y000735D01*
X008053Y000660D01*
X008247Y000660D01*
X008428Y000735D01*
X008565Y000872D01*
X008640Y001053D01*
X008640Y001247D01*
X008565Y001428D01*
X008428Y001565D01*
X008247Y001640D01*
X008053Y001640D01*
X007879Y001568D01*
X007899Y001588D01*
X007899Y001588D01*
X007995Y001684D01*
X008053Y001660D01*
X008247Y001660D01*
X008428Y001735D01*
X008565Y001872D01*
X008640Y002053D01*
X008640Y002247D01*
X008616Y002305D01*
X008741Y002430D01*
X008870Y002559D01*
X008870Y005741D01*
X008620Y005991D01*
X008491Y006120D01*
X007991Y006120D01*
X007370Y006741D01*
X007370Y007516D01*
X007394Y007525D01*
X007515Y007646D01*
X007580Y007804D01*
X007580Y008496D01*
X007515Y008654D01*
X007394Y008775D01*
X007236Y008840D01*
X007064Y008840D01*
X006906Y008775D01*
X006870Y008738D01*
X006870Y012809D01*
X008241Y014180D01*
X008370Y014309D01*
X008370Y018156D01*
X008456Y018192D01*
X008608Y018344D01*
X008690Y018542D01*
X008690Y018757D01*
X008608Y018956D01*
X008456Y019108D01*
X008258Y019190D01*
X008043Y019190D01*
X007845Y019108D01*
X007693Y018956D01*
X007640Y018827D01*
X007632Y018849D01*
X007595Y018922D01*
X007547Y018989D01*
X007489Y019046D01*
X007423Y019095D01*
X007350Y019132D01*
X007272Y019157D01*
X007200Y019168D01*
X007200Y018700D01*
X007100Y018700D01*
X007100Y018600D01*
X007200Y018600D01*
X007200Y018131D01*
X007200Y018274D02*
X007100Y018274D01*
X007100Y018373D02*
X007200Y018373D01*
X007200Y018471D02*
X007100Y018471D01*
X007100Y018570D02*
X007200Y018570D01*
X007100Y018668D02*
X002608Y018668D01*
X002604Y018570D02*
X006637Y018570D01*
X006662Y018471D02*
X002593Y018471D01*
X002692Y018373D02*
X006709Y018373D01*
X006791Y018274D02*
X002790Y018274D01*
X002712Y018352D02*
X002712Y018352D01*
X002621Y018132D02*
X002068Y018685D01*
X001804Y019161D02*
X001332Y019161D01*
X001455Y019062D02*
X001681Y019062D01*
X001598Y018964D02*
X001537Y018964D01*
X001563Y018471D02*
X001572Y018471D01*
X001617Y018373D02*
X001519Y018373D01*
X001420Y018274D02*
X001715Y018274D01*
X001888Y018176D02*
X001248Y018176D01*
X000888Y018176D02*
X000360Y018176D01*
X000360Y018274D02*
X000715Y018274D01*
X000617Y018373D02*
X000360Y018373D01*
X000360Y018471D02*
X000572Y018471D01*
X000531Y018570D02*
X000360Y018570D01*
X000360Y018668D02*
X000528Y018668D01*
X000528Y018767D02*
X000360Y018767D01*
X000360Y018865D02*
X000558Y018865D01*
X000598Y018964D02*
X000360Y018964D01*
X000360Y019062D02*
X000681Y019062D01*
X000804Y019161D02*
X000360Y019161D01*
X000360Y019259D02*
X008940Y019259D01*
X008940Y019161D02*
X008329Y019161D01*
X008502Y019062D02*
X008940Y019062D01*
X008940Y018964D02*
X008600Y018964D01*
X008646Y018865D02*
X008940Y018865D01*
X008940Y018767D02*
X008687Y018767D01*
X008690Y018668D02*
X008940Y018668D01*
X008940Y018570D02*
X008690Y018570D01*
X008661Y018471D02*
X008940Y018471D01*
X008940Y018373D02*
X008620Y018373D01*
X008538Y018274D02*
X008940Y018274D01*
X008940Y018176D02*
X008417Y018176D01*
X008370Y018077D02*
X008940Y018077D01*
X008940Y017979D02*
X008370Y017979D01*
X008370Y017880D02*
X008940Y017880D01*
X008940Y017782D02*
X008370Y017782D01*
X008370Y017683D02*
X008940Y017683D01*
X008940Y017585D02*
X008370Y017585D01*
X008370Y017486D02*
X008940Y017486D01*
X008940Y017388D02*
X008370Y017388D01*
X008370Y017289D02*
X008940Y017289D01*
X008940Y017191D02*
X008370Y017191D01*
X008370Y017092D02*
X008940Y017092D01*
X008940Y016994D02*
X008370Y016994D01*
X008370Y016895D02*
X008940Y016895D01*
X008940Y016797D02*
X008370Y016797D01*
X008370Y016698D02*
X008940Y016698D01*
X008940Y016600D02*
X008370Y016600D01*
X008370Y016501D02*
X008940Y016501D01*
X008940Y016403D02*
X008370Y016403D01*
X008370Y016304D02*
X008940Y016304D01*
X008940Y016206D02*
X008370Y016206D01*
X008370Y016107D02*
X008940Y016107D01*
X008940Y016009D02*
X008370Y016009D01*
X008370Y015910D02*
X008940Y015910D01*
X008940Y015812D02*
X008370Y015812D01*
X008370Y015713D02*
X008940Y015713D01*
X008940Y015615D02*
X008370Y015615D01*
X008370Y015516D02*
X008940Y015516D01*
X008940Y015418D02*
X008370Y015418D01*
X008370Y015319D02*
X008940Y015319D01*
X008940Y015221D02*
X008370Y015221D01*
X008370Y015122D02*
X008940Y015122D01*
X008940Y015024D02*
X008370Y015024D01*
X008370Y014925D02*
X008940Y014925D01*
X008940Y014827D02*
X008370Y014827D01*
X008370Y014728D02*
X008940Y014728D01*
X008940Y014630D02*
X008370Y014630D01*
X008370Y014531D02*
X008940Y014531D01*
X008940Y014433D02*
X008370Y014433D01*
X008370Y014334D02*
X008940Y014334D01*
X008940Y014236D02*
X008297Y014236D01*
X008198Y014137D02*
X008940Y014137D01*
X008940Y014039D02*
X008100Y014039D01*
X008001Y013940D02*
X008940Y013940D01*
X008940Y013842D02*
X007903Y013842D01*
X007804Y013743D02*
X008940Y013743D01*
X008940Y013645D02*
X007706Y013645D01*
X007607Y013546D02*
X008940Y013546D01*
X008940Y013448D02*
X007509Y013448D01*
X007410Y013349D02*
X008940Y013349D01*
X008940Y013251D02*
X007312Y013251D01*
X007213Y013152D02*
X008940Y013152D01*
X008940Y013054D02*
X007115Y013054D01*
X007016Y012955D02*
X008940Y012955D01*
X008940Y012857D02*
X006918Y012857D01*
X006870Y012758D02*
X008940Y012758D01*
X008940Y012660D02*
X006870Y012660D01*
X006870Y012561D02*
X008940Y012561D01*
X008940Y012463D02*
X006870Y012463D01*
X006870Y012364D02*
X008940Y012364D01*
X008940Y012266D02*
X006870Y012266D01*
X006870Y012167D02*
X008940Y012167D01*
X008940Y012069D02*
X006870Y012069D01*
X006870Y011970D02*
X008940Y011970D01*
X008940Y011872D02*
X006870Y011872D01*
X006870Y011773D02*
X008940Y011773D01*
X008940Y011675D02*
X006870Y011675D01*
X006870Y011576D02*
X008940Y011576D01*
X008940Y011478D02*
X006870Y011478D01*
X006870Y011379D02*
X008940Y011379D01*
X008940Y011281D02*
X006870Y011281D01*
X006870Y011182D02*
X008940Y011182D01*
X008940Y011084D02*
X006870Y011084D01*
X006870Y010985D02*
X008940Y010985D01*
X008940Y010887D02*
X006870Y010887D01*
X006870Y010788D02*
X008940Y010788D01*
X008940Y010690D02*
X006870Y010690D01*
X006870Y010591D02*
X008940Y010591D01*
X008940Y010493D02*
X006870Y010493D01*
X006870Y010394D02*
X008940Y010394D01*
X008940Y010296D02*
X006870Y010296D01*
X006870Y010197D02*
X008940Y010197D01*
X008940Y010099D02*
X006870Y010099D01*
X006870Y010000D02*
X008940Y010000D01*
X008940Y009902D02*
X006870Y009902D01*
X006870Y009803D02*
X008940Y009803D01*
X008940Y009705D02*
X006870Y009705D01*
X006870Y009606D02*
X008940Y009606D01*
X008940Y009508D02*
X006870Y009508D01*
X006870Y009409D02*
X008940Y009409D01*
X008940Y009311D02*
X006870Y009311D01*
X006870Y009212D02*
X008940Y009212D01*
X008940Y009114D02*
X006870Y009114D01*
X006870Y009015D02*
X008940Y009015D01*
X008940Y008917D02*
X006870Y008917D01*
X006870Y008818D02*
X007011Y008818D01*
X007289Y008818D02*
X008011Y008818D01*
X008064Y008840D02*
X007906Y008775D01*
X007785Y008654D01*
X007720Y008496D01*
X007720Y007804D01*
X007785Y007646D01*
X007906Y007525D01*
X008064Y007460D01*
X008236Y007460D01*
X008394Y007525D01*
X008515Y007646D01*
X008580Y007804D01*
X008580Y008496D01*
X008515Y008654D01*
X008394Y008775D01*
X008236Y008840D01*
X008064Y008840D01*
X008289Y008818D02*
X008940Y008818D01*
X008940Y008720D02*
X008449Y008720D01*
X008528Y008621D02*
X008940Y008621D01*
X008940Y008523D02*
X008569Y008523D01*
X008580Y008424D02*
X008940Y008424D01*
X008940Y008326D02*
X008580Y008326D01*
X008580Y008227D02*
X008940Y008227D01*
X008940Y008129D02*
X008580Y008129D01*
X008580Y008030D02*
X008940Y008030D01*
X008940Y007932D02*
X008580Y007932D01*
X008580Y007833D02*
X008940Y007833D01*
X008940Y007735D02*
X008551Y007735D01*
X008504Y007636D02*
X008940Y007636D01*
X008940Y007538D02*
X008406Y007538D01*
X007894Y007538D02*
X007406Y007538D01*
X007370Y007439D02*
X008940Y007439D01*
X008940Y007341D02*
X007370Y007341D01*
X007370Y007242D02*
X008940Y007242D01*
X008940Y007144D02*
X007370Y007144D01*
X007370Y007045D02*
X008940Y007045D01*
X008940Y006947D02*
X007370Y006947D01*
X007370Y006848D02*
X008940Y006848D01*
X008940Y006750D02*
X007370Y006750D01*
X007460Y006651D02*
X008940Y006651D01*
X008940Y006553D02*
X007559Y006553D01*
X007657Y006454D02*
X008940Y006454D01*
X008940Y006356D02*
X007756Y006356D01*
X007854Y006257D02*
X008940Y006257D01*
X008940Y006159D02*
X007953Y006159D01*
X007900Y005900D02*
X007150Y006650D01*
X007150Y008150D01*
X007449Y008720D02*
X007851Y008720D01*
X007772Y008621D02*
X007528Y008621D01*
X007569Y008523D02*
X007731Y008523D01*
X007720Y008424D02*
X007580Y008424D01*
X007580Y008326D02*
X007720Y008326D01*
X007720Y008227D02*
X007580Y008227D01*
X007580Y008129D02*
X007720Y008129D01*
X007720Y008030D02*
X007580Y008030D01*
X007580Y007932D02*
X007720Y007932D01*
X007720Y007833D02*
X007580Y007833D01*
X007551Y007735D02*
X007749Y007735D01*
X007796Y007636D02*
X007504Y007636D01*
X007035Y006454D02*
X006370Y006454D01*
X006370Y006356D02*
X007133Y006356D01*
X007232Y006257D02*
X006370Y006257D01*
X006370Y006159D02*
X007330Y006159D01*
X007429Y006060D02*
X006370Y006060D01*
X006370Y005962D02*
X007527Y005962D01*
X007626Y005863D02*
X006370Y005863D01*
X006370Y005784D02*
X006370Y006809D01*
X006741Y007180D01*
X006870Y007309D01*
X006870Y007562D01*
X006906Y007525D01*
X006930Y007516D01*
X006930Y006559D01*
X007809Y005680D01*
X007812Y005680D01*
X007785Y005654D01*
X007720Y005496D01*
X007720Y004804D01*
X007785Y004646D01*
X007906Y004525D01*
X007930Y004516D01*
X007930Y003991D01*
X007451Y003512D01*
X007396Y003552D01*
X007330Y003586D01*
X007260Y003608D01*
X007189Y003620D01*
X007189Y003189D01*
X007111Y003189D01*
X007111Y003620D01*
X007040Y003608D01*
X006970Y003586D01*
X006904Y003552D01*
X006844Y003508D01*
X006792Y003456D01*
X006748Y003396D01*
X006714Y003330D01*
X006692Y003260D01*
X006680Y003189D01*
X007111Y003189D01*
X007111Y003111D01*
X007189Y003111D01*
X007189Y002680D01*
X007260Y002692D01*
X007330Y002714D01*
X007396Y002748D01*
X007430Y002772D01*
X007430Y002563D01*
X007428Y002565D01*
X007247Y002640D01*
X007053Y002640D01*
X006872Y002565D01*
X006735Y002428D01*
X006711Y002370D01*
X006309Y002370D01*
X006180Y002241D01*
X005809Y001870D01*
X005637Y001870D01*
X005603Y001953D01*
X005453Y002103D01*
X005339Y002150D01*
X005453Y002197D01*
X005603Y002347D01*
X005684Y002544D01*
X005684Y002756D01*
X005603Y002953D01*
X005453Y003103D01*
X005256Y003184D01*
X005044Y003184D01*
X004847Y003103D01*
X004697Y002953D01*
X004650Y002839D01*
X004603Y002953D01*
X004453Y003103D01*
X004256Y003184D01*
X004044Y003184D01*
X003847Y003103D01*
X003697Y002953D01*
X003650Y002839D01*
X003603Y002953D01*
X003558Y002997D01*
X004241Y003680D01*
X005241Y003680D01*
X005870Y004309D01*
X005870Y004562D01*
X005906Y004525D01*
X006064Y004460D01*
X006236Y004460D01*
X006394Y004525D01*
X006515Y004646D01*
X006580Y004804D01*
X006580Y005496D01*
X006515Y005654D01*
X006394Y005775D01*
X006370Y005784D01*
X006404Y005765D02*
X006896Y005765D01*
X006906Y005775D02*
X006785Y005654D01*
X006720Y005496D01*
X006720Y004804D01*
X006785Y004646D01*
X006906Y004525D01*
X007064Y004460D01*
X007236Y004460D01*
X007394Y004525D01*
X007515Y004646D01*
X007580Y004804D01*
X007580Y005496D01*
X007515Y005654D01*
X007394Y005775D01*
X007236Y005840D01*
X007064Y005840D01*
X006906Y005775D01*
X006798Y005666D02*
X006502Y005666D01*
X006550Y005568D02*
X006750Y005568D01*
X006720Y005469D02*
X006580Y005469D01*
X006580Y005371D02*
X006720Y005371D01*
X006720Y005272D02*
X006580Y005272D01*
X006580Y005174D02*
X006720Y005174D01*
X006720Y005075D02*
X006580Y005075D01*
X006580Y004977D02*
X006720Y004977D01*
X006720Y004878D02*
X006580Y004878D01*
X006570Y004780D02*
X006730Y004780D01*
X006771Y004681D02*
X006529Y004681D01*
X006451Y004583D02*
X006849Y004583D01*
X007006Y004484D02*
X006293Y004484D01*
X006006Y004484D02*
X005870Y004484D01*
X005870Y004386D02*
X007930Y004386D01*
X007930Y004484D02*
X007293Y004484D01*
X007451Y004583D02*
X007849Y004583D01*
X007771Y004681D02*
X007529Y004681D01*
X007570Y004780D02*
X007730Y004780D01*
X007720Y004878D02*
X007580Y004878D01*
X007580Y004977D02*
X007720Y004977D01*
X007720Y005075D02*
X007580Y005075D01*
X007580Y005174D02*
X007720Y005174D01*
X007720Y005272D02*
X007580Y005272D01*
X007580Y005371D02*
X007720Y005371D01*
X007720Y005469D02*
X007580Y005469D01*
X007550Y005568D02*
X007750Y005568D01*
X007798Y005666D02*
X007502Y005666D01*
X007404Y005765D02*
X007724Y005765D01*
X007900Y005900D02*
X008400Y005900D01*
X008650Y005650D01*
X008650Y002650D01*
X008150Y002150D01*
X007679Y001679D01*
X007609Y001650D02*
X006900Y001650D01*
X006429Y001179D01*
X006359Y001150D02*
X004400Y001150D01*
X004179Y001371D01*
X004150Y001441D02*
X004150Y001650D01*
X004150Y001441D02*
X004152Y001421D01*
X004158Y001403D01*
X004167Y001385D01*
X004179Y001370D01*
X004202Y001037D02*
X000360Y001037D01*
X000360Y001135D02*
X002997Y001135D01*
X002811Y001234D02*
X002452Y001234D01*
X002555Y001332D02*
X002713Y001332D01*
X002663Y001431D02*
X002615Y001431D01*
X002576Y000820D02*
X002406Y000820D01*
X002324Y000820D01*
X002303Y000799D01*
X002281Y000820D01*
X002110Y000820D01*
X002030Y000820D01*
X002030Y000820D01*
X002030Y000820D01*
X001985Y000775D01*
X001985Y000775D01*
X001935Y000725D01*
X001839Y000820D01*
X001668Y000820D01*
X001588Y000820D01*
X001588Y000820D01*
X001588Y000820D01*
X001566Y000799D01*
X001545Y000820D01*
X001375Y000820D01*
X001293Y000820D01*
X001249Y000776D01*
X001205Y000820D01*
X001043Y000820D01*
X000954Y000731D01*
X000950Y000736D01*
X000865Y000820D01*
X000704Y000820D01*
X000647Y000764D01*
X000590Y000706D01*
X000590Y000616D01*
X000544Y000571D01*
X000544Y000409D01*
X000590Y000364D01*
X000590Y000360D01*
X000360Y000360D01*
X000360Y019440D01*
X008940Y019440D01*
X008940Y000360D01*
X003472Y000360D01*
X003472Y000436D01*
X003440Y000468D01*
X003472Y000499D01*
X003472Y000661D01*
X003313Y000820D01*
X003141Y000820D01*
X003061Y000820D01*
X003039Y000799D01*
X003018Y000820D01*
X002848Y000820D01*
X002766Y000820D01*
X002721Y000775D01*
X002671Y000725D01*
X002576Y000820D01*
X002655Y000741D02*
X002687Y000741D01*
X002721Y000775D02*
X002721Y000775D01*
X002766Y000820D02*
X002766Y000820D01*
X002766Y000820D01*
X003061Y000820D02*
X003061Y000820D01*
X003061Y000820D01*
X003303Y001135D02*
X003997Y001135D01*
X003811Y001234D02*
X003489Y001234D01*
X003587Y001332D02*
X003713Y001332D01*
X003663Y001431D02*
X003637Y001431D01*
X003392Y000741D02*
X006866Y000741D01*
X006768Y000840D02*
X000360Y000840D01*
X000360Y000938D02*
X004301Y000938D01*
X003472Y000643D02*
X008940Y000643D01*
X008940Y000741D02*
X008434Y000741D01*
X008532Y000840D02*
X008940Y000840D01*
X008940Y000938D02*
X008593Y000938D01*
X008633Y001037D02*
X008940Y001037D01*
X008940Y001135D02*
X008640Y001135D01*
X008640Y001234D02*
X008940Y001234D01*
X008940Y001332D02*
X008605Y001332D01*
X008562Y001431D02*
X008940Y001431D01*
X008940Y001529D02*
X008464Y001529D01*
X008407Y001726D02*
X008940Y001726D01*
X008940Y001628D02*
X008278Y001628D01*
X008517Y001825D02*
X008940Y001825D01*
X008940Y001923D02*
X008586Y001923D01*
X008627Y002022D02*
X008940Y002022D01*
X008940Y002120D02*
X008640Y002120D01*
X008640Y002219D02*
X008940Y002219D01*
X008940Y002317D02*
X008628Y002317D01*
X008727Y002416D02*
X008940Y002416D01*
X008940Y002514D02*
X008825Y002514D01*
X008870Y002613D02*
X008940Y002613D01*
X008940Y002711D02*
X008870Y002711D01*
X008870Y002810D02*
X008940Y002810D01*
X008940Y002908D02*
X008870Y002908D01*
X008870Y003007D02*
X008940Y003007D01*
X008940Y003105D02*
X008870Y003105D01*
X008870Y003204D02*
X008940Y003204D01*
X008940Y003302D02*
X008870Y003302D01*
X008870Y003401D02*
X008940Y003401D01*
X008940Y003499D02*
X008870Y003499D01*
X008870Y003598D02*
X008940Y003598D01*
X008940Y003696D02*
X008870Y003696D01*
X008870Y003795D02*
X008940Y003795D01*
X008940Y003893D02*
X008870Y003893D01*
X008870Y003992D02*
X008940Y003992D01*
X008940Y004090D02*
X008870Y004090D01*
X008870Y004189D02*
X008940Y004189D01*
X008940Y004287D02*
X008870Y004287D01*
X008870Y004386D02*
X008940Y004386D01*
X008940Y004484D02*
X008870Y004484D01*
X008870Y004583D02*
X008940Y004583D01*
X008940Y004681D02*
X008870Y004681D01*
X008870Y004780D02*
X008940Y004780D01*
X008940Y004878D02*
X008870Y004878D01*
X008870Y004977D02*
X008940Y004977D01*
X008940Y005075D02*
X008870Y005075D01*
X008870Y005174D02*
X008940Y005174D01*
X008940Y005272D02*
X008870Y005272D01*
X008870Y005371D02*
X008940Y005371D01*
X008940Y005469D02*
X008870Y005469D01*
X008870Y005568D02*
X008940Y005568D01*
X008940Y005666D02*
X008870Y005666D01*
X008847Y005765D02*
X008940Y005765D01*
X008940Y005863D02*
X008748Y005863D01*
X008650Y005962D02*
X008940Y005962D01*
X008940Y006060D02*
X008551Y006060D01*
X008150Y005150D02*
X008150Y003900D01*
X007650Y003400D01*
X007650Y002400D01*
X007429Y002179D01*
X007359Y002150D02*
X007150Y002150D01*
X006400Y002150D01*
X005929Y001679D01*
X005859Y001650D02*
X005150Y001650D01*
X005411Y002120D02*
X006059Y002120D01*
X006157Y002219D02*
X005474Y002219D01*
X005572Y002317D02*
X006256Y002317D01*
X005960Y002022D02*
X005534Y002022D01*
X005615Y001923D02*
X005862Y001923D01*
X005930Y001679D02*
X005915Y001667D01*
X005897Y001658D01*
X005879Y001652D01*
X005859Y001650D01*
X005631Y002416D02*
X006730Y002416D01*
X006821Y002514D02*
X005672Y002514D01*
X005684Y002613D02*
X006986Y002613D01*
X007040Y002692D02*
X006970Y002714D01*
X006904Y002748D01*
X006844Y002792D01*
X006792Y002844D01*
X006748Y002904D01*
X006714Y002970D01*
X006692Y003040D01*
X006680Y003111D01*
X007111Y003111D01*
X007111Y002680D01*
X007040Y002692D01*
X006980Y002711D02*
X005684Y002711D01*
X005662Y002810D02*
X006826Y002810D01*
X006746Y002908D02*
X005621Y002908D01*
X005549Y003007D02*
X006702Y003007D01*
X006681Y003105D02*
X005447Y003105D01*
X005257Y003696D02*
X007635Y003696D01*
X007733Y003795D02*
X005356Y003795D01*
X005454Y003893D02*
X007832Y003893D01*
X007930Y003992D02*
X005553Y003992D01*
X005651Y004090D02*
X007930Y004090D01*
X007930Y004189D02*
X005750Y004189D01*
X005848Y004287D02*
X007930Y004287D01*
X007536Y003598D02*
X007294Y003598D01*
X007189Y003598D02*
X007111Y003598D01*
X007111Y003499D02*
X007189Y003499D01*
X007189Y003401D02*
X007111Y003401D01*
X007111Y003302D02*
X007189Y003302D01*
X007189Y003204D02*
X007111Y003204D01*
X007111Y003105D02*
X007189Y003105D01*
X007189Y003007D02*
X007111Y003007D01*
X007111Y002908D02*
X007189Y002908D01*
X007189Y002810D02*
X007111Y002810D01*
X007111Y002711D02*
X007189Y002711D01*
X007320Y002711D02*
X007430Y002711D01*
X007430Y002613D02*
X007314Y002613D01*
X007430Y002179D02*
X007415Y002167D01*
X007397Y002158D01*
X007379Y002152D01*
X007359Y002150D01*
X007609Y001650D02*
X007629Y001652D01*
X007647Y001658D01*
X007665Y001667D01*
X007680Y001679D01*
X007700Y001431D02*
X007738Y001431D01*
X007695Y001332D02*
X007605Y001332D01*
X007640Y001234D02*
X007660Y001234D01*
X007660Y001135D02*
X007640Y001135D01*
X007633Y001037D02*
X007667Y001037D01*
X007707Y000938D02*
X007593Y000938D01*
X007532Y000840D02*
X007768Y000840D01*
X007866Y000741D02*
X007434Y000741D01*
X007939Y001628D02*
X008022Y001628D01*
X008940Y000544D02*
X003472Y000544D01*
X003462Y000446D02*
X008940Y000446D01*
X007006Y003598D02*
X004159Y003598D01*
X004060Y003499D02*
X006834Y003499D01*
X006751Y003401D02*
X003962Y003401D01*
X003863Y003302D02*
X006705Y003302D01*
X006683Y003204D02*
X003765Y003204D01*
X003853Y003105D02*
X003666Y003105D01*
X003751Y003007D02*
X003568Y003007D01*
X003621Y002908D02*
X003679Y002908D01*
X003179Y002930D02*
X003167Y002915D01*
X003158Y002897D01*
X003152Y002879D01*
X003150Y002859D01*
X003150Y002650D01*
X003179Y002929D02*
X004150Y003900D01*
X005150Y003900D01*
X005650Y004400D01*
X005650Y006859D01*
X005679Y006929D02*
X006150Y007400D01*
X006150Y008150D01*
X006011Y008818D02*
X005793Y008818D01*
X005695Y008917D02*
X006430Y008917D01*
X006430Y009015D02*
X005596Y009015D01*
X005649Y008962D02*
X005649Y008962D01*
X005429Y008871D02*
X005650Y008650D01*
X005650Y007441D01*
X005621Y007371D02*
X005150Y006900D01*
X005150Y005150D01*
X004785Y004646D02*
X004906Y004525D01*
X005064Y004460D01*
X005236Y004460D01*
X005394Y004525D01*
X005430Y004562D01*
X005430Y004491D01*
X005059Y004120D01*
X004059Y004120D01*
X003930Y003991D01*
X003870Y003931D01*
X003870Y004562D01*
X003906Y004525D01*
X004064Y004460D01*
X004236Y004460D01*
X004394Y004525D01*
X004515Y004646D01*
X004580Y004804D01*
X004580Y005496D01*
X004515Y005654D01*
X004394Y005775D01*
X004236Y005840D01*
X004064Y005840D01*
X003906Y005775D01*
X003870Y005738D01*
X003870Y005809D01*
X004930Y006869D01*
X004930Y005784D01*
X004906Y005775D01*
X004785Y005654D01*
X004720Y005496D01*
X004720Y004804D01*
X004785Y004646D01*
X004771Y004681D02*
X004529Y004681D01*
X004570Y004780D02*
X004730Y004780D01*
X004720Y004878D02*
X004580Y004878D01*
X004580Y004977D02*
X004720Y004977D01*
X004720Y005075D02*
X004580Y005075D01*
X004580Y005174D02*
X004720Y005174D01*
X004720Y005272D02*
X004580Y005272D01*
X004580Y005371D02*
X004720Y005371D01*
X004720Y005469D02*
X004580Y005469D01*
X004550Y005568D02*
X004750Y005568D01*
X004798Y005666D02*
X004502Y005666D01*
X004404Y005765D02*
X004896Y005765D01*
X004930Y005863D02*
X003924Y005863D01*
X003896Y005765D02*
X003870Y005765D01*
X003650Y005859D02*
X003652Y005879D01*
X003658Y005897D01*
X003667Y005915D01*
X003679Y005930D01*
X003679Y005929D02*
X005150Y007400D01*
X005150Y008150D01*
X004785Y007646D02*
X004906Y007525D01*
X004930Y007516D01*
X004930Y007491D01*
X003588Y006149D01*
X003533Y006094D01*
X003459Y006020D01*
X003459Y005993D01*
X003449Y005969D01*
X003430Y005950D01*
X003430Y005738D01*
X003394Y005775D01*
X003370Y005784D01*
X003370Y006950D01*
X003351Y006969D01*
X003341Y006993D01*
X003341Y007020D01*
X003271Y007090D01*
X003212Y007149D01*
X002870Y007491D01*
X002870Y007562D01*
X002906Y007525D01*
X003064Y007460D01*
X003236Y007460D01*
X003394Y007525D01*
X003515Y007646D01*
X003580Y007804D01*
X003580Y008496D01*
X003515Y008654D01*
X003394Y008775D01*
X003236Y008840D01*
X003064Y008840D01*
X002906Y008775D01*
X002870Y008738D01*
X002870Y011214D01*
X002870Y011213D01*
X002930Y011153D01*
X002930Y010100D01*
X002949Y010081D01*
X002959Y010057D01*
X002959Y010030D01*
X003026Y009963D01*
X003088Y009901D01*
X003088Y009901D01*
X004149Y008840D01*
X004064Y008840D01*
X003906Y008775D01*
X003785Y008654D01*
X003720Y008496D01*
X003720Y007804D01*
X003785Y007646D01*
X003906Y007525D01*
X004064Y007460D01*
X004236Y007460D01*
X004394Y007525D01*
X004515Y007646D01*
X004580Y007804D01*
X004580Y008496D01*
X004515Y008654D01*
X004488Y008680D01*
X004812Y008680D01*
X004785Y008654D01*
X004720Y008496D01*
X004720Y007804D01*
X004785Y007646D01*
X004796Y007636D02*
X004504Y007636D01*
X004551Y007735D02*
X004749Y007735D01*
X004720Y007833D02*
X004580Y007833D01*
X004580Y007932D02*
X004720Y007932D01*
X004720Y008030D02*
X004580Y008030D01*
X004580Y008129D02*
X004720Y008129D01*
X004720Y008227D02*
X004580Y008227D01*
X004580Y008326D02*
X004720Y008326D01*
X004720Y008424D02*
X004580Y008424D01*
X004569Y008523D02*
X004731Y008523D01*
X004772Y008621D02*
X004528Y008621D01*
X004400Y008900D02*
X005359Y008900D01*
X005379Y008898D01*
X005397Y008892D01*
X005415Y008883D01*
X005430Y008871D01*
X005456Y009114D02*
X006430Y009114D01*
X006430Y009212D02*
X004399Y009212D01*
X004336Y009306D02*
X004540Y009222D01*
X004760Y009222D01*
X004964Y009306D01*
X005120Y009462D01*
X005204Y009666D01*
X005204Y009886D01*
X005120Y010090D01*
X004964Y010246D01*
X004760Y010330D01*
X004540Y010330D01*
X004336Y010246D01*
X004180Y010090D01*
X004096Y009886D01*
X004096Y009666D01*
X004180Y009462D01*
X004336Y009306D01*
X004332Y009311D02*
X004301Y009311D01*
X004234Y009409D02*
X004202Y009409D01*
X004162Y009508D02*
X004104Y009508D01*
X004121Y009606D02*
X004005Y009606D01*
X004096Y009705D02*
X003907Y009705D01*
X003808Y009803D02*
X004096Y009803D01*
X004103Y009902D02*
X003710Y009902D01*
X003611Y010000D02*
X004143Y010000D01*
X004189Y010099D02*
X003513Y010099D01*
X003414Y010197D02*
X004288Y010197D01*
X004457Y010296D02*
X003370Y010296D01*
X003370Y010394D02*
X006430Y010394D01*
X006430Y010296D02*
X004843Y010296D01*
X005012Y010197D02*
X006430Y010197D01*
X006430Y010099D02*
X005111Y010099D01*
X005157Y010000D02*
X006430Y010000D01*
X006430Y009902D02*
X005197Y009902D01*
X005204Y009803D02*
X006430Y009803D01*
X006430Y009705D02*
X005204Y009705D01*
X005179Y009606D02*
X006430Y009606D01*
X006430Y009508D02*
X005138Y009508D01*
X005066Y009409D02*
X006430Y009409D01*
X006430Y009311D02*
X004968Y009311D01*
X004400Y008900D02*
X003179Y010121D01*
X003150Y010191D02*
X003150Y011400D01*
X003399Y011182D02*
X006430Y011182D01*
X006430Y011084D02*
X003370Y011084D01*
X003370Y010985D02*
X006430Y010985D01*
X006430Y010887D02*
X003370Y010887D01*
X003370Y010788D02*
X006430Y010788D01*
X006430Y010690D02*
X003370Y010690D01*
X003370Y010591D02*
X006430Y010591D01*
X006430Y010493D02*
X003370Y010493D01*
X003150Y010191D02*
X003152Y010171D01*
X003158Y010153D01*
X003167Y010135D01*
X003179Y010120D01*
X003087Y009902D02*
X002870Y009902D01*
X002870Y010000D02*
X002989Y010000D01*
X002932Y010099D02*
X002870Y010099D01*
X002870Y010197D02*
X002930Y010197D01*
X002930Y010296D02*
X002870Y010296D01*
X002870Y010394D02*
X002930Y010394D01*
X002930Y010493D02*
X002870Y010493D01*
X002870Y010591D02*
X002930Y010591D01*
X002930Y010690D02*
X002870Y010690D01*
X002870Y010788D02*
X002930Y010788D01*
X002930Y010887D02*
X002870Y010887D01*
X002870Y010985D02*
X002930Y010985D01*
X002930Y011084D02*
X002870Y011084D01*
X002870Y011182D02*
X002901Y011182D01*
X002870Y011675D02*
X002958Y011675D01*
X002870Y011773D02*
X006430Y011773D01*
X006430Y011675D02*
X003342Y011675D01*
X003434Y011576D02*
X006430Y011576D01*
X006430Y011478D02*
X003475Y011478D01*
X003480Y011379D02*
X006430Y011379D01*
X006430Y011281D02*
X003458Y011281D01*
X002870Y011872D02*
X006430Y011872D01*
X006430Y011970D02*
X002870Y011970D01*
X002870Y012069D02*
X006430Y012069D01*
X006430Y012167D02*
X002870Y012167D01*
X002870Y012266D02*
X006430Y012266D01*
X006430Y012364D02*
X002870Y012364D01*
X002870Y012463D02*
X006430Y012463D01*
X006430Y012561D02*
X002870Y012561D01*
X002870Y012660D02*
X006430Y012660D01*
X006430Y012758D02*
X002870Y012758D01*
X002870Y012857D02*
X006430Y012857D01*
X006435Y012955D02*
X002870Y012955D01*
X002870Y013054D02*
X006492Y013054D01*
X006588Y013149D02*
X006588Y013149D01*
X006591Y013152D02*
X002870Y013152D01*
X002870Y013251D02*
X006689Y013251D01*
X006788Y013349D02*
X002870Y013349D01*
X002870Y013448D02*
X006886Y013448D01*
X006985Y013546D02*
X002870Y013546D01*
X002870Y013645D02*
X007083Y013645D01*
X007182Y013743D02*
X002870Y013743D01*
X002870Y013842D02*
X007280Y013842D01*
X007379Y013940D02*
X002870Y013940D01*
X002870Y014039D02*
X007477Y014039D01*
X007576Y014137D02*
X002870Y014137D01*
X002870Y014236D02*
X007674Y014236D01*
X007773Y014334D02*
X002870Y014334D01*
X002870Y014433D02*
X007871Y014433D01*
X007930Y014531D02*
X002870Y014531D01*
X002870Y014630D02*
X007930Y014630D01*
X007930Y014728D02*
X002870Y014728D01*
X002870Y014827D02*
X007930Y014827D01*
X007930Y014925D02*
X002870Y014925D01*
X002870Y015024D02*
X007930Y015024D01*
X007930Y015122D02*
X002870Y015122D01*
X002870Y015221D02*
X007930Y015221D01*
X007930Y015319D02*
X002870Y015319D01*
X002870Y015418D02*
X007930Y015418D01*
X007930Y015516D02*
X002870Y015516D01*
X002870Y015615D02*
X007930Y015615D01*
X007930Y015713D02*
X002870Y015713D01*
X002870Y015812D02*
X007930Y015812D01*
X007930Y015910D02*
X002870Y015910D01*
X002870Y016009D02*
X007930Y016009D01*
X007930Y016107D02*
X002870Y016107D01*
X002870Y016206D02*
X007930Y016206D01*
X007930Y016304D02*
X002870Y016304D01*
X002870Y016403D02*
X007930Y016403D01*
X007930Y016501D02*
X002870Y016501D01*
X002870Y016600D02*
X007930Y016600D01*
X007930Y016698D02*
X002870Y016698D01*
X002870Y016797D02*
X007930Y016797D01*
X007930Y016895D02*
X002870Y016895D01*
X002870Y016994D02*
X007930Y016994D01*
X007930Y017092D02*
X002870Y017092D01*
X002870Y017782D02*
X004131Y017782D01*
X004168Y017880D02*
X002870Y017880D01*
X002870Y017979D02*
X004229Y017979D01*
X004330Y018077D02*
X002870Y018077D01*
X002849Y018176D02*
X004556Y018176D01*
X004970Y018077D02*
X007930Y018077D01*
X007930Y017979D02*
X005071Y017979D01*
X005132Y017880D02*
X007930Y017880D01*
X007930Y017782D02*
X005169Y017782D01*
X006632Y018700D02*
X007100Y018700D01*
X007100Y019168D01*
X007029Y019157D01*
X006951Y019132D01*
X006878Y019095D01*
X006812Y019046D01*
X006754Y018989D01*
X006706Y018922D01*
X006669Y018849D01*
X006643Y018772D01*
X006632Y018700D01*
X006643Y018767D02*
X002608Y018767D01*
X002578Y018865D02*
X006677Y018865D01*
X006736Y018964D02*
X002537Y018964D01*
X002455Y019062D02*
X006833Y019062D01*
X007051Y019161D02*
X002332Y019161D01*
X002266Y018176D02*
X002248Y018176D01*
X002365Y018077D02*
X000360Y018077D01*
X000360Y017979D02*
X002430Y017979D01*
X002430Y017880D02*
X000360Y017880D01*
X000360Y017782D02*
X002430Y017782D01*
X002430Y017683D02*
X000360Y017683D01*
X000360Y017585D02*
X002430Y017585D01*
X002430Y017486D02*
X000360Y017486D01*
X000360Y017388D02*
X002430Y017388D01*
X002430Y017289D02*
X000360Y017289D01*
X000360Y017191D02*
X002430Y017191D01*
X002430Y017092D02*
X000360Y017092D01*
X000360Y016994D02*
X002430Y016994D01*
X002430Y016895D02*
X000360Y016895D01*
X000360Y016797D02*
X002430Y016797D01*
X002430Y016698D02*
X000360Y016698D01*
X000360Y016600D02*
X002430Y016600D01*
X002430Y016501D02*
X000360Y016501D01*
X000360Y016403D02*
X002430Y016403D01*
X002430Y016304D02*
X000360Y016304D01*
X000360Y016206D02*
X002430Y016206D01*
X002430Y016107D02*
X000360Y016107D01*
X000360Y016009D02*
X002430Y016009D01*
X002430Y015910D02*
X000360Y015910D01*
X000360Y015812D02*
X002430Y015812D01*
X002430Y015713D02*
X000360Y015713D01*
X000360Y015615D02*
X002430Y015615D01*
X002430Y015516D02*
X000360Y015516D01*
X000360Y015418D02*
X002430Y015418D01*
X002430Y015319D02*
X000360Y015319D01*
X000360Y015221D02*
X002430Y015221D01*
X002430Y015122D02*
X000360Y015122D01*
X000360Y015024D02*
X002430Y015024D01*
X002430Y014925D02*
X000360Y014925D01*
X000360Y014827D02*
X002430Y014827D01*
X002430Y014728D02*
X000360Y014728D01*
X000360Y014630D02*
X002430Y014630D01*
X002430Y014531D02*
X000360Y014531D01*
X000360Y014433D02*
X002430Y014433D01*
X002430Y014334D02*
X000360Y014334D01*
X000360Y014236D02*
X002430Y014236D01*
X002430Y014137D02*
X000360Y014137D01*
X000360Y014039D02*
X002430Y014039D01*
X002430Y013940D02*
X000360Y013940D01*
X000360Y013842D02*
X002430Y013842D01*
X002430Y013743D02*
X000360Y013743D01*
X000360Y013645D02*
X002430Y013645D01*
X002430Y013546D02*
X000360Y013546D01*
X000360Y013448D02*
X002430Y013448D01*
X002430Y013349D02*
X000360Y013349D01*
X000360Y013251D02*
X002430Y013251D01*
X002430Y013152D02*
X000360Y013152D01*
X000360Y013054D02*
X002430Y013054D01*
X002430Y012955D02*
X000360Y012955D01*
X000360Y012857D02*
X002430Y012857D01*
X002430Y012758D02*
X000360Y012758D01*
X000360Y012660D02*
X002430Y012660D01*
X002430Y012561D02*
X000360Y012561D01*
X000360Y012463D02*
X002430Y012463D01*
X002430Y012364D02*
X000360Y012364D01*
X000360Y012266D02*
X002430Y012266D01*
X002430Y012167D02*
X000360Y012167D01*
X000360Y012069D02*
X002430Y012069D01*
X002430Y011970D02*
X000360Y011970D01*
X000360Y011872D02*
X002430Y011872D01*
X002430Y011773D02*
X000360Y011773D01*
X000360Y011675D02*
X002430Y011675D01*
X002430Y011576D02*
X000360Y011576D01*
X000360Y011478D02*
X002430Y011478D01*
X002430Y011379D02*
X000360Y011379D01*
X000360Y011281D02*
X002430Y011281D01*
X002430Y011182D02*
X000360Y011182D01*
X000360Y011084D02*
X002430Y011084D01*
X002430Y010985D02*
X000360Y010985D01*
X000360Y010887D02*
X002430Y010887D01*
X002430Y010788D02*
X000360Y010788D01*
X000360Y010690D02*
X002430Y010690D01*
X002430Y010591D02*
X000360Y010591D01*
X000360Y010493D02*
X002430Y010493D01*
X002430Y010394D02*
X000360Y010394D01*
X000360Y010296D02*
X002430Y010296D01*
X002430Y010197D02*
X000360Y010197D01*
X000360Y010099D02*
X002430Y010099D01*
X002430Y010000D02*
X000360Y010000D01*
X000360Y009902D02*
X002430Y009902D01*
X002430Y009803D02*
X000360Y009803D01*
X000360Y009705D02*
X002430Y009705D01*
X002430Y009606D02*
X000360Y009606D01*
X000360Y009508D02*
X002430Y009508D01*
X002430Y009409D02*
X000360Y009409D01*
X000360Y009311D02*
X002430Y009311D01*
X002430Y009212D02*
X000360Y009212D01*
X000360Y009114D02*
X002430Y009114D01*
X002430Y009015D02*
X000360Y009015D01*
X000360Y008917D02*
X002430Y008917D01*
X002430Y008818D02*
X002195Y008818D01*
X002180Y008818D02*
X002120Y008818D01*
X002105Y008818D02*
X000360Y008818D01*
X000360Y008720D02*
X001880Y008720D01*
X001797Y008621D02*
X000360Y008621D01*
X000360Y008523D02*
X001755Y008523D01*
X001740Y008424D02*
X000360Y008424D01*
X000360Y008326D02*
X001740Y008326D01*
X001740Y008227D02*
X000360Y008227D01*
X000360Y008129D02*
X002120Y008129D01*
X002120Y008120D02*
X001740Y008120D01*
X001740Y007858D01*
X001750Y007794D01*
X001770Y007733D01*
X001799Y007675D01*
X001837Y007623D01*
X001883Y007577D01*
X001935Y007539D01*
X001993Y007510D01*
X002054Y007490D01*
X002118Y007480D01*
X002120Y007480D01*
X002120Y008120D01*
X002120Y008030D02*
X002180Y008030D01*
X002180Y007932D02*
X002120Y007932D01*
X002120Y007833D02*
X002180Y007833D01*
X002180Y007735D02*
X002120Y007735D01*
X002120Y007636D02*
X002180Y007636D01*
X002180Y007538D02*
X002120Y007538D01*
X001939Y007538D02*
X000360Y007538D01*
X000360Y007636D02*
X001828Y007636D01*
X001769Y007735D02*
X000360Y007735D01*
X000360Y007833D02*
X001744Y007833D01*
X001740Y007932D02*
X000360Y007932D01*
X000360Y008030D02*
X001740Y008030D01*
X002120Y008227D02*
X002180Y008227D01*
X002180Y008326D02*
X002120Y008326D01*
X002120Y008424D02*
X002180Y008424D01*
X002180Y008523D02*
X002120Y008523D01*
X002120Y008621D02*
X002180Y008621D01*
X002180Y008720D02*
X002120Y008720D01*
X002420Y008720D02*
X002430Y008720D01*
X002870Y008818D02*
X003011Y008818D01*
X002870Y008917D02*
X004072Y008917D01*
X004011Y008818D02*
X003289Y008818D01*
X003449Y008720D02*
X003851Y008720D01*
X003772Y008621D02*
X003528Y008621D01*
X003569Y008523D02*
X003731Y008523D01*
X003720Y008424D02*
X003580Y008424D01*
X003580Y008326D02*
X003720Y008326D01*
X003720Y008227D02*
X003580Y008227D01*
X003580Y008129D02*
X003720Y008129D01*
X003720Y008030D02*
X003580Y008030D01*
X003580Y007932D02*
X003720Y007932D01*
X003720Y007833D02*
X003580Y007833D01*
X003551Y007735D02*
X003749Y007735D01*
X003796Y007636D02*
X003504Y007636D01*
X003406Y007538D02*
X003894Y007538D01*
X004287Y006848D02*
X003370Y006848D01*
X003370Y006750D02*
X004188Y006750D01*
X004090Y006651D02*
X003370Y006651D01*
X003370Y006553D02*
X003991Y006553D01*
X003893Y006454D02*
X003370Y006454D01*
X003370Y006356D02*
X003794Y006356D01*
X003696Y006257D02*
X003370Y006257D01*
X003370Y006159D02*
X003597Y006159D01*
X003588Y006149D02*
X003588Y006149D01*
X003499Y006060D02*
X003370Y006060D01*
X003370Y005962D02*
X003442Y005962D01*
X003430Y005863D02*
X003370Y005863D01*
X003404Y005765D02*
X003430Y005765D01*
X003650Y005859D02*
X003650Y003900D01*
X002679Y002929D01*
X002650Y002859D02*
X002650Y002150D01*
X003150Y001650D01*
X002650Y002859D02*
X002652Y002879D01*
X002658Y002897D01*
X002667Y002915D01*
X002679Y002930D01*
X002588Y003149D02*
X002588Y003149D01*
X002544Y003105D02*
X002447Y003105D01*
X002642Y003204D02*
X000360Y003204D01*
X000360Y003302D02*
X002741Y003302D01*
X002839Y003401D02*
X000360Y003401D01*
X000360Y003499D02*
X002938Y003499D01*
X003036Y003598D02*
X000360Y003598D01*
X000360Y003696D02*
X003135Y003696D01*
X003233Y003795D02*
X000360Y003795D01*
X000360Y003893D02*
X003332Y003893D01*
X003430Y003992D02*
X000360Y003992D01*
X000360Y004090D02*
X003430Y004090D01*
X003430Y004189D02*
X000360Y004189D01*
X000360Y004287D02*
X003430Y004287D01*
X003430Y004386D02*
X000360Y004386D01*
X000360Y004484D02*
X002006Y004484D01*
X002064Y004460D02*
X002236Y004460D01*
X002394Y004525D01*
X002515Y004646D01*
X002580Y004804D01*
X002580Y005496D01*
X002515Y005654D01*
X002394Y005775D01*
X002236Y005840D01*
X002064Y005840D01*
X001906Y005775D01*
X001785Y005654D01*
X001720Y005496D01*
X001720Y004804D01*
X001785Y004646D01*
X001906Y004525D01*
X002064Y004460D01*
X001849Y004583D02*
X000360Y004583D01*
X000360Y004681D02*
X001771Y004681D01*
X001730Y004780D02*
X000360Y004780D01*
X000360Y004878D02*
X001720Y004878D01*
X001720Y004977D02*
X000360Y004977D01*
X000360Y005075D02*
X001720Y005075D01*
X001720Y005174D02*
X000360Y005174D01*
X000360Y005272D02*
X001720Y005272D01*
X001720Y005371D02*
X000360Y005371D01*
X000360Y005469D02*
X001720Y005469D01*
X001750Y005568D02*
X000360Y005568D01*
X000360Y005666D02*
X001798Y005666D01*
X001896Y005765D02*
X000360Y005765D01*
X000360Y005863D02*
X002930Y005863D01*
X002930Y005962D02*
X000360Y005962D01*
X000360Y006060D02*
X002930Y006060D01*
X002930Y006159D02*
X000360Y006159D01*
X000360Y006257D02*
X002930Y006257D01*
X002930Y006356D02*
X000360Y006356D01*
X000360Y006454D02*
X002930Y006454D01*
X002930Y006553D02*
X000360Y006553D01*
X000360Y006651D02*
X002930Y006651D01*
X002930Y006750D02*
X000360Y006750D01*
X000360Y006848D02*
X002891Y006848D01*
X002792Y006947D02*
X000360Y006947D01*
X000360Y007045D02*
X002694Y007045D01*
X002595Y007144D02*
X000360Y007144D01*
X000360Y007242D02*
X002497Y007242D01*
X002430Y007341D02*
X000360Y007341D01*
X000360Y007439D02*
X002430Y007439D01*
X002430Y007538D02*
X002361Y007538D01*
X002650Y007400D02*
X002650Y018062D01*
X002648Y018082D01*
X002642Y018100D01*
X002633Y018118D01*
X002621Y018133D01*
X000360Y019358D02*
X008940Y019358D01*
X008151Y018650D02*
X008150Y018650D01*
X008150Y018649D01*
X008150Y014400D01*
X006679Y012929D01*
X006650Y012859D02*
X006650Y007400D01*
X006179Y006929D01*
X006150Y006859D02*
X006150Y005150D01*
X005423Y004484D02*
X005293Y004484D01*
X005324Y004386D02*
X003870Y004386D01*
X003870Y004484D02*
X004006Y004484D01*
X003870Y004287D02*
X005226Y004287D01*
X005127Y004189D02*
X003870Y004189D01*
X003870Y004090D02*
X004029Y004090D01*
X003930Y003992D02*
X003870Y003992D01*
X003930Y003991D02*
X003930Y003991D01*
X004293Y004484D02*
X005006Y004484D01*
X004849Y004583D02*
X004451Y004583D01*
X004023Y005962D02*
X004930Y005962D01*
X004930Y006060D02*
X004121Y006060D01*
X004220Y006159D02*
X004930Y006159D01*
X004930Y006257D02*
X004318Y006257D01*
X004417Y006356D02*
X004930Y006356D01*
X004930Y006454D02*
X004515Y006454D01*
X004614Y006553D02*
X004930Y006553D01*
X004930Y006651D02*
X004712Y006651D01*
X004811Y006750D02*
X004930Y006750D01*
X004930Y006848D02*
X004909Y006848D01*
X004681Y007242D02*
X003119Y007242D01*
X003212Y007149D02*
X003212Y007149D01*
X003218Y007144D02*
X004582Y007144D01*
X004484Y007045D02*
X003316Y007045D01*
X003370Y006947D02*
X004385Y006947D01*
X004406Y007538D02*
X004894Y007538D01*
X004878Y007439D02*
X002922Y007439D01*
X002894Y007538D02*
X002870Y007538D01*
X003021Y007341D02*
X004779Y007341D01*
X005621Y007370D02*
X005633Y007385D01*
X005642Y007403D01*
X005648Y007421D01*
X005650Y007441D01*
X005679Y006930D02*
X005667Y006915D01*
X005658Y006897D01*
X005652Y006879D01*
X005650Y006859D01*
X006150Y006859D02*
X006152Y006879D01*
X006158Y006897D01*
X006167Y006915D01*
X006179Y006930D01*
X006409Y006848D02*
X006930Y006848D01*
X006930Y006750D02*
X006370Y006750D01*
X006370Y006651D02*
X006930Y006651D01*
X006936Y006553D02*
X006370Y006553D01*
X006508Y006947D02*
X006930Y006947D01*
X006930Y007045D02*
X006606Y007045D01*
X006705Y007144D02*
X006930Y007144D01*
X006930Y007242D02*
X006803Y007242D01*
X006870Y007341D02*
X006930Y007341D01*
X006930Y007439D02*
X006870Y007439D01*
X006870Y007538D02*
X006894Y007538D01*
X006430Y008818D02*
X006289Y008818D01*
X006650Y012859D02*
X006652Y012879D01*
X006658Y012897D01*
X006667Y012915D01*
X006679Y012930D01*
X007365Y018176D02*
X007884Y018176D01*
X007763Y018274D02*
X007510Y018274D01*
X007592Y018373D02*
X007681Y018373D01*
X007639Y018471D02*
X007640Y018471D01*
X007624Y018865D02*
X007655Y018865D01*
X007701Y018964D02*
X007565Y018964D01*
X007468Y019062D02*
X007799Y019062D01*
X007972Y019161D02*
X007250Y019161D01*
X007200Y019161D02*
X007100Y019161D01*
X007100Y019062D02*
X007200Y019062D01*
X007200Y018964D02*
X007100Y018964D01*
X007100Y018865D02*
X007200Y018865D01*
X007200Y018767D02*
X007100Y018767D01*
X003186Y009803D02*
X002870Y009803D01*
X002870Y009705D02*
X003284Y009705D01*
X003383Y009606D02*
X002870Y009606D01*
X002870Y009508D02*
X003481Y009508D01*
X003580Y009409D02*
X002870Y009409D01*
X002870Y009311D02*
X003678Y009311D01*
X003777Y009212D02*
X002870Y009212D01*
X002870Y009114D02*
X003875Y009114D01*
X003974Y009015D02*
X002870Y009015D01*
X002650Y007400D02*
X003121Y006929D01*
X003150Y006859D02*
X003150Y005150D01*
X002849Y004583D02*
X002451Y004583D01*
X002529Y004681D02*
X002771Y004681D01*
X002730Y004780D02*
X002570Y004780D01*
X002580Y004878D02*
X002720Y004878D01*
X002720Y004977D02*
X002580Y004977D01*
X002580Y005075D02*
X002720Y005075D01*
X002720Y005174D02*
X002580Y005174D01*
X002580Y005272D02*
X002720Y005272D01*
X002720Y005371D02*
X002580Y005371D01*
X002580Y005469D02*
X002720Y005469D01*
X002750Y005568D02*
X002550Y005568D01*
X002502Y005666D02*
X002798Y005666D01*
X002896Y005765D02*
X002404Y005765D01*
X002293Y004484D02*
X003006Y004484D01*
X003293Y004484D02*
X003430Y004484D01*
X004447Y003105D02*
X004853Y003105D01*
X004751Y003007D02*
X004549Y003007D01*
X004621Y002908D02*
X004679Y002908D01*
X006359Y001150D02*
X006379Y001152D01*
X006397Y001158D01*
X006415Y001167D01*
X006430Y001179D01*
X006458Y000938D02*
X006707Y000938D01*
X006667Y001037D02*
X006598Y001037D01*
X003150Y006859D02*
X003148Y006879D01*
X003142Y006897D01*
X003133Y006915D01*
X003121Y006930D01*
X001853Y003105D02*
X000360Y003105D01*
X000360Y003007D02*
X001751Y003007D01*
X001679Y002908D02*
X000360Y002908D01*
X000360Y002810D02*
X001638Y002810D01*
X001616Y002711D02*
X000360Y002711D01*
X000360Y002613D02*
X001616Y002613D01*
X001628Y002514D02*
X000360Y002514D01*
X000360Y002416D02*
X001669Y002416D01*
X001728Y002317D02*
X000360Y002317D01*
X000360Y002219D02*
X001826Y002219D01*
X001940Y002120D02*
X000360Y002120D01*
X000360Y002022D02*
X001794Y002022D01*
X001713Y001923D02*
X000360Y001923D01*
X000360Y001825D02*
X001666Y001825D01*
X001641Y001726D02*
X000360Y001726D01*
X000360Y001628D02*
X002111Y001628D01*
X002111Y001611D02*
X001636Y001611D01*
X001636Y001610D01*
X001648Y001530D01*
X001673Y001453D01*
X001710Y001381D01*
X001758Y001315D01*
X001815Y001258D01*
X001881Y001210D01*
X001953Y001173D01*
X002030Y001148D01*
X002110Y001136D01*
X002111Y001136D01*
X002111Y001611D01*
X002111Y001529D02*
X002189Y001529D01*
X002189Y001431D02*
X002111Y001431D01*
X002111Y001332D02*
X002189Y001332D01*
X002189Y001234D02*
X002111Y001234D01*
X002324Y000820D02*
X002324Y000820D01*
X002324Y000820D01*
X001950Y000741D02*
X001919Y000741D01*
X001848Y001234D02*
X000360Y001234D01*
X000360Y001332D02*
X001745Y001332D01*
X001685Y001431D02*
X000360Y001431D01*
X000360Y001529D02*
X001649Y001529D01*
X001293Y000820D02*
X001293Y000820D01*
X001293Y000820D01*
X000964Y000741D02*
X000945Y000741D01*
X000625Y000741D02*
X000360Y000741D01*
X000360Y000643D02*
X000590Y000643D01*
X000544Y000544D02*
X000360Y000544D01*
X000360Y000446D02*
X000544Y000446D01*
D18*
X001400Y002150D03*
X004400Y007150D03*
X003650Y008900D03*
X003150Y011400D03*
X005150Y011150D03*
X006650Y006400D03*
X007900Y006900D03*
X006150Y003150D03*
X004650Y004400D03*
X001150Y013150D03*
X001150Y016150D03*
X006150Y018150D03*
X008150Y013150D03*
M02*
