G75*
%MOIN*%
%OFA0B0*%
%FSLAX24Y24*%
%IPPOS*%
%LPD*%
%AMOC8*
5,1,8,0,0,1.08239X$1,22.5*
%
%ADD10C,0.0060*%
%ADD11C,0.0080*%
%ADD12C,0.0050*%
%ADD13C,0.0040*%
%ADD14C,0.0030*%
%ADD15C,0.0157*%
D10*
X001650Y005500D02*
X001650Y006250D01*
X001689Y006252D01*
X001728Y006258D01*
X001766Y006267D01*
X001803Y006280D01*
X001839Y006297D01*
X001872Y006317D01*
X001904Y006341D01*
X001933Y006367D01*
X001959Y006396D01*
X001983Y006428D01*
X002003Y006461D01*
X002020Y006497D01*
X002033Y006534D01*
X002042Y006572D01*
X002048Y006611D01*
X002050Y006650D01*
X002048Y006689D01*
X002042Y006728D01*
X002033Y006766D01*
X002020Y006803D01*
X002003Y006839D01*
X001983Y006872D01*
X001959Y006904D01*
X001933Y006933D01*
X001904Y006959D01*
X001872Y006983D01*
X001839Y007003D01*
X001803Y007020D01*
X001766Y007033D01*
X001728Y007042D01*
X001689Y007048D01*
X001650Y007050D01*
X001650Y007800D01*
X008650Y007800D01*
X008650Y005500D01*
X001650Y005500D01*
X000854Y008930D02*
X000520Y008930D01*
X000520Y009153D02*
X000854Y009153D01*
X000743Y009041D01*
X000854Y008930D01*
X000854Y009293D02*
X000854Y009404D01*
X000854Y009348D02*
X000632Y009348D01*
X000632Y009293D01*
X000520Y009348D02*
X000465Y009348D01*
X000632Y009534D02*
X000854Y009534D01*
X000799Y009836D02*
X000687Y009836D01*
X000632Y009892D01*
X000632Y010003D01*
X000687Y010059D01*
X000743Y010059D01*
X000743Y009836D01*
X000799Y009836D02*
X000854Y009892D01*
X000854Y010003D01*
X000854Y010199D02*
X000854Y010310D01*
X000854Y010254D02*
X000520Y010254D01*
X000520Y010199D01*
X000687Y010440D02*
X000632Y010496D01*
X000632Y010607D01*
X000687Y010663D01*
X000743Y010663D01*
X000743Y010440D01*
X000799Y010440D02*
X000687Y010440D01*
X000799Y010440D02*
X000854Y010496D01*
X000854Y010607D01*
X000854Y010803D02*
X000854Y010970D01*
X000799Y011026D01*
X000743Y010970D01*
X000743Y010859D01*
X000687Y010803D01*
X000632Y010859D01*
X000632Y011026D01*
X000687Y011166D02*
X000632Y011221D01*
X000632Y011388D01*
X000743Y011332D02*
X000743Y011221D01*
X000687Y011166D01*
X000743Y011332D02*
X000799Y011388D01*
X000854Y011332D01*
X000854Y011166D01*
X000854Y011891D02*
X000520Y011891D01*
X000520Y012058D01*
X000576Y012113D01*
X000632Y012113D01*
X000687Y012058D01*
X000687Y011891D01*
X000687Y012058D02*
X000743Y012113D01*
X000799Y012113D01*
X000854Y012058D01*
X000854Y011891D01*
X000799Y012253D02*
X000854Y012309D01*
X000854Y012476D01*
X000632Y012476D01*
X000632Y012616D02*
X000632Y012838D01*
X000854Y012616D01*
X000854Y012838D01*
X000854Y012978D02*
X000854Y013201D01*
X000799Y013341D02*
X000687Y013341D01*
X000632Y013396D01*
X000632Y013508D01*
X000687Y013563D01*
X000743Y013563D01*
X000743Y013341D01*
X000799Y013341D02*
X000854Y013396D01*
X000854Y013508D01*
X000854Y013703D02*
X000632Y013703D01*
X000743Y013703D02*
X000632Y013814D01*
X000632Y013870D01*
X000632Y014368D02*
X000854Y014479D01*
X000632Y014590D01*
X000576Y014730D02*
X000520Y014786D01*
X000520Y014897D01*
X000576Y014953D01*
X000632Y014953D01*
X000854Y014730D01*
X000854Y014953D01*
X000799Y015093D02*
X000854Y015148D01*
X000854Y015260D01*
X000799Y015315D01*
X000576Y015315D01*
X000799Y015093D01*
X000576Y015093D01*
X000520Y015148D01*
X000520Y015260D01*
X000576Y015315D01*
X000632Y013201D02*
X000854Y012978D01*
X000632Y012978D02*
X000632Y013201D01*
X000632Y012253D02*
X000799Y012253D01*
X000632Y009701D02*
X000632Y009646D01*
X000743Y009534D01*
D11*
X000150Y000150D02*
X009150Y000150D01*
X009150Y019650D01*
X000150Y019650D01*
X000150Y000150D01*
X001433Y009520D02*
X001433Y010760D01*
X002299Y010760D01*
X002299Y009520D02*
X001433Y009520D01*
X003047Y009540D02*
X003716Y009540D01*
X003874Y009678D01*
X003874Y010642D01*
X003716Y010760D01*
X003047Y010760D01*
X004098Y010860D02*
X004098Y010440D01*
X004309Y010440D01*
X004379Y010510D01*
X004379Y010580D01*
X004309Y010650D01*
X004098Y010650D01*
X004098Y010860D02*
X004309Y010860D01*
X004379Y010790D01*
X004379Y010720D01*
X004309Y010650D01*
X004559Y010650D02*
X004839Y010650D01*
X004839Y010720D02*
X004839Y010440D01*
X004839Y010720D02*
X004699Y010860D01*
X004559Y010720D01*
X004559Y010440D01*
X005019Y010860D02*
X005299Y010860D01*
X005159Y010860D02*
X005159Y010440D01*
X005480Y010650D02*
X005760Y010650D01*
X005620Y010790D02*
X005620Y010510D01*
X005044Y013930D02*
X004256Y013930D01*
X003961Y015150D02*
X003963Y015202D01*
X003969Y015254D01*
X003979Y015305D01*
X003992Y015355D01*
X004010Y015405D01*
X004031Y015452D01*
X004055Y015498D01*
X004084Y015542D01*
X004115Y015584D01*
X004149Y015623D01*
X004186Y015660D01*
X004226Y015693D01*
X004269Y015724D01*
X004313Y015751D01*
X004359Y015775D01*
X004408Y015795D01*
X004457Y015811D01*
X004508Y015824D01*
X004559Y015833D01*
X004611Y015838D01*
X004663Y015839D01*
X004715Y015836D01*
X004767Y015829D01*
X004818Y015818D01*
X004868Y015804D01*
X004917Y015785D01*
X004964Y015763D01*
X005009Y015738D01*
X005053Y015709D01*
X005094Y015677D01*
X005133Y015642D01*
X005168Y015604D01*
X005201Y015563D01*
X005231Y015521D01*
X005257Y015476D01*
X005280Y015429D01*
X005299Y015380D01*
X005315Y015330D01*
X005327Y015280D01*
X005335Y015228D01*
X005339Y015176D01*
X005339Y015124D01*
X005335Y015072D01*
X005327Y015020D01*
X005315Y014970D01*
X005299Y014920D01*
X005280Y014871D01*
X005257Y014824D01*
X005231Y014779D01*
X005201Y014737D01*
X005168Y014696D01*
X005133Y014658D01*
X005094Y014623D01*
X005053Y014591D01*
X005009Y014562D01*
X004964Y014537D01*
X004917Y014515D01*
X004868Y014496D01*
X004818Y014482D01*
X004767Y014471D01*
X004715Y014464D01*
X004663Y014461D01*
X004611Y014462D01*
X004559Y014467D01*
X004508Y014476D01*
X004457Y014489D01*
X004408Y014505D01*
X004359Y014525D01*
X004313Y014549D01*
X004269Y014576D01*
X004226Y014607D01*
X004186Y014640D01*
X004149Y014677D01*
X004115Y014716D01*
X004084Y014758D01*
X004055Y014802D01*
X004031Y014848D01*
X004010Y014895D01*
X003992Y014945D01*
X003979Y014995D01*
X003969Y015046D01*
X003963Y015098D01*
X003961Y015150D01*
X003430Y014067D02*
X003430Y016233D01*
X004256Y016370D02*
X005044Y016370D01*
X005870Y016233D02*
X005870Y014067D01*
X007756Y011595D02*
X007756Y011044D01*
X007874Y010768D02*
X008150Y010768D01*
X008386Y010532D01*
X007914Y010532D01*
X008150Y010768D01*
X008426Y010768D01*
X008544Y011044D02*
X008544Y011595D01*
X007756Y011595D01*
X007756Y010256D02*
X007756Y009705D01*
X008544Y009705D01*
X008544Y010256D01*
X008400Y018150D02*
X007900Y018150D01*
X007650Y018400D01*
X007400Y018150D01*
X006900Y018150D01*
X006650Y018400D01*
X006650Y018900D01*
X006900Y019150D01*
X007400Y019150D01*
X007650Y018900D01*
X007900Y019150D01*
X008400Y019150D01*
X008650Y018900D01*
X008650Y018400D01*
X008400Y018150D01*
X005851Y018400D02*
X005571Y018400D01*
X005391Y018610D02*
X005111Y018610D01*
X004931Y018470D02*
X004931Y018190D01*
X004931Y018400D02*
X004650Y018400D01*
X004650Y018470D02*
X004650Y018190D01*
X004470Y018260D02*
X004400Y018190D01*
X004190Y018190D01*
X004190Y018610D01*
X004400Y018610D01*
X004470Y018540D01*
X004470Y018470D01*
X004400Y018400D01*
X004190Y018400D01*
X004400Y018400D02*
X004470Y018330D01*
X004470Y018260D01*
X004650Y018470D02*
X004791Y018610D01*
X004931Y018470D01*
X005251Y018610D02*
X005251Y018190D01*
X002568Y018435D02*
X002568Y018935D01*
X002318Y019185D01*
X001818Y019185D01*
X001568Y018935D01*
X001318Y019185D01*
X000818Y019185D01*
X000568Y018935D01*
X000568Y018435D01*
X000818Y018185D01*
X001318Y018185D01*
X001568Y018435D01*
X001818Y018185D01*
X002318Y018185D01*
X002568Y018435D01*
D12*
X002561Y017120D02*
X002561Y016720D01*
X002428Y016853D01*
X002294Y016720D01*
X002294Y017120D01*
X002147Y017053D02*
X002147Y016786D01*
X002080Y016720D01*
X001947Y016720D01*
X001880Y016786D01*
X001880Y017053D01*
X001947Y017120D01*
X002080Y017120D01*
X002147Y017053D01*
X001732Y017053D02*
X001732Y016920D01*
X001666Y016853D01*
X001466Y016853D01*
X001466Y016720D02*
X001466Y017120D01*
X001666Y017120D01*
X001732Y017053D01*
X001318Y016920D02*
X001051Y016920D01*
X000904Y016786D02*
X000904Y017053D01*
X000837Y017120D01*
X000637Y017120D01*
X000637Y016720D01*
X000837Y016720D01*
X000904Y016786D01*
X001465Y015552D02*
X001465Y015417D01*
X001510Y015372D01*
X001600Y015372D01*
X001645Y015417D01*
X001645Y015552D01*
X001690Y015552D02*
X001465Y015552D01*
X001690Y015552D02*
X001735Y015507D01*
X001735Y015462D01*
X001645Y015257D02*
X001510Y015257D01*
X001465Y015212D01*
X001465Y015077D01*
X001645Y015077D01*
X001645Y014971D02*
X001645Y014880D01*
X001645Y014925D02*
X001465Y014925D01*
X001465Y014880D01*
X001375Y014925D02*
X001330Y014925D01*
X001465Y014770D02*
X001465Y014725D01*
X001555Y014635D01*
X001645Y014635D02*
X001465Y014635D01*
X001510Y014520D02*
X001645Y014520D01*
X001645Y014340D02*
X001375Y014340D01*
X001465Y014385D02*
X001465Y014475D01*
X001510Y014520D01*
X001465Y014385D02*
X001510Y014340D01*
X001510Y014226D02*
X001465Y014181D01*
X001465Y014091D01*
X001510Y014046D01*
X001600Y014046D01*
X001645Y014091D01*
X001645Y014181D01*
X001600Y014226D01*
X001510Y014226D01*
X001375Y013931D02*
X001645Y013931D01*
X001645Y013751D02*
X001375Y013751D01*
X001465Y013841D01*
X001375Y013931D01*
X001375Y013305D02*
X001645Y013305D01*
X001645Y013260D02*
X001645Y013350D01*
X001855Y013444D02*
X001990Y013309D01*
X001990Y013489D01*
X002125Y013444D02*
X001855Y013444D01*
X001855Y013104D02*
X002125Y013104D01*
X002125Y013014D02*
X002125Y013194D01*
X002080Y012900D02*
X002125Y012855D01*
X002125Y012765D01*
X002080Y012720D01*
X001900Y012900D01*
X002080Y012900D01*
X001945Y013014D02*
X001855Y013104D01*
X001900Y012900D02*
X001855Y012855D01*
X001855Y012765D01*
X001900Y012720D01*
X002080Y012720D01*
X002125Y012605D02*
X002125Y012425D01*
X001945Y012605D01*
X001900Y012605D01*
X001855Y012560D01*
X001855Y012470D01*
X001900Y012425D01*
X001645Y012425D02*
X001375Y012425D01*
X001510Y012470D02*
X001645Y012605D01*
X001600Y012720D02*
X001555Y012765D01*
X001555Y012900D01*
X001510Y012900D02*
X001645Y012900D01*
X001645Y012765D01*
X001600Y012720D01*
X001465Y012765D02*
X001465Y012855D01*
X001510Y012900D01*
X001555Y013014D02*
X001465Y013104D01*
X001465Y013149D01*
X001465Y013014D02*
X001645Y013014D01*
X001375Y012605D02*
X001555Y012425D01*
X001181Y012099D02*
X001181Y000681D01*
X007087Y000681D01*
X007087Y012099D01*
X001181Y012099D01*
X001375Y013260D02*
X001375Y013305D01*
X002709Y016720D02*
X002975Y016720D01*
X003123Y016720D02*
X003123Y017120D01*
X003323Y017120D01*
X003390Y017053D01*
X003390Y016920D01*
X003323Y016853D01*
X003123Y016853D01*
X002975Y017120D02*
X002709Y017120D01*
X002709Y016720D01*
X002709Y016920D02*
X002842Y016920D01*
X003256Y016853D02*
X003390Y016720D01*
X006145Y016645D02*
X006371Y016645D01*
X006446Y016720D01*
X006446Y016795D01*
X006371Y016870D01*
X006145Y016870D01*
X006145Y016645D02*
X006145Y017095D01*
X006371Y017095D01*
X006446Y017020D01*
X006446Y016945D01*
X006371Y016870D01*
X006606Y016720D02*
X006681Y016645D01*
X006831Y016645D01*
X006906Y016720D01*
X006906Y017095D01*
X007066Y017095D02*
X007367Y017095D01*
X007216Y017095D02*
X007216Y016645D01*
X007527Y017095D02*
X007827Y017095D01*
X007677Y017095D02*
X007677Y016645D01*
X007987Y016720D02*
X008062Y016645D01*
X008212Y016645D01*
X008287Y016720D01*
X008287Y017020D01*
X008212Y017095D01*
X008062Y017095D01*
X007987Y017020D01*
X007987Y016720D01*
X008447Y016645D02*
X008447Y017095D01*
X008748Y016645D01*
X008748Y017095D01*
X006606Y017095D02*
X006606Y016720D01*
X005640Y006725D02*
X005415Y006500D01*
X005715Y006500D01*
X005640Y006275D02*
X005640Y006725D01*
X005254Y006650D02*
X005254Y006575D01*
X005179Y006500D01*
X005029Y006500D01*
X004954Y006575D01*
X004954Y006650D01*
X005029Y006725D01*
X005179Y006725D01*
X005254Y006650D01*
X005179Y006500D02*
X005254Y006425D01*
X005254Y006350D01*
X005179Y006275D01*
X005029Y006275D01*
X004954Y006350D01*
X004954Y006425D01*
X005029Y006500D01*
X004794Y006650D02*
X004794Y006725D01*
X004794Y006650D02*
X004644Y006500D01*
X004644Y006275D01*
X004644Y006500D02*
X004494Y006650D01*
X004494Y006725D01*
X004334Y006725D02*
X004334Y006275D01*
X004033Y006725D01*
X004033Y006275D01*
X003877Y006275D02*
X003726Y006275D01*
X003802Y006275D02*
X003802Y006725D01*
X003877Y006725D02*
X003726Y006725D01*
X003566Y006725D02*
X003266Y006725D01*
X003416Y006725D02*
X003416Y006275D01*
X003106Y006725D02*
X002806Y006725D01*
X002956Y006725D02*
X002956Y006275D01*
X002646Y006275D02*
X002646Y006575D01*
X002495Y006725D01*
X002345Y006575D01*
X002345Y006275D01*
X002345Y006500D02*
X002646Y006500D01*
X002400Y003150D02*
X001900Y003150D01*
X001650Y002900D01*
X001650Y001400D01*
X001900Y001150D01*
X002400Y001150D01*
X002650Y001400D01*
X002650Y002900D01*
X002900Y003150D01*
X003400Y003150D01*
X003650Y002900D01*
X003650Y001400D01*
X003400Y001150D01*
X002900Y001150D01*
X002650Y001400D01*
X002650Y002900D02*
X002400Y003150D01*
X003650Y002900D02*
X003900Y003150D01*
X004400Y003150D01*
X004650Y002900D01*
X004650Y001400D01*
X004400Y001150D01*
X003900Y001150D01*
X003650Y001400D01*
X004650Y001400D02*
X004900Y001150D01*
X005400Y001150D01*
X005650Y001400D01*
X005650Y002900D01*
X005400Y003150D01*
X004900Y003150D01*
X004650Y002900D01*
X006650Y002850D02*
X006650Y003350D01*
X006950Y003650D01*
X008350Y003650D01*
X008650Y003350D01*
X008650Y002850D01*
X008450Y002650D01*
X008650Y002450D01*
X008650Y001850D01*
X008450Y001650D01*
X008650Y001450D01*
X008650Y000950D01*
X008350Y000650D01*
X006950Y000650D01*
X006650Y000950D01*
X006650Y001450D01*
X006850Y001650D01*
X006650Y001850D01*
X006650Y002450D01*
X006850Y002650D01*
X006650Y002850D01*
D13*
X005977Y002804D02*
X005977Y002727D01*
X005900Y002650D01*
X005747Y002650D01*
X005670Y002727D01*
X005670Y002804D01*
X005747Y002880D01*
X005900Y002880D01*
X005977Y002804D01*
X005900Y002650D02*
X005977Y002573D01*
X005977Y002497D01*
X005900Y002420D01*
X005747Y002420D01*
X005670Y002497D01*
X005670Y002573D01*
X005747Y002650D01*
X005670Y001880D02*
X005977Y001880D01*
X005977Y001804D01*
X005670Y001497D01*
X005670Y001420D01*
X003608Y003420D02*
X003301Y003880D01*
X003148Y003880D02*
X002841Y003880D01*
X002687Y003880D02*
X002380Y003420D01*
X002227Y003420D02*
X002073Y003573D01*
X002150Y003573D02*
X001920Y003573D01*
X001920Y003420D02*
X001920Y003880D01*
X002150Y003880D01*
X002227Y003804D01*
X002227Y003650D01*
X002150Y003573D01*
X002380Y003880D02*
X002687Y003420D01*
X002994Y003420D02*
X002994Y003880D01*
X003301Y003420D02*
X003608Y003880D01*
X001517Y002804D02*
X001440Y002880D01*
X001286Y002880D01*
X001210Y002804D01*
X001517Y002727D02*
X001210Y002420D01*
X001517Y002420D01*
X001517Y002727D02*
X001517Y002804D01*
X001363Y001880D02*
X001363Y001420D01*
X001210Y001420D02*
X001517Y001420D01*
X001210Y001727D02*
X001363Y001880D01*
X001526Y010925D02*
X001679Y010925D01*
X001756Y011002D01*
X001756Y011309D02*
X001679Y011386D01*
X001526Y011386D01*
X001449Y011309D01*
X001449Y011002D01*
X001526Y010925D01*
X001910Y010925D02*
X002217Y010925D01*
X002063Y010925D02*
X002063Y011386D01*
X001910Y011232D01*
X006051Y013898D02*
X006051Y014129D01*
X006128Y014205D01*
X006282Y014205D01*
X006358Y014129D01*
X006358Y013898D01*
X006358Y014052D02*
X006512Y014205D01*
X006512Y014359D02*
X006512Y014666D01*
X006435Y014819D02*
X006512Y014896D01*
X006512Y015049D01*
X006435Y015126D01*
X006358Y015126D01*
X006282Y015049D01*
X006282Y014896D01*
X006205Y014819D01*
X006128Y014819D01*
X006051Y014896D01*
X006051Y015049D01*
X006128Y015126D01*
X006051Y015280D02*
X006512Y015280D01*
X006512Y015586D01*
X006512Y015893D02*
X006051Y015893D01*
X006051Y015740D02*
X006051Y016047D01*
X006051Y015586D02*
X006051Y015280D01*
X006282Y015280D02*
X006282Y015433D01*
X006051Y014666D02*
X006051Y014359D01*
X006512Y014359D01*
X006282Y014359D02*
X006282Y014512D01*
X006512Y013898D02*
X006051Y013898D01*
D14*
X007152Y012018D02*
X007152Y011728D01*
X007152Y011825D02*
X007297Y011825D01*
X007345Y011873D01*
X007345Y011970D01*
X007297Y012018D01*
X007152Y012018D01*
X007249Y011825D02*
X007345Y011728D01*
X007447Y011728D02*
X007640Y011921D01*
X007640Y011970D01*
X007592Y012018D01*
X007495Y012018D01*
X007447Y011970D01*
X007447Y011728D02*
X007640Y011728D01*
X008675Y011772D02*
X008675Y011675D01*
X008723Y011627D01*
X008772Y011627D01*
X008820Y011675D01*
X008820Y011772D01*
X008868Y011820D01*
X008917Y011820D01*
X008965Y011772D01*
X008965Y011675D01*
X008917Y011627D01*
X008917Y011525D02*
X008675Y011525D01*
X008675Y011332D02*
X008917Y011332D01*
X008965Y011380D01*
X008965Y011477D01*
X008917Y011525D01*
X008675Y011772D02*
X008723Y011820D01*
X008675Y011231D02*
X008675Y011037D01*
X008675Y011134D02*
X008965Y011134D01*
X008965Y010936D02*
X008772Y010936D01*
X008675Y010839D01*
X008772Y010743D01*
X008965Y010743D01*
X008820Y010743D02*
X008820Y010936D01*
X008675Y010641D02*
X008675Y010448D01*
X008675Y010545D02*
X008965Y010545D01*
X008917Y010347D02*
X008868Y010347D01*
X008820Y010298D01*
X008820Y010202D01*
X008772Y010153D01*
X008723Y010153D01*
X008675Y010202D01*
X008675Y010298D01*
X008723Y010347D01*
X008820Y010052D02*
X008820Y009859D01*
X008917Y009757D02*
X008965Y009709D01*
X008965Y009564D01*
X008675Y009564D01*
X008675Y009709D01*
X008723Y009757D01*
X008917Y009757D01*
X008917Y010153D02*
X008965Y010202D01*
X008965Y010298D01*
X008917Y010347D01*
X006515Y017396D02*
X006515Y017686D01*
X006370Y017541D01*
X006563Y017541D01*
X006268Y017541D02*
X006220Y017492D01*
X006075Y017492D01*
X006075Y017396D02*
X006075Y017686D01*
X006220Y017686D01*
X006268Y017637D01*
X006268Y017541D01*
X006172Y017492D02*
X006268Y017396D01*
X003153Y017365D02*
X002960Y017365D01*
X003056Y017365D02*
X003056Y017655D01*
X002960Y017558D01*
X002858Y017510D02*
X002858Y017607D01*
X002810Y017655D01*
X002665Y017655D01*
X002665Y017365D01*
X002665Y017462D02*
X002810Y017462D01*
X002858Y017510D01*
X002762Y017462D02*
X002858Y017365D01*
X002810Y012904D02*
X002665Y012904D01*
X002665Y012614D01*
X002665Y012711D02*
X002810Y012711D01*
X002858Y012759D01*
X002858Y012856D01*
X002810Y012904D01*
X002762Y012711D02*
X002858Y012614D01*
X002960Y012662D02*
X003008Y012614D01*
X003105Y012614D01*
X003153Y012662D01*
X003153Y012711D01*
X003105Y012759D01*
X003056Y012759D01*
X003105Y012759D02*
X003153Y012807D01*
X003153Y012856D01*
X003105Y012904D01*
X003008Y012904D01*
X002960Y012856D01*
X000675Y006858D02*
X000675Y006664D01*
X000482Y006858D01*
X000433Y006858D01*
X000385Y006809D01*
X000385Y006713D01*
X000433Y006664D01*
X000433Y006563D02*
X000385Y006515D01*
X000385Y006418D01*
X000433Y006370D01*
X000627Y006370D01*
X000675Y006418D01*
X000675Y006515D01*
X000627Y006563D01*
X000642Y004352D02*
X000691Y004352D01*
X000739Y004303D01*
X000739Y004207D01*
X000691Y004158D01*
X000691Y004057D02*
X000739Y004009D01*
X000739Y003912D01*
X000691Y003864D01*
X000497Y003864D01*
X000449Y003912D01*
X000449Y004009D01*
X000497Y004057D01*
X000497Y004158D02*
X000449Y004207D01*
X000449Y004303D01*
X000497Y004352D01*
X000546Y004352D01*
X000594Y004303D01*
X000642Y004352D01*
X000594Y004303D02*
X000594Y004255D01*
X001756Y001110D02*
X002003Y000740D01*
X002003Y001110D01*
X002124Y001110D02*
X002309Y001110D01*
X002371Y001049D01*
X002371Y000925D01*
X002309Y000863D01*
X002124Y000863D01*
X002124Y000740D02*
X002124Y001110D01*
X002248Y000863D02*
X002371Y000740D01*
X002493Y000740D02*
X002493Y001110D01*
X002740Y001110D01*
X002616Y000925D02*
X002493Y000925D01*
X002861Y001049D02*
X002923Y001110D01*
X003046Y001110D01*
X003108Y001049D01*
X003108Y000987D01*
X002861Y000740D01*
X003108Y000740D01*
X003229Y000925D02*
X003476Y000925D01*
X003414Y000740D02*
X003414Y001110D01*
X003229Y000925D01*
X003598Y000740D02*
X003844Y000740D01*
X003966Y000802D02*
X004213Y001049D01*
X004213Y000802D01*
X004151Y000740D01*
X004028Y000740D01*
X003966Y000802D01*
X003966Y001049D01*
X004028Y001110D01*
X004151Y001110D01*
X004213Y001049D01*
X004334Y000987D02*
X004458Y001110D01*
X004458Y000740D01*
X004581Y000740D02*
X004334Y000740D01*
X004703Y000925D02*
X004949Y000925D01*
X004826Y000802D02*
X004826Y001049D01*
X003598Y001110D02*
X003598Y000740D01*
X001756Y000740D02*
X001756Y001110D01*
X008497Y000612D02*
X008620Y000735D01*
X008620Y000365D01*
X008497Y000365D02*
X008744Y000365D01*
X008826Y000983D02*
X008729Y001079D01*
X008826Y001176D01*
X009019Y001176D01*
X008922Y001277D02*
X009019Y001374D01*
X008922Y001471D01*
X008729Y001471D01*
X008729Y001572D02*
X008729Y001717D01*
X008777Y001765D01*
X008874Y001765D01*
X008922Y001717D01*
X008922Y001572D01*
X008922Y001669D02*
X009019Y001765D01*
X009019Y001572D02*
X008729Y001572D01*
X008729Y001277D02*
X008922Y001277D01*
X008874Y001176D02*
X008874Y000983D01*
X008826Y000983D02*
X009019Y000983D01*
X008874Y001867D02*
X008874Y002060D01*
X008729Y002161D02*
X008729Y002258D01*
X008729Y002210D02*
X009019Y002210D01*
X009019Y002258D02*
X009019Y002161D01*
X008971Y002358D02*
X009019Y002406D01*
X009019Y002503D01*
X008971Y002551D01*
X008922Y002551D01*
X008874Y002503D01*
X008874Y002406D01*
X008826Y002358D01*
X008777Y002358D01*
X008729Y002406D01*
X008729Y002503D01*
X008777Y002551D01*
X008729Y002652D02*
X008729Y002797D01*
X008777Y002846D01*
X008874Y002846D01*
X008922Y002797D01*
X008922Y002652D01*
X009019Y002652D02*
X008729Y002652D01*
D15*
X002893Y009644D02*
X002893Y010666D01*
M02*
