G75*
%MOIN*%
%OFA0B0*%
%FSLAX24Y24*%
%IPPOS*%
%LPD*%
%AMOC8*
5,1,8,0,0,1.08239X$1,22.5*
%
%ADD10C,0.0100*%
%ADD11C,0.0820*%
%ADD12C,0.0808*%
%ADD13C,0.0720*%
%ADD14C,0.0780*%
%ADD15OC8,0.0820*%
%ADD16C,0.0820*%
D10*
X009083Y010752D02*
X028583Y010752D01*
X029333Y011502D01*
X029333Y028752D01*
X028333Y028752D01*
X027333Y029752D01*
X014333Y029752D01*
X013333Y028752D01*
X008833Y028752D01*
X008333Y028252D01*
X008333Y011502D01*
X009083Y010752D01*
D11*
X009333Y012252D03*
X009333Y013252D03*
X009333Y014252D03*
X009333Y015252D03*
X009333Y016252D03*
X009333Y017252D03*
X009333Y018252D03*
X009333Y019252D03*
X009333Y020752D03*
X009333Y021752D03*
X009333Y022752D03*
X009333Y023752D03*
X009333Y024752D03*
X009333Y025752D03*
X009333Y026752D03*
X009333Y027752D03*
X028333Y027752D03*
X028333Y026752D03*
X028333Y025752D03*
X028333Y024752D03*
X028333Y023752D03*
X028333Y022752D03*
X028333Y020752D03*
X028333Y019752D03*
X028333Y018752D03*
X028333Y017752D03*
X028333Y016752D03*
X028333Y015752D03*
D12*
X025583Y020252D03*
X024583Y020252D03*
X024583Y021252D03*
X025583Y021252D03*
X023583Y021252D03*
X023583Y020252D03*
X022583Y020252D03*
X022583Y021252D03*
D13*
X019153Y021252D02*
X018513Y021252D01*
X018513Y020252D02*
X019153Y020252D01*
X019153Y019252D02*
X018513Y019252D01*
X015653Y019252D02*
X015013Y019252D01*
X015013Y020252D02*
X015653Y020252D01*
X015653Y021252D02*
X015013Y021252D01*
X012153Y021252D02*
X011513Y021252D01*
X011513Y020252D02*
X012153Y020252D01*
X012153Y019252D02*
X011513Y019252D01*
X011513Y015252D02*
X012153Y015252D01*
X012153Y014252D02*
X011513Y014252D01*
X011513Y013252D02*
X012153Y013252D01*
X015013Y013252D02*
X015653Y013252D01*
X015653Y014252D02*
X015013Y014252D01*
X015013Y015252D02*
X015653Y015252D01*
X018513Y015252D02*
X019153Y015252D01*
X019153Y014252D02*
X018513Y014252D01*
X018513Y013252D02*
X019153Y013252D01*
D14*
X016613Y025252D03*
X014054Y025252D03*
D15*
X017333Y027802D03*
X018333Y027802D03*
X019333Y027802D03*
X019333Y028802D03*
X018333Y028802D03*
X017333Y028802D03*
D16*
X021333Y028122D02*
X021333Y027382D01*
X022333Y027382D02*
X022333Y028122D01*
X023333Y028122D02*
X023333Y027382D01*
X024333Y027382D02*
X024333Y028122D01*
X024333Y025122D02*
X024333Y024382D01*
X023333Y024382D02*
X023333Y025122D01*
X022333Y025122D02*
X022333Y024382D01*
X021333Y024382D02*
X021333Y025122D01*
X012203Y025252D02*
X011463Y025252D01*
X011463Y024252D02*
X012203Y024252D01*
X012203Y026252D02*
X011463Y026252D01*
X011463Y027252D02*
X012203Y027252D01*
M02*
