%
M48
M72
T01C0.0200
T02C0.0354
T03C0.0400
T04C0.0440
%
T01
X17333Y20252
X20833Y23252
X19083Y24252
X25333Y27002
X25083Y29252
X19083Y25002
X20833Y23752
X16833Y18752
X21583Y18752
X16083Y18002
X10083Y23252
X14083Y20252
X13583Y17502
X14083Y14252
X23583Y26252
X25333Y26252
X21833Y19502
X20333Y19252
X22333Y17252
X24833Y17252
T02
X24583Y20252
X23583Y20252
X22583Y20252
X25583Y21252
X24583Y21252
X23583Y21252
X22583Y21252
X25583Y20252
X16613Y25252
X14054Y25252
T03
X28333Y15752
X28333Y16752
X28333Y17752
X28333Y18752
X28333Y19752
X28333Y20752
X28333Y22752
X28333Y23752
X28333Y24752
X28333Y25752
X28333Y26752
X28333Y27752
X9333Y27752
X9333Y26752
X9333Y25752
X9333Y24752
X9333Y23752
X9333Y22752
X9333Y21752
X9333Y20752
X9333Y19252
X9333Y18252
X9333Y17252
X9333Y16252
X9333Y15252
X9333Y14252
X9333Y13252
X9333Y12252
X11833Y21252
X11833Y20252
X11833Y19252
X15333Y21252
X15333Y20252
X15333Y19252
X18833Y21252
X18833Y20252
X18833Y19252
X11833Y15252
X11833Y14252
X11833Y13252
X15333Y15252
X15333Y14252
X15333Y13252
X18833Y15252
X18833Y14252
X18833Y13252
X17333Y27802
X17333Y28802
X18333Y27802
X18333Y28802
X19333Y27802
X19333Y28802
T04
X21333Y24752
X22333Y24752
X23333Y24752
X24333Y24752
X21333Y27752
X22333Y27752
X23333Y27752
X24333Y27752
X11833Y24252
X11833Y25252
X11833Y26252
X11833Y27252
M30
